<?xml version="1.0" encoding="UTF-8"?>
<svg xmlns="http://www.w3.org/2000/svg" xmlns:xlink="http://www.w3.org/1999/xlink" version="1.1" x="0px" y="0px" viewBox="0 0 501.5 523.8" style="enable-background:new 0 0 501.5 523.8;" xml:space="preserve"> <style type="text/css"> .st0{fill:#FFFFFF;} .st1{display:none;fill:#33322C;} .st2{display:none;opacity:8.000000e-02;fill:#3F3E34;} .st3{fill:#711F13;} .st4{fill:#33322C;} .st5{fill:#9E9E99;} .st6{fill:none;} .st7{fill:#606161;} .st8{display:none;} .st9{display:inline;} .st10{display:none;fill:none;stroke:#33322C;stroke-width:5;stroke-linejoin:round;stroke-miterlimit:10;} .st11{fill:none;stroke:#33322C;stroke-width:6;stroke-linejoin:round;stroke-miterlimit:10;} .st12{display:inline;fill:none;stroke:#33322C;stroke-width:6;stroke-linejoin:round;stroke-miterlimit:10;} .st13{display:inline;fill:none;stroke:#33322C;stroke-width:5;stroke-miterlimit:10;} .st14{display:inline;fill:none;stroke:#33322C;stroke-width:4;stroke-miterlimit:10;} .st15{display:inline;fill:#F0EFEF;} .st16{display:inline;fill:#711F13;} .st17{display:inline;fill:#9E9E99;} .st18{fill:#711F13;stroke:#711F13;stroke-miterlimit:10;} </style> <g id="Layer_1"> </g> <g id="Laurel_Lines"> </g> <g id="Shield_Lines" class="st8"> </g> <g id="Lower_Ribbon" class="st8"> </g> <g id="Ribbon_lines" class="st8"> </g> <g id="Text" class="st8"> </g> <g id="Layer_8"> <g> <g> <path class="st3" d="M261.1,210.4c-0.9-1.3-2.1-2.3-3.4-3s-2.9-1.1-4.5-1.1c-0.6,0-1.2,0-1.9,0c-0.7,0-1.2,0-1.5,0.1c0,0,0,0,0,0 v25.2c0,1.4,0.4,2.4,1.1,2.9c0.7,0.5,1.8,0.8,3.3,0.8c1.7,0,3.2-0.3,4.5-1c1.3-0.7,2.3-1.7,3.1-2.9c0.8-1.3,1.4-2.8,1.8-4.5 s0.6-3.7,0.6-5.9c0-2.2-0.3-4.2-0.8-6C262.8,213.3,262.1,211.8,261.1,210.4z"></path> <polygon class="st3" points="276.2,221.6 272,234.3 272,234.3 280.6,234.3 280.6,234.3 276.3,221.6 "></polygon> <path class="st3" d="M489.3,306.9c-8.4,3.4-16.7,6.8-24.7,10.2c1.8-5.4,4.4-11.2,5.4-17.2c0.8-4.6,2.9-6.1,6.9-7.3 c15.7-4.7,20.6-14.5,20.5-28.5c0-1-0.5-2.3-1.3-3c-0.4-0.3-1.9,0.3-2.7,0.8c-5.9,3.9-11.7,7.8-17.6,11.8c0.1-2.5,0.1-4.8,0.4-7.1 c0.7-4.8,0.7-9.5,4.4-13.6c3.2-3.6,4.5-8.5,2.5-13.3c-1.7-4.1-4-8-6.3-11.7c-1.3-2-2.9-1.7-3.7,0.8c-1.2,3.3-2.5,6.6-3.7,9.9 c-1.7,4.6-2.4,9.3-0.4,14c1,2.5,3,5,2.8,7.4c-0.5,5.3-2,10.5-3.1,15.7c-1.7-6.4-8.7-12.8-15-14.7c-4.5-1.4-1.4,12.7-1,14.9 c1.1,5.7,5,9.5,9.8,12.4c1.6,1,2.5,1.9,1.8,3.9c-1.9,5.2-3.2,11-5.7,16c-4.8-2.7-8.1-10.9-12.4-15c-1.9,1.3-2.7,4-2.9,6.4 c-0.9,9.7-0.5,19.1,8.5,25.5c-2.6,5-4.9,9.7-7.1,14c-3.2-5.5-6.3-10.8-9.5-16.1c-0.3-0.5-2.4-0.5-2.4-0.3 c-2,5.3-5.2,10.7-5.5,16.1c-0.3,5.1,2.5,10.3,3.9,15.5c0.4,1.6,1.6,3.9,1,4.9c-3.4,5.4-7.2,10.5-10.9,15.7 c-0.3-0.1-0.6-0.2-0.9-0.4c1.3-7.2-2.3-13.3-4.4-19.7c-0.3-0.8-1.3-1.9-2.1-1.9c-0.6,0-1.4,1.1-2,1.9c-0.6,0.8-0.9,2-1.6,2.7 c-6.7,6.7-6,14.4-3.9,22.7c0.9,3.4,1.3,8.3-0.5,10.8c-3.5,4.9-8.7,8.7-13,12.7c2.9-2.9-0.6-16.6-1-20.1c-0.1-1.1-0.3-2.3-1.1-3 c-2.7-2.2-8.3,7.1-9.2,9c-1.9,4.4-2.1,9.3-1.2,14.1c1.9,9.8-3,17.4-12.9,19.8c3.4-12,1.2-11.1,0.5-22.9c0-0.6-0.5-1.5-0.9-1.6 c-0.5-0.1-1.3,0.3-1.8,0.8c-1.6,1.4-3.1,3-4.8,4.2c-3.4,2.5-5.7,5.6-6.5,9.7c-0.7,3.8-1.6,7.6-2.2,11.4 c-1.8,11.7-6.1,13.3-18.5,18.6c0.7-1.4,1.5-2.6,2-3.8c2.4-6.2,1.8-12.8,1.4-19.2c-0.1-2.3-1.6-2.2-3.3-1.1 c-9.5,6.3-15.3,14.6-15.8,26.4c-0.3,7.8-5.4,12.1-14.3,12.8c5.1-6.1,4.3-12.7,3-19.4c-0.6-3-1.7-2.7-3.5-1.3 c-2.2,1.7-4.4,3.5-6.6,5.3c-7,5.8-12.5,12.2-13.5,21.9c-0.3,3.2-3,7.4-5.8,9c-7.4,4.2-15.4,7.3-23.3,10.6 c-1.6,0.6-3.9,0.6-5.4-0.1c-6.7-2.8-13.1-6.5-19.9-8.9c-6.4-2.3-8.9-6.6-9.6-12.8c-0.3-2.4-1.1-4.8-2.1-7 c-3.7-8.4-11.7-12.7-18.2-18.4c-0.4-0.3-2.5,0.4-2.5,0.9c-1.1,6.4-2.7,12.9,1.7,18.8c0.3,0.4,0.4,0.9,0.6,1.6 c-8.9-1.4-13.5-5.2-13.8-12.8c-0.5-11.8-6-20.3-15.7-26.4c-0.7-0.4-1.7-0.7-2.5-0.4c-0.5,0.1-0.8,1.3-0.9,2 c-0.5,7.7-1.1,15.5,3.2,22.6c-3.6-1.6-7.1-3.4-10.3-5.4c-1.6-1-3.1-2.4-4.4-3.9c-3-3.3-3.2-7.4-3.6-11.5 c-0.9-10.6-5.6-18.9-15.6-24.4c-1.4,8.4-3.4,16.6-0.2,25.2c-2.8-1.6-5.1-3.4-7.6-4.9c-5.9-3.5-6.3-8.8-5.4-14.8 c1.3-8.3,0.9-16.1-6.7-21.6c-1.4-1-2.7-2.1-4.2-2.9c-1.5,6.4-7.9,18-1.5,23.6c-2.8-2.4-5.7-5.3-9-7.7c-6.1-4.6-6-10.5-4.1-17.1 c2.2-7.5,2.1-14.7-3.9-20.7c-0.7-0.7-1.1-1.8-1.8-2.6c-0.7-0.9-1.6-1.7-2.5-2.5c-0.7,0.9-1.6,1.6-2,2.6 c-2.4,6.2-5.4,12.2-4.8,19.3c-3.6-4.2-6.6-8.6-9.9-12.8c-2-2.6-1.8-4.8-0.6-7.8c1.9-4.4,3.4-9,4.2-13.7 c1.1-6.6-3.4-11.8-5.7-17.5c-0.1-0.2-2.3,0-2.7,0.6c-3.2,5.1-6.2,10.3-9.3,15.6c-1.7-3.4-3.4-7-5.3-10.5c-1.3-2.3-1.3-3.9,0.8-6 c3.2-3.1,5.9-6.9,6-11.6c0.1-3.5,0.1-7.1,0-10.6c-0.6-16-11.9,3.9-15.4,8.7c-1.9-5.6-4-11.3-5.7-17.1c-0.3-0.9,0.8-2.8,1.8-3.5 c4.6-3.1,8.6-6.8,9.7-12.5c0.8-4.3,1.1-8.8,1.4-13.2c0.1-0.7-1-1.6-1.4-2.2c-6.7,3.9-13.8,6.8-16,15.2c-0.9-4.5-2-9-2.8-13.5 c-0.2-1.4,0.2-3.1,0.7-4.5c2.1-5.3,4.1-10.5,2.1-16.3c-1-2.9-1.9-5.8-3.1-8.6c-0.9-2.1-2-4-3.1-6c-1.5,1.7-3.3,3.3-4.6,5.2 c-6.4,9.7-6.1,15.3,0.9,24.4c0.8,1,1.3,2.5,1.4,3.8c0.5,4.4,0.8,8.8,1.2,13.5c-6-4-12-8-17.9-12c-2.4-1.6-3.8-1-3.8,1.8 c0,3.5,0.2,7.1,0.9,10.5c0.5,2.3,1.6,4.6,2.9,6.7c4.5,7,11.2,10.9,19.2,12.6c2.6,0.6,3.4,2.1,3.9,4.6c0.7,3.8,1.9,7.4,3.1,11.1 c0.9,2.9,2.1,5.7,3.3,8.8c-2.8-1.6-5-3.2-7.4-4.2c-5.8-2.4-11.8-4.6-17.7-6.8c-0.8-0.3-2.4-0.4-2.8,0.1c-0.6,0.7-0.8,2.1-0.5,3.1 c0.5,2.2,1.3,4.3,2.2,6.3c3.1,6.7,7.6,11.7,15.4,12.5c3,0.3,6.1,0,9.2,0.1c4,0.1,7.1,1.6,9.1,5.5c2.2,4.3,4.9,8.3,7.4,12.5 c0.5,0.8,0.9,1.7,1.4,2.6c-2.5-1.2-4.6-2.7-7-3.2c-6.5-1.4-13.2-2.3-19.8-3.4c-0.7-0.1-1.8,0.3-2.3,0.9c-0.3,0.3-0.2,1.5,0.1,2 c5.9,9.8,13.8,16.6,26.1,16.4c12.1-0.1,19.8,5.3,24.5,17.3c-1-0.4-1.9-0.6-2.7-1c-4.4-2.6-9.1-3.4-14.2-3.2 c-4.3,0.1-8.7-0.5-13-0.7c-0.8-0.1-2.4-0.2-2.4,0c-0.3,1.1-0.6,2.6-0.1,3.3c3,3.7,5.7,8.1,9.5,10.6c7.7,5.2,16.4,5.1,25.3,2.8 c2.6-0.7,6.2-1.1,8.1,0.1c3.7,2.5,6.4,6.3,9.8,9.8c-9.2,1.5-17.9,3-26.8,4.4c0,0.4-0.2,1.2,0.1,1.6c4.7,6,9.7,11.7,18,12.5 c6.8,0.7,13.6,1,20-2.7c1.3-0.8,3.9-1.1,4.9-0.4c4.8,3.4,9.3,7.3,14.3,11.2c-4.6,0.5-8.7,0.7-12.6,1.5c-5.6,1.2-11,3-16.5,4.6 c-0.8,0.2-1.9,0.8-2,1.3c-0.1,0.7,0.4,1.9,1,2.3c11.2,7.7,23.6,10.8,36.3,5.4c7.2-3.1,12.8-3.4,19.1,1.4c3.4,2.6,7.3,4.4,11,6.5 c0,0.5,0,0.9,0,1.4c-8,2.2-16,4.3-24,6.6c-0.6,0.2-1.6,0.9-1.5,1.1c0.2,0.8,0.7,1.6,1.3,2.1c10.9,9.1,22.8,9.4,34.7,3 c7.9-4.3,15.3-4.5,23-0.4c3,1.6,6,3.3,8.9,5c-0.1,0.4-0.2,0.8-0.3,1.2c-6.5-2.2-11.4,1-16.5,4.2c-5.6,3.5-11.2,7.5-18.2,8.1 c-1,0.1-1.9,1.3-2.9,2c0.1,0.4,0.2,0.8,0.4,1.2c4.1,1,8.2,1.9,12.2,3c13.1,3.7,25.2,2.7,35.8-6.8c2.4-2.1,5.3-2.6,8.4-0.7 c2.7,1.7,5.7,2.8,8.5,4.4c2.9,1.6,5.7,3.5,8.3,5.2c-1-0.6-25.7,20.7-27.3,23.4c-1.8,3.2,5.1,5,7.1,5c3.4,0,6.8-1.4,9.3-3.7 c6.7-6,14.1-11.3,21.4-17c8.1,6.4,15.9,12.5,23.6,18.7c1.9,1.6,12.8,1.5,13.8-1.1c0.9-2.3-3.4-5.3-4.9-6.7c-3-2.9-7.4-6-10.5-8.8 c-1.4-1.2-9.6-8-12-10.1c4.6-2.6,9.4-4.8,13.6-7.7c5.7-3.9,10.3-2.7,15.5,1.3c3.8,2.9,8.6,5.4,13.3,6.1 c9.7,1.5,22.2-0.8,30.8-5.5c-0.3-1-1.2-2.2-2.4-2.3c-6.9-0.6-12.4-4.5-17.9-7.9c-5.2-3.2-10.1-6.6-16.8-4.7 c4.9-5.5,11.5-7.7,18-9c3.7-0.7,8.4,1.1,11.9,3c12,6.4,26,6.6,35.8-2.1c0.8-0.7,1.3-1.7,1.9-2.5c-1-0.4-2-1.1-3.1-1.2 c-8.1-0.7-15.1-4.2-22.6-7.8c5.6-3.2,11-6,16.1-9.4c3.1-2.1,5.9-1.8,8.9-0.5c1.1,0.4,2.1,1,3.2,1.5c13.6,5.8,26.2,3.1,38.1-4.7 c0.7-0.5,1.2-1.6,1.3-2.5c0-0.4-1.3-1-2.1-1.2c-4.6-1.2-9.2-2.4-13.9-3.5c-3.4-0.8-6.8-1.5-10.3-2.1c-1.4-0.2-2.9,0-5.5,0 c4.3-3.5,8-6,11.1-9.1c3.5-3.6,6.7-3,11.1-1.4c14.1,5.2,26.5,2.1,35.1-9.9c0.5-0.7,0.5-1.8,0.7-2.4c-9.1-1.5-17.7-2.9-26.3-4.4 c-0.3-0.4-0.5-0.7-0.8-1.1c2.5-2.1,5.4-3.9,7.3-6.5c2.9-3.7,6.6-3.7,10.1-2.8c5.6,1.5,11.2,2.2,17,1.2 c8.9-1.5,14.8-6.8,18.7-14.5c1.2-2.4,0-3.5-2.6-3.2c-2.8,0.4-5.6,0.9-8.4,0.8c-7.3-0.3-14.4,0.1-20.8,4c-0.2,0.1-0.7,0-1.3,0 c3.4-4.6,6.7-9,10-13.4c0.3-0.3,0.7-0.6,1.1-0.7c4.1-1,8.2-2.8,12.2-2.8c12.7,0.3,21.1-6,27.4-16.2c0.4-0.7,0.6-2.2,0.1-2.6 c-0.5-0.6-1.8-0.7-2.7-0.6c-2.7,0.4-5.3,1-7.9,1.7c-6,1.5-12.8-0.1-18,4.9c2.8-5.3,5.9-10.2,8.6-15.4c1.9-3.7,4.8-4.9,8.5-5.2 c1.9-0.2,3.8-0.1,5.7,0c8.3,0.4,14.4-3,18.2-10.3c1.5-2.9,2.6-6.1,3.6-9.2c0.2-0.7-0.3-2.1-0.9-2.7 C491.4,306.5,490.1,306.6,489.3,306.9z M487.9,276c-1,2.6-3.3,4.4-5.4,6.1c-2.2,1.6-4.5,3-7.2,3.8 C478.9,281.8,483.5,279.1,487.9,276z M475.7,238.9c2.4,4.7,1,10.7-1.7,15C474.1,248.7,475.2,244,475.7,238.9z M19.1,282.1 c-2.1-1.7-4.4-3.5-5.4-6.1c4.4,3.1,9,5.7,12.6,9.9C23.7,285.1,21.3,283.7,19.1,282.1z M26,238.9c0.4,5.1,1.6,9.8,1.7,15 C25,249.6,23.6,243.6,26,238.9z M44,269.5c0.4,5.2-2.8,10.6-7.5,12.9C39.3,278.1,41.6,274.1,44,269.5z M20.9,317.5 c2.4,2.1,5.3,2.7,8.2,3.7c2.6,0.8,6.3,1.8,8.9,2.8C32.6,324.7,23.1,323.1,20.9,317.5z M48.1,317.5c1.8-4.5,4.5-8.6,6.5-12.9 C55.3,309.6,52.1,314.7,48.1,317.5z M37.2,350.9c1.2,1.2,2.9,1.5,4.5,1.9c4.9,1.2,9.8,2.1,14.6,3.9 C51.5,357.3,39.3,355.8,37.2,350.9z M67.8,343.1c-0.3,2.2-0.9,4.4-2.3,6.1c-0.2-3.2,0.3-6.3,0.6-9.4c0.1-1,0.2-2.1,0.4-3.2 C67.8,338.5,68,340.9,67.8,343.1z M58.3,383.2c5.8,2,11.7,1.1,17.7,1.7C70.8,387.2,62.5,387.8,58.3,383.2z M87.3,379.2 c0.5-4.8,1.3-8.9,1.4-13.6C91.4,369.6,90.4,375.6,87.3,379.2z M86.9,410.5c4.9,0.4,9.4,0.6,14.3-1 C97.9,413.7,91,413.7,86.9,410.5z M114.2,405.7c-1.2-5.2-0.8-10.4-0.3-15.7C116.1,394.8,115.7,400.8,114.2,405.7z M113.1,438.1 c6.7-0.4,13.3-1.9,19.9-2.8C127.3,438.8,119.6,440.6,113.1,438.1z M141.5,426.4c-0.7-4.9-1-9.3-2.6-14 C143,415.6,143.6,421.9,141.5,426.4z M153,461.9c6.6-0.5,12.2-3.7,18.4-5.9C166.9,460.5,159.3,464.3,153,461.9z M177.5,445.5 c-1.6-5.4-3.4-10.9-6.1-15.8C176.4,433,178.7,439.8,177.5,445.5z M189.5,483.1c1.7-0.1,3.4-0.3,4.9-0.7c4.6-1.2,9.3-3.8,13.4-6.2 C203.9,481.7,196.1,485.7,189.5,483.1z M202,450.7c5,0.8,8.3,7.9,8.7,12.5C207.4,459.2,205.7,454.3,202,450.7z M307.3,482.4 c1.6,0.4,3.2,0.6,4.9,0.7c-6.7,2.6-14.5-1.4-18.4-6.9C298,478.5,302.6,481.2,307.3,482.4z M291,463.2c0.4-4.6,3.7-11.7,8.7-12.5 C296,454.3,294.3,459.2,291,463.2z M324.2,445.5c-1.2-5.8,1.1-12.6,6.1-15.8C327.6,434.7,325.8,440.1,324.2,445.5z M348.7,461.9 c-6.3,2.4-13.9-1.4-18.4-5.9C336.6,458.2,342.1,461.4,348.7,461.9z M360.2,426.4c-2.1-4.5-1.5-10.8,2.6-14 C361.2,417.1,360.9,421.5,360.2,426.4z M388.5,438.1c-6.5,2.4-14.1,0.7-19.9-2.8C375.2,436.2,381.9,437.8,388.5,438.1z M387.5,405.7c-1.6-4.9-1.9-10.9,0.3-15.7C388.3,395.3,388.7,400.5,387.5,405.7z M414.8,410.5c-4,3.2-11,3.2-14.3-1 C405.3,411.1,409.8,410.8,414.8,410.5z M413.1,365.5c0.1,4.7,0.9,8.8,1.4,13.6C411.3,375.6,410.3,369.6,413.1,365.5z M443.3,383.2c-4.2,4.5-12.4,4-17.7,1.7C431.6,384.4,437.6,385.2,443.3,383.2z M436.2,349.2c-2-2.7-2.7-6.2-2.2-9.5 c0.2-1.1,0.5-2.2,1.2-3.1c0.2,1.1,0.3,2.2,0.4,3.2C435.9,342.9,436.4,346,436.2,349.2z M460,352.8c1.6-0.5,3.3-0.7,4.5-1.9 c-2,4.9-14.3,6.4-19.1,5.8C450.2,354.9,455.1,354.1,460,352.8z M447.1,304.6c2,4.3,4.6,8.4,6.5,12.9 C449.5,314.7,446.4,309.6,447.1,304.6z M457.6,269.5c2.4,4.5,4.7,8.5,7.5,12.9C460.4,280.2,457.3,274.8,457.6,269.5z M463.8,324 c2.6-1,6.2-2,8.9-2.8c2.9-0.9,5.8-1.6,8.2-3.7C478.6,323.1,469.1,324.7,463.8,324z"></path> <path class="st3" d="M309.4,177.1c-0.3-4.4-0.7-8.7-1.1-13c0-0.4-0.1-0.9-0.2-1.4c-0.4,0-0.6,0.1-0.8,0.1 c-2.1,0.2-4.2,0.5-6.3,0.6c-8.1,0.2-16.1-0.9-23.9-3.2c-9.5-2.8-18.2-7.3-26.3-13.1c-0.5-0.3-1-0.7-1.5-1 c-17.6,12.8-36.8,19.3-58.7,16.7c-0.1,0.8-0.2,1.6-0.3,2.4c-0.3,3.9-0.7,7.8-0.9,11.8c-0.5,8.5-1,16.9-1.3,25.4 c-0.2,6.7,0.1,13.3,1.2,19.9c1.7,10.2,5.7,19.5,11.4,28.1c5.9,9,13.3,16.6,21.4,23.5c8.4,7.2,18,12.5,27.2,18.4 c0.1,0,0.2,0,0.3-0.1c4.3-2.7,8.7-5.4,13-8.2c12.3-7.8,23.1-17.2,31.9-28.7c6.5-8.5,11.3-17.8,13.9-28.2 c2.1-8.3,2.5-16.7,2.2-25.1C310.4,193.7,309.9,185.4,309.4,177.1z M219.3,187.3c-0.4-1.3-0.9-2.5-1.5-3.4c-0.6-1-1.4-1.9-2.3-2.5 s-1.9-0.9-3-0.9c-1.3,0-2.5,0.3-3.6,1c-1.1,0.7-2.1,1.6-2.9,2.9c-0.8,1.2-1.4,2.8-1.8,4.8c-0.4,1.9-0.7,4.1-0.7,6.5 c0,2.1,0.2,4,0.7,5.8c0.5,1.7,1.1,3.3,2,4.6c0.9,1.3,1.9,2.3,3.1,3.1s2.5,1.1,3.9,1.1c1.1,0,2.1-0.2,3-0.6 c0.6-0.2,1.1-0.6,1.6-0.9v2.5c-1.7,1.1-3.8,1.6-6.1,1.6c-1.7,0-3.3-0.4-4.9-1.2c-1.6-0.8-3-1.9-4.2-3.3c-1.2-1.4-2.1-3.2-2.9-5.3 s-1.1-4.4-1.1-7.1c0-2.6,0.3-5,1-7.1c0.7-2.1,1.7-4,2.9-5.5c1.2-1.5,2.7-2.7,4.3-3.5c1.7-0.8,3.4-1.2,5.3-1.2 c1.4,0,2.7,0.2,3.8,0.6c1.1,0.4,2.2,1,3.3,1.7c0,0,0,0,0,0l0.8-1.6c0,0,0,0,0,0h1.6c0,0,0,0,0,0l0.1,8.2c0,0,0,0,0,0 c-0.8,0-1.7,0-2.5,0C219.3,187.4,219.3,187.4,219.3,187.3z M240.5,222.9c-1.9,1.4-4.2,2.1-6.8,2.1c-1.7,0-3.3-0.4-4.9-1.2 c-1.6-0.8-3-1.9-4.2-3.3c-1.2-1.4-2.1-3.2-2.9-5.3s-1.1-4.4-1.1-7.1c0-2.6,0.3-5,1-7.1c0.7-2.1,1.7-4,2.9-5.5 c1.2-1.5,2.7-2.7,4.3-3.5c1.7-0.8,3.4-1.2,5.3-1.2c1.4,0,2.7,0.2,3.8,0.6c1.1,0.4,2.2,1,3.3,1.7c0,0,0,0,0,0l0.8-1.6c0,0,0,0,0,0 h1.6c0,0,0,0,0,0l0.1,7.6c-1.5,0.2-1.1,0.2-2.6,0.4c-0.4-1.3-0.9-2.5-1.5-3.4c-0.6-1-1.4-1.9-2.3-2.5s-1.9-0.9-3-0.9 c-1.3,0-2.5,0.3-3.6,1c-1.1,0.7-2.1,1.6-2.9,2.9c-0.8,1.2-1.4,2.8-1.8,4.8c-0.4,1.9-0.7,4.1-0.7,6.5c0,2.1,0.2,4,0.7,5.8 s1.1,3.3,2,4.6c0.9,1.3,1.9,2.3,3.1,3.1s2.5,1.1,3.9,1.1c1.1,0,2.1-0.2,3-0.6c0.9-0.4,1.7-0.9,2.4-1.6c0.7-0.7,1.3-1.4,1.8-2.3 c0.1-0.1,0.1-0.3,0.2-0.4v3.4C241.9,221.7,241.2,222.4,240.5,222.9z M259.3,236.7c-1.8,0.6-3.7,1-5.7,1h-11.9c0,0,0,0,0,0V236 c0,0,0,0,0,0c0.4,0,0.9,0,1.5-0.1c0.6-0.1,1-0.2,1.2-0.3c0.4-0.2,0.7-0.5,0.9-0.9c0.2-0.4,0.3-0.9,0.3-1.4v-23.7 c0-0.5-0.1-1-0.2-1.4c-0.2-0.4-0.5-0.7-0.9-1c-0.4-0.2-0.9-0.4-1.4-0.5c-0.5-0.1-0.9-0.2-1.2-0.2v-1.6c0,0,0,0,0,0h12.5 c1.7,0,3.4,0.3,5.1,0.9c1.7,0.6,3.1,1.4,4.4,2.5c1.7,1.4,3,3.2,4,5.4c1,2.2,1.4,4.8,1.4,7.8c0,2.8-0.5,5.2-1.4,7.3 c-0.9,2-2.1,3.7-3.6,5C262.8,235.1,261.1,236,259.3,236.7z M292.3,248.1C292.3,248.1,292.3,248.1,292.3,248.1l-11.9,0 c0,0,0,0,0,0v-1.6c0,0,0,0,0,0c1-0.1,1.9-0.2,2.6-0.5c0.7-0.2,1-0.5,1-0.9c0-0.1,0-0.3,0-0.5c0-0.2-0.1-0.4-0.1-0.5l-2.4-7.3 c0,0,0,0,0,0h-10c0,0,0,0,0,0c-0.4,1.1-0.7,2-0.9,2.8c-0.2,0.8-0.4,1.5-0.6,2.2c-0.2,0.7-0.3,1.2-0.4,1.6c-0.1,0.4-0.1,0.8-0.1,1 c0,0.6,0.4,1.1,1.3,1.4c0.8,0.3,1.8,0.5,2.9,0.6c0,0,0,0,0,0v1.6c0,0,0,0,0,0h-10.8c0,0,0,0,0,0v-1.6c0,0,0,0,0,0 c0.3,0,0.8-0.1,1.3-0.3c0.5-0.1,1-0.3,1.3-0.6c0.5-0.4,1-0.9,1.2-1.3c0.3-0.5,0.6-1.1,0.9-1.9c1.4-4.1,3-8.7,4.8-13.9 c1.7-5.1,3.3-9.7,4.6-13.7c0,0,0,0,0,0h1.6c0,0,0,0,0,0l9.5,28.3c0.2,0.6,0.4,1.1,0.7,1.5c0.3,0.4,0.6,0.7,1.1,1.1 c0.3,0.2,0.7,0.4,1.2,0.5c0.5,0.1,0.9,0.2,1.2,0.2c0,0,0,0,0,0V248.1z"></path> <path class="st3" d="M320.8,190.2c-0.2-3-0.3-7.6-0.6-12.2c-0.5-6.9-1.1-13.9-1.7-20.8c-0.1-1.5-0.5-2.8-2.1-3.2 c-2.1-0.5-4.8-0.2-6.8,0.1c-6.2,1-12.4,0.4-18.6-0.6c-14.1-2.3-26.5-8.4-37.8-16.8c-2.9-2.2-3.5-2-6.5-0.1 c-5.9,3.7-11.6,7.8-17.9,10.8c-12.1,5.8-24.8,8.7-38.4,6.7c-2.2-0.3-4.9-0.8-7.1-0.1c-1.3,0.4-1.7,1.8-1.9,3 c-0.1,0.7-0.2,1.5-0.3,2.2c-0.9,16.6-2.3,33.2-2.6,49.8c-0.4,23.3,8.2,43.4,23.6,60.7c6.4,7.1,13.7,13.2,21.7,18.5 c7.1,4.7,14.5,9.1,21.6,13.9c3.5,2.4,6.4,2.2,9.7,0.1c4.5-2.9,9.1-5.7,13.6-8.6c9.4-6,18.4-12.5,26.1-20.6 c14.6-15.3,23.8-33.4,25.8-54.6C321.5,209.6,320.8,200.7,320.8,190.2z M232.6,285.2c-0.2-0.2-0.5-0.3-0.7-0.5 c0.2,0.1,0.5,0.2,0.7,0.4C232.6,285.1,232.6,285.1,232.6,285.2z M241.9,291.1C241.9,291.1,241.9,291.1,241.9,291.1 C242,291.1,242,291.1,241.9,291.1C242,291.1,242,291.1,241.9,291.1z M312.6,216.5c-1,12.3-5.2,23.6-11.7,34 c-5.5,8.7-12.4,16.2-20.1,23c-6.7,5.9-14,11-21.7,15.6c-3,1.8-5.8,3.8-8.7,5.6c-0.8,0.5-1.1,0.5-1.9,0c-3.9-2.5-7.7-5-11.6-7.4 c-11.3-7-21.5-15.3-30.3-25.4c-8-9.2-14.2-19.5-17.7-31.2c-2.1-6.9-2.9-13.9-3.1-21.1c-0.2-8.7,0.2-17.4,0.8-26.2 c0.4-5.2,0.8-10.5,1.2-15.7c0.2-1.8,0.4-3.7,0.7-5.5c0.2-1.2,0.3-2.3,1.8-2.1c1.1,0.2,2.2,0.5,3.3,0.6c9.9,1,19.6-0.2,29-3.2 c8.7-2.7,16.5-7,24.1-12.1c0.4-0.3,0.8-0.5,1.2-0.8c1-0.7,2-0.7,3.1,0c1.9,1.3,3.9,2.6,5.9,3.8c7.9,4.9,16.3,8.6,25.4,10.7 c6.7,1.5,13.4,2.1,20.3,1.8c1.8-0.1,3.5-0.4,5.3-0.7c0.3,0,0.6-0.2,1-0.2c0.9,0,1.3,0.3,1.4,1.2c0.5,4.8,1.1,9.7,1.5,14.6 c0.5,7.3,0.9,14.7,1.3,22.1c0.1,1,0,2,0,3C313.2,206.1,313.1,211.3,312.6,216.5z"></path> <path class="st3" d="M436,187.8c-0.7-19.3-1.5-38.6-2.5-57.9c-0.6-12-1.7-23.9-2.5-35.8c-0.5-6.2-1-12.4-1.5-19.1 c0,0-1.8-19.8-1.8-19.9c-0.3-1.5-0.7-4.5-2.1-6.7c-1.4-2.2-3.8-2.3-6.1-1.6C408.8,50,398.1,52,387.1,53 c-12.8,1.1-25.6,0.9-38.3-1.4c-23-4.3-44.5-12.8-64.9-24.3c-10.1-5.7-19.8-12.2-27.9-20.6c-3.9-4.1-7.5-3.9-11.6,0.1 c-3.3,3.2-6.7,6.4-10.4,9.2c-18.3,13.7-38.8,23-60.4,30.1c-23.9,7.9-48.3,9.6-73.1,5.2c-6.4-1.1-12.7-2.6-18.9-4.4 c-2.6-0.8-5.5-0.5-7,1.9c-1.8,2.8-1.7,6.6-2,9.8c-0.1,0-1.4,15.7-2.2,24.8c-0.6,8-1.3,16.1-1.8,24.1c-0.8,12.1-1.6,24.1-2.3,36.2 c-1.2,19.4-2.2,38.8-1.9,58.3c0.2,14.9,1.4,29.8,4.6,44.4c10.6,48.4,33.8,89.8,69.7,124c17.5,16.7,37,30.7,57.3,43.8 c17.1,11.1,35.3,20.4,51.8,32.5c1.9,1.4,3.4,1.1,5.3-0.1c4.8-3.4,9.6-6.7,14.6-9.8c9.6-5.9,19.2-11.6,28.8-17.5 c21.1-13,41.4-26.9,59.8-43.5c35.1-31.5,59.2-69.9,72-115.3C434.9,236.6,436.9,212.4,436,187.8z M354.8,362.7 c-18,17.5-38.4,31.8-59.6,45c-14.6,9.1-29.3,18.1-44,27.1c-0.3,0.2-0.7,0.3-1.1,0.4c-18.3-11.4-36.8-22.6-55.1-34.1 c-11.7-7.4-22.8-15.6-33.5-24.3c-28.5-23.3-51.3-51.2-66.6-84.9c-12.1-26.6-19.2-54.3-19.9-83.5c-0.5-19.6,0.3-39.1,1.4-58.6 c0.7-12.8,1.5-25.6,2.4-38.4c1.2-17.1,2.5-34.1,3.8-51.2c0-0.5,0.2-0.9,0.4-1.7c2.8,0.6,5.5,1.3,8.2,1.8 c17.1,3.6,34.3,5,51.7,3.1c17.4-1.8,34-6.7,50.1-13.2c11.3-4.6,22.4-9.8,32.8-16.2c8.8-5.4,16.8-11.7,24.1-19.4 c0.3-0.2,0.5-0.1,1.5,1c11.2,11.6,24.6,20,39,27c17.9,8.7,36.4,15.5,56,19.1c14.8,2.7,29.6,3.2,44.5,1.3 c8.8-1.1,17.6-2.8,26.7-4.2c0.2,1.2,0.5,2.8,0.6,4.3c2.3,33.6,4.6,67.3,6.7,100.9c0.7,11.5,0.9,23,0.8,34.4 C425.5,263.3,401,317.8,354.8,362.7z"></path> <path class="st3" d="M415.8,178.5c0.4,13.6,0.2,27.1-1,40.7c-2.7,32.1-13.5,61.4-30.6,88.5c-14.3,22.7-32.4,42.2-52.4,60 c-17.4,15.5-36.5,28.6-56.4,40.7c-7.7,4.7-15.2,9.8-22.8,14.7c-2.1,1.4-2.9,1.4-5,0c-10.1-6.5-20.1-13.1-30.3-19.3 c-29.5-18.2-56.1-40-78.9-66.2c-20.9-24-36.9-50.8-46-81.4c-5.4-17.9-7.5-36.3-8-55c-0.6-22.8,0.6-45.5,2.2-68.1 c1-13.6,2-27.3,3.2-40.9c0.4-4.8,1.1-9.6,1.7-14.4c0.4-3.2,0.7-6,4.6-5.4c2.9,0.4,5.8,1.2,8.7,1.5c25.8,2.6,51-0.6,75.6-8.5 c22.6-7.2,43.1-18.3,62.7-31.5c1-0.7,2-1.4,3-2.1c2.7-1.9,5.3-1.9,8.1,0c5.1,3.4,10.2,6.8,15.4,10c20.6,12.7,42.5,22.5,66.2,28 c17.4,4,35,5.6,52.8,4.7c4.6-0.2,9.2-1.2,13.8-1.8c0.8-0.1,1.7-0.4,2.5-0.4c2.3-0.1,3.5,0.7,3.7,3.1c1.3,12.6,2.9,25.3,3.8,37.9 c1.4,19.1,2.3,38.3,3.4,57.4C416,173.4,415.8,175.9,415.8,178.5z M250.2,416.9c0.2-0.1,0.5-0.1,0.7-0.2 c11.3-7.1,22.6-14.1,33.8-21.2c31.9-20.3,60.1-44.8,83.2-74.9c16.9-22.1,29.4-46.4,36.1-73.5c5.4-21.5,6.5-43.5,5.8-65.5 c-0.7-21.6-2-43.2-3.3-64.8c-0.7-11.3-1.8-22.6-2.8-34c-0.1-1.2-0.4-2.3-0.6-3.6c-0.9,0.1-1.5,0.2-2.1,0.2 c-5.5,0.5-10.9,1.4-16.4,1.6c-21.2,0.6-41.9-2.2-62.2-8.3c-24.9-7.4-47.5-19.1-68.5-34.2c-1.3-0.9-2.6-1.7-3.8-2.6 c-45.8,33.5-96,50.3-153.1,43.6c-0.3,2.1-0.6,4.1-0.8,6.1c-0.8,10.2-1.8,20.5-2.4,30.7c-1.3,22.1-2.6,44.1-3.4,66.2 c-0.6,17.4,0.2,34.7,3.2,51.9c4.5,26.6,14.9,50.8,29.6,73.2c15.3,23.4,34.7,43.2,55.9,61.3C201.1,387.5,226.1,401.5,250.2,416.9z "></path> <path class="st3" d="M250.2,408.4c-0.9,3.2-2.5,2.3-3.5,1.6c-32.1-21.2-64.2-42-91.1-69.9c-2-2-3.9-4.1-5.8-6.2 c-23.9-26.4-43.7-58.6-50.7-93.9c-1.1-5.4-1.9-10.8-2.6-16.2c-0.1-0.8-0.2-1.6-0.2-2.4c-0.1-3.6,0.7-3.5,4-3.6 c8.3-0.1,16.6-0.2,24.9-0.2c13.7,0,27.4,0,41,0c0.9,0,1.6,0.1,2.6,1c0.7,0.6,1.1,1.6,1.1,2.5c1.6,25.1,14.6,47.3,32.9,64 c13.2,12,28.6,20.6,43.8,29.5c2.5,1.5,3.6,3.1,3.6,6.1c0,15.6,0,33.5-0.2,46.9C249.9,377,250.2,408.4,250.2,408.4z"></path> <path class="st3" d="M140.9,137.7c0.1-6.1,0.2-12.1,0.6-18.2c0.4-4.5-2.9-7.4-7.1-6.3c-1.3,0.3-3,0.5-4.1,0 c-2.3-1.1-3.9-0.3-5.2,1.2c-1.1,1.2-2.2,2.7-2.5,4.3c-1.9,8.9-2.4,15.9-4,24.8c-0.1,0.5-0.4,3.9,0.7,4.2c1.1,0.2,1.8-1.3,1.9-1.9 c0.4-1.4,0.4-3.3,0.7-4.7c0.8-4.1,1.6-7.9,2.7-11.9c0.4-1.5,0.6-4,1.2-3.7c2,0.9,1,3,0.8,4.5c-0.8,6.6-1.9,13.1-2.8,19.7 c-0.5,3.7-0.8,7.5-1,11.3c0,0.9,0.3,2,0.9,2.5c0.7,0.7,1.8,0.8,2.3,1.7c0.5,0.9,0.5,2,0.5,2.9c0.1,4,0.1,8.1,0.2,12.1 c0,1.7-0.6,4.3,1.4,4.4c1.1,0.1,1.9-1.2,2.1-2.1c0.2-1.1,0-2.2,0-3.2c0.1-1.7,0.1-3.3,0.2-5c0-0.9,0.1-10,0.4-10 c4.3-0.6,3.8,0,3.8,3.7c0,4.6,0,9.1,0.1,13.7c0,1.2,0.4,3.6,2.4,3.4c1.1-0.1,1-2.1,1.1-3.1c0.4-4.5,0.2-9,0.5-13.5 c0.1-1.6,0.4-3.3,1.8-4.2c1.4-0.9,2.2-1.6,2.1-3.4c-0.2-3.8-0.7-7.5-1.1-11.2C141.2,145.5,140.9,141.6,140.9,137.7z M132.5,136.4 c2.7,1.6,4.8,2.8,5.1,5.8C134.5,142.3,132.9,140.6,132.5,136.4z M133.3,124.8c2.8,0.4,3.4,0.9,5.2,4.3 C135.2,129,134.2,128.1,133.3,124.8z"></path> <path class="st3" d="M175.3,119.8c-0.3-4.9-4.3-8.8-9-9.4c-0.6-0.1-1.3,0.1-1.8,0.4c-2.7,1.3-5.3,1.1-7.9,0 c-0.8-0.3-1.9-0.6-2.6-0.3c-4.3,1.6-8.3,3.7-8.5,9c-0.4,8.4-0.6,16.9-0.7,25.3c0,0.9,0.1,2.5,1.1,2.7c1.6,0.3,3.2-2.5,3.2-4 c0-4.9,0.7-10,0.8-14.9c0-1.9,0.2-5.1,1.5-4.9c1.6,0.3,0.9,1.6,1,3.8c0.1,3.1-0.1,6.2,0.1,9.4c0.1,1,0.3,2.8,1.4,2.8 c3.9,0.1,7.7,0.5,11.6,0.5c2.3,0,3-1.5,3-3.7c-0.1-3.1,0-6.2,0-9.4c0-1.4,0.5-3.9,1.3-3.5c1.1,0.6,1.1,2.2,1.3,3.4 c0.4,2.2,0.6,4.4,0.7,6.6c0.1,3.5,0,7,0.1,10.5c0,1.2,1.2,3,2.6,3.2c2,0.3,1.7-3.2,1.7-4.9C175.9,134.8,175.7,127.3,175.3,119.8z "></path> <path class="st3" d="M203.6,128.2c-0.1-2.7-0.4-5.4-1-8.1c-0.8-3.8-5.7-7.9-9.3-7.5c-2.8,0.3-5.6,0.4-8.4,0.1 c-2.1-0.2-7.3-2.2-6.6,2.1c0.9,5.3,1.4,10.6,1.6,15.9c0.2,4.3,0.1,8.6,0,12.9c0,2,0.6,3.2,2.8,3.3c3,0.1,5.9,0.7,8.9,0.6 c3.5-0.1,4.3-1,4.3-4.5c0-4.3,0-8.6,0-12.9c0-2.1,0.1-3.4,1.7-5c0.7,0.5,1.2,1.2,1.4,2c0.5,1.7,0.7,3.6,0.8,5.4 c0.1,3.6,0,7.3,0.1,10.9c0,1,0.8,3.5,2,3.9c0.4,0.1,0.7,0.1,0.9-0.1c0.9-0.6,0.9-3,0.9-3.9C203.7,138.3,203.7,133.2,203.6,128.2z M187.5,132.4c-1.3,0-2.9-0.8-3.9-1.7c-0.3-0.3-2.3-2.8-2.4-2.7C184.1,127.6,186.8,129.4,187.5,132.4z M182.3,122.9 c1.1,0.8,2,1.4,3,2.1C184.3,124.3,183.4,123.6,182.3,122.9c-0.4-0.3-0.9-0.6-1.4-1C181.5,122.2,181.9,122.6,182.3,122.9z M181.1,134c3.1-0.6,6.5,1.7,8.3,6C185.5,138.6,183.1,136.8,181.1,134z"></path> <path class="st3" d="M167.3,142.6c-3.6,0-8-0.1-12.2-0.4c-2.2-0.1-2.8,0.2-2.8,2.6c0,12.1,0.1,24.2,0.2,36.3 c0,1.1,0.3,2.4,0.9,3.4c0.4,0.6,1.4,1.3,2.1,1.3c0.7-0.1,1.3-1,1.6-1.5c0.4-0.7,0.3-1.5,0.3-2.3c0-0.8,0-1.6,0-2.4 c0-1.5,0.1-2.9,0.1-4.4c0.2-5.4,0.3-10.9,0.4-16.3c0.1-2.2,0-4.4,0-6.6c0-0.9,0-1.9,0.4-2.7c0.4-0.7,1.2-1.4,1.9-1.6 c0.4-0.1,1.4,0.8,1.6,1.4c0.4,1.3,0.6,2.8,0.6,4.2c0.2,9.5,0.4,19,0.6,28.4c0,0.9,0,1.8,0.3,2.7c0.2,0.5,0.8,1.2,1.3,1.2 c0.7,0,1.5-0.3,2-0.8c0.4-0.5,0.6-1.4,0.7-2.2c0.3-3.5,0.7-7,0.8-10.5c0.1-9.1,0.1-18.2,0.1-27.3 C168.3,144.2,168.1,142.6,167.3,142.6z"></path> <path class="st3" d="M130.7,110.5c0,0,0.5,1,0.6,1.1c0.3,0.3,0.7,0.6,1.1,0.7c2.2,0.7,3.1-1.1,3-2.9c0-0.1,1.8,0,1.8,0 c0.6,0.1,1.2,0.3,1.7,0.5c0.3,0.1,0.6,0.2,0.9,0.2c0.3,0,0.3,0.1,0.3-0.2c0.1-0.5,0-1.3-0.1-1.8c-0.2-1.6-0.6-3.2-1-4.7 c-0.4-1.6-0.8-3.5-1.6-4.9c-1-1.7-2.5-2.6-4.5-2.6c-5.8-0.2-6.5,9-6.7,13.1c0,0.5-0.1,1-0.1,1.5 C126.3,110.4,130.3,110.4,130.7,110.5z"></path> <path class="st3" d="M157,104.3c0.3,0.6,0.6,1.2,0.6,1.9c0,0.6-0.4,1.6,0,2c0.2,0.2,0.4,0.3,0.6,0.4c1.7,0.8,2.8,0.6,4.5,0.3 c1.4-0.2,0.3-1.7,0.3-2.9c0.1-1.6,0.5-2,1.4-3.3c0.9-1.4,1.3-2.9,1.3-4.5c0-1.2-0.2-2.4-0.6-3.6c-0.4-1.3-1.6-2-2.8-2.5 c-2.5-0.9-5.2-0.2-6.5,2.3c-0.8,1.6-0.9,3.5-0.7,5.2C155.3,101.5,156.2,102.8,157,104.3z"></path> <path class="st3" d="M183,106.8c1,1.2,1.5,2,2,3.5c0.4,1.5,3.3,0.9,4.3,0.4c0.6-0.3,0.7-2,1-2.6c0.5-0.9,1.1-1.6,1.5-2.5 c0.5-1.2,1-3,1.1-4.3c0.1-3.7-3.1-5.9-6.2-6.1c-4.1-0.3-5.6,3.4-5.3,7C181.5,103.9,182.1,105.6,183,106.8z"></path> <path class="st3" d="M333.1,282.5c0,1-1,2.2-2.7,2.8c-4,1.5-6.8,4.5-9.4,7.9c-0.6,0.7-1.3,1.3-2.2,1.6c-0.5,0.1-1.8,0.3-2.3,0 c-0.7-0.5,0-1.9,0.2-2.6c0.8-2.2,2.2-4.2,3.9-5.8c1.7-1.6,3.7-2.9,6-3.6c1.1-0.4,2.2-0.5,3.3-0.6 C331.9,281.9,333.1,282.5,333.1,282.5z"></path> <path class="st3" d="M349.5,291.9c0-0.3,0.2-0.6,0.4-0.9c0.9-1.1,2.6-1.5,3.8-1.6c2.3-0.2,4.7,0.4,6.9,1.1c0.5,0.2,1.2,1.7,1,2.4 c-0.4,1.7-1.6,2.9-3.3,2.5c-2.6-0.5-5.2-1.3-7.8-2.1C349.8,293.1,349.5,292.5,349.5,291.9z"></path> <path class="st3" d="M311.3,340.4c-1.1-0.8-1.2-2.5-1-3.9c0.4-4.5,0.8-9,1.2-13.5c0.3-3.5,0.4-7.6-2.8-9.6 c-1.5-0.9-3.3-1.1-4.9-0.7c-2.5,0.6-4.4,2.1-6,3.9c-0.5,0.6-1,1.2-1.5,1.8c-0.3,0.3-0.8,1.4-1.2,1.5c-1.3,0.3-0.7-2.6-0.5-3.1 c2.2-5,5.7-10.2,10.1-13.5c4-3,9.3-3.6,13.9-5.6c0.6-0.3,1.3-0.6,1.9-1c3.4-2,6-5.2,9.4-7.3c1.9-1.2,4.2-2.1,5.4-4 c0.9-1.4,1.1-3.3,1.8-4.8c1.4-3.1,4.9-4.9,6.8-7.8c1.8-2.7,2.2-6.5,4.7-8.6c1.9-1.6,4.5-1.9,6.4-3.4c1.9-1.5,4.8-5,5.5-4.5 c1.3,0.9-5.2,4.5-5.1,7.6c0,1,9.1,8.3,14.6,13c0.4,0.4,0.9,0.7,1.5,0.7c0.5,0,1.3,0,2.1-0.5c2.1-1.6,4.9-5,5.3-4.5 c0.6,0.6-1.5,2.8-2.8,3.9c-4.3,3.9-2.1,9.6-8,11.6c-1.9,0.7-3.9,0.7-5.9,0.2c-3.9-1-9.9-2.7-13.1,0.7c-1.2,1.2-1.8,2.9-3.2,3.8 c-1.5,1-3.7,0.9-4.7,2.4c-0.6,0.9-0.5,2-1,3c-1.1,2-4.4,2.1-5.4,4.1c-1,2.1,1,4.5,0.6,6.9c-0.1,0.8-0.6,1.6-0.6,2.5 c-0.2,2.4,2.7,4,3.3,6.4c0.3,1.3,0,2.6-0.4,3.8c-1,3.5-2.9,10.8-3.8,10.3c-2.5-0.3-0.9-4-1.2-6.2c0-0.3-0.1-0.8-0.3-1 c-0.9-0.8-1.3,0.7-1.6,1.8c-0.7,2.4-1.4,4.7-2,7.1c-0.2,0.7-0.4,1.5-1,2.1c-0.5,0.6-1.5,0.8-2.1,0.3c-0.3-0.3-0.5-0.7-0.6-1.1 c-0.7-2.9,1.5-6.5-0.5-8.8c-2.3,2.6-2.1,6.6-3.3,9.9c-0.3,0.9-0.8,1.7-1.6,2.2c-0.8,0.5-1.9,0.5-2.5-0.3 c-0.5-0.6-0.4-1.5-0.2-2.3l1.2-6.2c0.2-0.8-0.4-1.7-1.2-1.8c-0.8-0.1-0.8,0.6-1,1.2c-1.4,3.8-1.9,10.8-3.9,11.3 C311.8,340.4,311.3,340.4,311.3,340.4z M371.7,281.8c0-0.9-0.9-1.3-2.1-2.2c-4.6-3.7-9.3-7.2-13.8-12c-2.9-3-3.5-4.7-5.4-3 c-0.9,0.8-1.9,1.6-2.6,2.5c-1.8,2.3-1.8,3.3,0.3,5.3c4.4,4.2,8.4,8,13.1,11.8c1.5,1.2,3.8,3.5,6,2.7 C368.8,286.4,371.8,283.9,371.7,281.8z"></path> <path class="st3" d="M290.9,360.3c0.1-0.6,1.1-1.9,1.4-2.2c2-1.7,3.9-3.4,5.9-5.1c-6.1-7.1-11.3-12.7-17.3-19.7 c-0.5-0.6-3.9,2.4-4.3,2.7c-1.3,1.1-3.8,2.9-4.3,2.1c-0.4-0.6,1.7-1.6,2.2-2.1c1-0.9,2-1.8,3-2.7c2-1.8,2.7-4.6,4.4-6.6 c1.3-1.4,4.7-4.1,6.8-3.2c4.1,1.8,6.4-0.7,9.7-3c1.5-1,2.7-2.5,4.1-3.7c1-0.9,2.2-1.7,3.6-1c1.4,0.7,2.2,2,2.1,3.6 c-0.4,4.9-0.8,9.7-1.1,14.6c-0.2,4.2-0.5,8.4,1.4,12.4c0.3,0.6,0.2,1.8-0.1,2.4c-1.7,2.7-3.9,4.9-7.3,5.5c-1.2,0.2-2.4,1-3.5,1.7 c-1.2,0.9-2.4,1.8-3.6,2.7c-0.6,0.5-1.2,0.9-1.8,1.4c-0.3,0.2-0.9,0.8-1.2,0.4C290.8,360.5,290.9,360.4,290.9,360.3z M281.5,329.7c-0.1,0.8,0.4,1.6,1,2.4c3.5,4.5,6.8,8.8,10.5,13.2c1.9,2.2,3.9,4,6.1,6c2.2,2,3.1,1.9,5.4,0.1 c0.6-0.4,1.1-0.9,1.6-1.5c1.7-2,1.8-2.6,0.1-4.7c-4.7-5.7-9.1-11-14-16.6c-4.1-4.8-5.4-4.7-9.9-0.3 C281.8,328.7,281.5,329.2,281.5,329.7z"></path> <path class="st3" d="M354.2,305.4c0,0.1,0,0.1,0,0.2c-0.1,0.9-1.3,2.2-2,2.7c-1,0.7-2.2,1-3.4,0.8c-3.4-0.6-6.8-1.5-10.1-2.6 c-0.7-0.2-1.6-1.5-1.6-2.3c0.1-0.6,1.3-1.5,2.2-1.6c2.3-0.5,5.1,0.1,7.3,0.5C347.5,303.2,353.7,304.3,354.2,305.4z"></path> <path class="st3" d="M358.7,298.9c0.6,1.5-1.6,3.2-2.8,3.3c-4.5,0.4-8.8-0.5-12.8-2.8c-0.6-0.3-1.3-1.5-1.1-1.9 c0.2-0.8,1.1-1.6,1.8-1.8c2.2-0.8,5.3,0.1,7.5,0.5c1.5,0.3,3,0.7,4.4,1.2C356.6,297.7,358.2,297.8,358.7,298.9 C358.7,298.8,358.7,298.8,358.7,298.9z"></path> <path class="st3" d="M348,313.1c0,0.1,0,0.2,0,0.2c0.1,1.8-2.5,2.8-3.8,2.8c-2.5,0.1-4.8-0.8-6.6-2.7c-0.5-0.6-0.8-1.9-0.6-2.5 c0.2-0.5,1.6-1,2.3-0.8C341,310.7,347.4,310.8,348,313.1z"></path> <path class="st3" d="M404.7,149.5c-0.8-14-1.9-28-2.8-42c-0.4-7-0.9-13.9-1.7-20.8c-0.4-3.3-0.7-3.3-4-3.2 c-7.7,0.3-15.4,1-23,0.8c-9.6-0.3-19.3-0.7-28.8-2c-19-2.5-37.9-10.3-55.2-18.3c-6.2-2.9-12.2-6.1-18.1-9.6 c-6.3-3.7-12.6-7.4-18.6-11.7c-0.6-0.4-1.6-1.2-2.3-0.4c0,0,0,79.2,0,79.2c0,2.2,3.1,4.4,4.6,5.7c2.3,1.9,4.7,3.7,7.2,5.3 c4.9,3.2,10.3,5.9,15.8,7.9c2.6,0.9,5.2,1.7,7.8,2.3c7.5,1.8,15.1,2.9,22.8,2.9c4.2,0,8.3,0,12.5,0.1c3.6,0.1,4.6,0.9,5.1,4.4 c1.1,8.3,2.3,16.7,2.9,25.1c0.2,3.4,0.4,6.7,0.6,10.1c0.2,3.7,0.3,7.5,0.5,11.2c0.1,3.3,0.2,6.7,0.3,10c0,2.2,0.1,4.4,0.1,6.6 c0,1.4-0.1,3.3,0.7,4.5c0.5,0.8,1.4,0.9,2.2,1c0.6,0.1,1.3,0.1,1.9,0.1c17.2,0,34.3,0.1,51.5,0c5.4,0,10.8-0.3,16.6-0.6 c1,0,1.9-0.8,1.9-1.9C406.7,194,406,171.7,404.7,149.5z"></path> </g> </g> <g> <g> <path class="st3" d="M261.1,210.4c-0.9-1.3-2.1-2.3-3.4-3s-2.9-1.1-4.5-1.1c-0.6,0-1.2,0-1.9,0c-0.7,0-1.2,0-1.5,0.1c0,0,0,0,0,0 v25.2c0,1.4,0.4,2.4,1.1,2.9c0.7,0.5,1.8,0.8,3.3,0.8c1.7,0,3.2-0.3,4.5-1c1.3-0.7,2.3-1.7,3.1-2.9c0.8-1.3,1.4-2.8,1.8-4.5 s0.6-3.7,0.6-5.9c0-2.2-0.3-4.2-0.8-6C262.8,213.3,262.1,211.8,261.1,210.4z"></path> <polygon class="st3" points="276.2,221.6 272,234.3 272,234.3 280.6,234.3 280.6,234.3 276.3,221.6 "></polygon> <path class="st5" d="M489.3,306.9c-8.4,3.4-16.7,6.8-24.7,10.2c1.8-5.4,4.4-11.2,5.4-17.2c0.8-4.6,2.9-6.1,6.9-7.3 c15.7-4.7,20.6-14.5,20.5-28.5c0-1-0.5-2.3-1.3-3c-0.4-0.3-1.9,0.3-2.7,0.8c-5.9,3.9-11.7,7.8-17.6,11.8c0.1-2.5,0.1-4.8,0.4-7.1 c0.7-4.8,0.7-9.5,4.4-13.6c3.2-3.6,4.5-8.5,2.5-13.3c-1.7-4.1-4-8-6.3-11.7c-1.3-2-2.9-1.7-3.7,0.8c-1.2,3.3-2.5,6.6-3.7,9.9 c-1.7,4.6-2.4,9.3-0.4,14c1,2.5,3,5,2.8,7.4c-0.5,5.3-2,10.5-3.1,15.7c-1.7-6.4-8.7-12.8-15-14.7c-4.5-1.4-1.4,12.7-1,14.9 c1.1,5.7,5,9.5,9.8,12.4c1.6,1,2.5,1.9,1.8,3.9c-1.9,5.2-3.2,11-5.7,16c-4.8-2.7-8.1-10.9-12.4-15c-1.9,1.3-2.7,4-2.9,6.4 c-0.9,9.7-0.5,19.1,8.5,25.5c-2.6,5-4.9,9.7-7.1,14c-3.2-5.5-6.3-10.8-9.5-16.1c-0.3-0.5-2.4-0.5-2.4-0.3 c-2,5.3-5.2,10.7-5.5,16.1c-0.3,5.1,2.5,10.3,3.9,15.5c0.4,1.6,1.6,3.9,1,4.9c-3.4,5.4-7.2,10.5-10.9,15.7 c-0.3-0.1-0.6-0.2-0.9-0.4c1.3-7.2-2.3-13.3-4.4-19.7c-0.3-0.8-1.3-1.9-2.1-1.9c-0.6,0-1.4,1.1-2,1.9c-0.6,0.8-0.9,2-1.6,2.7 c-6.7,6.7-6,14.4-3.9,22.7c0.9,3.4,1.3,8.3-0.5,10.8c-3.5,4.9-8.7,8.7-13,12.7c2.9-2.9-0.6-16.6-1-20.1c-0.1-1.1-0.3-2.3-1.1-3 c-2.7-2.2-8.3,7.1-9.2,9c-1.9,4.4-2.1,9.3-1.2,14.1c1.9,9.8-3,17.4-12.9,19.8c3.4-12,1.2-11.1,0.5-22.9c0-0.6-0.5-1.5-0.9-1.6 c-0.5-0.1-1.3,0.3-1.8,0.8c-1.6,1.4-3.1,3-4.8,4.2c-3.4,2.5-5.7,5.6-6.5,9.7c-0.7,3.8-1.6,7.6-2.2,11.4 c-1.8,11.7-6.1,13.3-18.5,18.6c0.7-1.4,1.5-2.6,2-3.8c2.4-6.2,1.8-12.8,1.4-19.2c-0.1-2.3-1.6-2.2-3.3-1.1 c-9.5,6.3-15.3,14.6-15.8,26.4c-0.3,7.8-5.4,12.1-14.3,12.8c5.1-6.1,4.3-12.7,3-19.4c-0.6-3-1.7-2.7-3.5-1.3 c-2.2,1.7-4.4,3.5-6.6,5.3c-7,5.8-12.5,12.2-13.5,21.9c-0.3,3.2-3,7.4-5.8,9c-7.4,4.2-15.4,7.3-23.3,10.6 c-1.6,0.6-3.9,0.6-5.4-0.1c-6.7-2.8-13.1-6.5-19.9-8.9c-6.4-2.3-8.9-6.6-9.6-12.8c-0.3-2.4-1.1-4.8-2.1-7 c-3.7-8.4-11.7-12.7-18.2-18.4c-0.4-0.3-2.5,0.4-2.5,0.9c-1.1,6.4-2.7,12.9,1.7,18.8c0.3,0.4,0.4,0.9,0.6,1.6 c-8.9-1.4-13.5-5.2-13.8-12.8c-0.5-11.8-6-20.3-15.7-26.4c-0.7-0.4-1.7-0.7-2.5-0.4c-0.5,0.1-0.8,1.3-0.9,2 c-0.5,7.7-1.1,15.5,3.2,22.6c-3.6-1.6-7.1-3.4-10.3-5.4c-1.6-1-3.1-2.4-4.4-3.9c-3-3.3-3.2-7.4-3.6-11.5 c-0.9-10.6-5.6-18.9-15.6-24.4c-1.4,8.4-3.4,16.6-0.2,25.2c-2.8-1.6-5.1-3.4-7.6-4.9c-5.9-3.5-6.3-8.8-5.4-14.8 c1.3-8.3,0.9-16.1-6.7-21.6c-1.4-1-2.7-2.1-4.2-2.9c-1.5,6.4-7.9,18-1.5,23.6c-2.8-2.4-5.7-5.3-9-7.7c-6.1-4.6-6-10.5-4.1-17.1 c2.2-7.5,2.1-14.7-3.9-20.7c-0.7-0.7-1.1-1.8-1.8-2.6c-0.7-0.9-1.6-1.7-2.5-2.5c-0.7,0.9-1.6,1.6-2,2.6 c-2.4,6.2-5.4,12.2-4.8,19.3c-3.6-4.2-6.6-8.6-9.9-12.8c-2-2.6-1.8-4.8-0.6-7.8c1.9-4.4,3.4-9,4.2-13.7 c1.1-6.6-3.4-11.8-5.7-17.5c-0.1-0.2-2.3,0-2.7,0.6c-3.2,5.1-6.2,10.3-9.3,15.6c-1.7-3.4-3.4-7-5.3-10.5c-1.3-2.3-1.3-3.9,0.8-6 c3.2-3.1,5.9-6.9,6-11.6c0.1-3.5,0.1-7.1,0-10.6c-0.6-16-11.9,3.9-15.4,8.7c-1.9-5.6-4-11.3-5.7-17.1c-0.3-0.9,0.8-2.8,1.8-3.5 c4.6-3.1,8.6-6.8,9.7-12.5c0.8-4.3,1.1-8.8,1.4-13.2c0.1-0.7-1-1.6-1.4-2.2c-6.7,3.9-13.8,6.8-16,15.2c-0.9-4.5-2-9-2.8-13.5 c-0.2-1.4,0.2-3.1,0.7-4.5c2.1-5.3,4.1-10.5,2.1-16.3c-1-2.9-1.9-5.8-3.1-8.6c-0.9-2.1-2-4-3.1-6c-1.5,1.7-3.3,3.3-4.6,5.2 c-6.4,9.7-6.1,15.3,0.9,24.4c0.8,1,1.3,2.5,1.4,3.8c0.5,4.4,0.8,8.8,1.2,13.5c-6-4-12-8-17.9-12c-2.4-1.6-3.8-1-3.8,1.8 c0,3.5,0.2,7.1,0.9,10.5c0.5,2.3,1.6,4.6,2.9,6.7c4.5,7,11.2,10.9,19.2,12.6c2.6,0.6,3.4,2.1,3.9,4.6c0.7,3.8,1.9,7.4,3.1,11.1 c0.9,2.9,2.1,5.7,3.3,8.8c-2.8-1.6-5-3.2-7.4-4.2c-5.8-2.4-11.8-4.6-17.7-6.8c-0.8-0.3-2.4-0.4-2.8,0.1c-0.6,0.7-0.8,2.1-0.5,3.1 c0.5,2.2,1.3,4.3,2.2,6.3c3.1,6.7,7.6,11.7,15.4,12.5c3,0.3,6.1,0,9.2,0.1c4,0.1,7.1,1.6,9.1,5.5c2.2,4.3,4.9,8.3,7.4,12.5 c0.5,0.8,0.9,1.7,1.4,2.6c-2.5-1.2-4.6-2.7-7-3.2c-6.5-1.4-13.2-2.3-19.8-3.4c-0.7-0.1-1.8,0.3-2.3,0.9c-0.3,0.3-0.2,1.5,0.1,2 c5.9,9.8,13.8,16.6,26.1,16.4c12.1-0.1,19.8,5.3,24.5,17.3c-1-0.4-1.9-0.6-2.7-1c-4.4-2.6-9.1-3.4-14.2-3.2 c-4.3,0.1-8.7-0.5-13-0.7c-0.8-0.1-2.4-0.2-2.4,0c-0.3,1.1-0.6,2.6-0.1,3.3c3,3.7,5.7,8.1,9.5,10.6c7.7,5.2,16.4,5.1,25.3,2.8 c2.6-0.7,6.2-1.1,8.1,0.1c3.7,2.5,6.4,6.3,9.8,9.8c-9.2,1.5-17.9,3-26.8,4.4c0,0.4-0.2,1.2,0.1,1.6c4.7,6,9.7,11.7,18,12.5 c6.8,0.7,13.6,1,20-2.7c1.3-0.8,3.9-1.1,4.9-0.4c4.8,3.4,9.3,7.3,14.3,11.2c-4.6,0.5-8.7,0.7-12.6,1.5c-5.6,1.2-11,3-16.5,4.6 c-0.8,0.2-1.9,0.8-2,1.3c-0.1,0.7,0.4,1.9,1,2.3c11.2,7.7,23.6,10.8,36.3,5.4c7.2-3.1,12.8-3.4,19.1,1.4c3.4,2.6,7.3,4.4,11,6.5 c0,0.5,0,0.9,0,1.4c-8,2.2-16,4.3-24,6.6c-0.6,0.2-1.6,0.9-1.5,1.1c0.2,0.8,0.7,1.6,1.3,2.1c10.9,9.1,22.8,9.4,34.7,3 c7.9-4.3,15.3-4.5,23-0.4c3,1.6,6,3.3,8.9,5c-0.1,0.4-0.2,0.8-0.3,1.2c-6.5-2.2-11.4,1-16.5,4.2c-5.6,3.5-11.2,7.5-18.2,8.1 c-1,0.1-1.9,1.3-2.9,2c0.1,0.4,0.2,0.8,0.4,1.2c4.1,1,8.2,1.9,12.2,3c13.1,3.7,25.2,2.7,35.8-6.8c2.4-2.1,5.3-2.6,8.4-0.7 c2.7,1.7,5.7,2.8,8.5,4.4c2.9,1.6,5.7,3.5,8.3,5.2c-1-0.6-25.7,20.7-27.3,23.4c-1.8,3.2,5.1,5,7.1,5c3.4,0,6.8-1.4,9.3-3.7 c6.7-6,14.1-11.3,21.4-17c8.1,6.4,15.9,12.5,23.6,18.7c1.9,1.6,12.8,1.5,13.8-1.1c0.9-2.3-3.4-5.3-4.9-6.7c-3-2.9-7.4-6-10.5-8.8 c-1.4-1.2-9.6-8-12-10.1c4.6-2.6,9.4-4.8,13.6-7.7c5.7-3.9,10.3-2.7,15.5,1.3c3.8,2.9,8.6,5.4,13.3,6.1 c9.7,1.5,22.2-0.8,30.8-5.5c-0.3-1-1.2-2.2-2.4-2.3c-6.9-0.6-12.4-4.5-17.9-7.9c-5.2-3.2-10.1-6.6-16.8-4.7 c4.9-5.5,11.5-7.7,18-9c3.7-0.7,8.4,1.1,11.9,3c12,6.4,26,6.6,35.8-2.1c0.8-0.7,1.3-1.7,1.9-2.5c-1-0.4-2-1.1-3.1-1.2 c-8.1-0.7-15.1-4.2-22.6-7.8c5.6-3.2,11-6,16.1-9.4c3.1-2.1,5.9-1.8,8.9-0.5c1.1,0.4,2.1,1,3.2,1.5c13.6,5.8,26.2,3.1,38.1-4.7 c0.7-0.5,1.2-1.6,1.3-2.5c0-0.4-1.3-1-2.1-1.2c-4.6-1.2-9.2-2.4-13.9-3.5c-3.4-0.8-6.8-1.5-10.3-2.1c-1.4-0.2-2.9,0-5.5,0 c4.3-3.5,8-6,11.1-9.1c3.5-3.6,6.7-3,11.1-1.4c14.1,5.2,26.5,2.1,35.1-9.9c0.5-0.7,0.5-1.8,0.7-2.4c-9.1-1.5-17.7-2.9-26.3-4.4 c-0.3-0.4-0.5-0.7-0.8-1.1c2.5-2.1,5.4-3.9,7.3-6.5c2.9-3.7,6.6-3.7,10.1-2.8c5.6,1.5,11.2,2.2,17,1.2 c8.9-1.5,14.8-6.8,18.7-14.5c1.2-2.4,0-3.5-2.6-3.2c-2.8,0.4-5.6,0.9-8.4,0.8c-7.3-0.3-14.4,0.1-20.8,4c-0.2,0.1-0.7,0-1.3,0 c3.4-4.6,6.7-9,10-13.4c0.3-0.3,0.7-0.6,1.1-0.7c4.1-1,8.2-2.8,12.2-2.8c12.7,0.3,21.1-6,27.4-16.2c0.4-0.7,0.6-2.2,0.1-2.6 c-0.5-0.6-1.8-0.7-2.7-0.6c-2.7,0.4-5.3,1-7.9,1.7c-6,1.5-12.8-0.1-18,4.9c2.8-5.3,5.9-10.2,8.6-15.4c1.9-3.7,4.8-4.9,8.5-5.2 c1.9-0.2,3.8-0.1,5.7,0c8.3,0.4,14.4-3,18.2-10.3c1.5-2.9,2.6-6.1,3.6-9.2c0.2-0.7-0.3-2.1-0.9-2.7 C491.4,306.5,490.1,306.6,489.3,306.9z M487.9,276c-1,2.6-3.3,4.4-5.4,6.1c-2.2,1.6-4.5,3-7.2,3.8 C478.9,281.8,483.5,279.1,487.9,276z M475.7,238.9c2.4,4.7,1,10.7-1.7,15C474.1,248.7,475.2,244,475.7,238.9z M19.1,282.1 c-2.1-1.7-4.4-3.5-5.4-6.1c4.4,3.1,9,5.7,12.6,9.9C23.7,285.1,21.3,283.7,19.1,282.1z M26,238.9c0.4,5.1,1.6,9.8,1.7,15 C25,249.6,23.6,243.6,26,238.9z M44,269.5c0.4,5.2-2.8,10.6-7.5,12.9C39.3,278.1,41.6,274.1,44,269.5z M20.9,317.5 c2.4,2.1,5.3,2.7,8.2,3.7c2.6,0.8,6.3,1.8,8.9,2.8C32.6,324.7,23.1,323.1,20.9,317.5z M48.1,317.5c1.8-4.5,4.5-8.6,6.5-12.9 C55.3,309.6,52.1,314.7,48.1,317.5z M37.2,350.9c1.2,1.2,2.9,1.5,4.5,1.9c4.9,1.2,9.8,2.1,14.6,3.9 C51.5,357.3,39.3,355.8,37.2,350.9z M67.8,343.1c-0.3,2.2-0.9,4.4-2.3,6.1c-0.2-3.2,0.3-6.3,0.6-9.4c0.1-1,0.2-2.1,0.4-3.2 C67.8,338.5,68,340.9,67.8,343.1z M58.3,383.2c5.8,2,11.7,1.1,17.7,1.7C70.8,387.2,62.5,387.8,58.3,383.2z M87.3,379.2 c0.5-4.8,1.3-8.9,1.4-13.6C91.4,369.6,90.4,375.6,87.3,379.2z M86.9,410.5c4.9,0.4,9.4,0.6,14.3-1 C97.9,413.7,91,413.7,86.9,410.5z M114.2,405.7c-1.2-5.2-0.8-10.4-0.3-15.7C116.1,394.8,115.7,400.8,114.2,405.7z M113.1,438.1 c6.7-0.4,13.3-1.9,19.9-2.8C127.3,438.8,119.6,440.6,113.1,438.1z M141.5,426.4c-0.7-4.9-1-9.3-2.6-14 C143,415.6,143.6,421.9,141.5,426.4z M153,461.9c6.6-0.5,12.2-3.7,18.4-5.9C166.9,460.5,159.3,464.3,153,461.9z M177.5,445.5 c-1.6-5.4-3.4-10.9-6.1-15.8C176.4,433,178.7,439.8,177.5,445.5z M189.5,483.1c1.7-0.1,3.4-0.3,4.9-0.7c4.6-1.2,9.3-3.8,13.4-6.2 C203.9,481.7,196.1,485.7,189.5,483.1z M202,450.7c5,0.8,8.3,7.9,8.7,12.5C207.4,459.2,205.7,454.3,202,450.7z M307.3,482.4 c1.6,0.4,3.2,0.6,4.9,0.7c-6.7,2.6-14.5-1.4-18.4-6.9C298,478.5,302.6,481.2,307.3,482.4z M291,463.2c0.4-4.6,3.7-11.7,8.7-12.5 C296,454.3,294.3,459.2,291,463.2z M324.2,445.5c-1.2-5.8,1.1-12.6,6.1-15.8C327.6,434.7,325.8,440.1,324.2,445.5z M348.7,461.9 c-6.3,2.4-13.9-1.4-18.4-5.9C336.6,458.2,342.1,461.4,348.7,461.9z M360.2,426.4c-2.1-4.5-1.5-10.8,2.6-14 C361.2,417.1,360.9,421.5,360.2,426.4z M388.5,438.1c-6.5,2.4-14.1,0.7-19.9-2.8C375.2,436.2,381.9,437.8,388.5,438.1z M387.5,405.7c-1.6-4.9-1.9-10.9,0.3-15.7C388.3,395.3,388.7,400.5,387.5,405.7z M414.8,410.5c-4,3.2-11,3.2-14.3-1 C405.3,411.1,409.8,410.8,414.8,410.5z M413.1,365.5c0.1,4.7,0.9,8.8,1.4,13.6C411.3,375.6,410.3,369.6,413.1,365.5z M443.3,383.2c-4.2,4.5-12.4,4-17.7,1.7C431.6,384.4,437.6,385.2,443.3,383.2z M436.2,349.2c-2-2.7-2.7-6.2-2.2-9.5 c0.2-1.1,0.5-2.2,1.2-3.1c0.2,1.1,0.3,2.2,0.4,3.2C435.9,342.9,436.4,346,436.2,349.2z M460,352.8c1.6-0.5,3.3-0.7,4.5-1.9 c-2,4.9-14.3,6.4-19.1,5.8C450.2,354.9,455.1,354.1,460,352.8z M447.1,304.6c2,4.3,4.6,8.4,6.5,12.9 C449.5,314.7,446.4,309.6,447.1,304.6z M457.6,269.5c2.4,4.5,4.7,8.5,7.5,12.9C460.4,280.2,457.3,274.8,457.6,269.5z M463.8,324 c2.6-1,6.2-2,8.9-2.8c2.9-0.9,5.8-1.6,8.2-3.7C478.6,323.1,469.1,324.7,463.8,324z"></path> <path class="st3" d="M309.4,177.1c-0.3-4.4-0.7-8.7-1.1-13c0-0.4-0.1-0.9-0.2-1.4c-0.4,0-0.6,0.1-0.8,0.1 c-2.1,0.2-4.2,0.5-6.3,0.6c-8.1,0.2-16.1-0.9-23.9-3.2c-9.5-2.8-18.2-7.3-26.3-13.1c-0.5-0.3-1-0.7-1.5-1 c-17.6,12.8-36.8,19.3-58.7,16.7c-0.1,0.8-0.2,1.6-0.3,2.4c-0.3,3.9-0.7,7.8-0.9,11.8c-0.5,8.5-1,16.9-1.3,25.4 c-0.2,6.7,0.1,13.3,1.2,19.9c1.7,10.2,5.7,19.5,11.4,28.1c5.9,9,13.3,16.6,21.4,23.5c8.4,7.2,18,12.5,27.2,18.4 c0.1,0,0.2,0,0.3-0.1c4.3-2.7,8.7-5.4,13-8.2c12.3-7.8,23.1-17.2,31.9-28.7c6.5-8.5,11.3-17.8,13.9-28.2 c2.1-8.3,2.5-16.7,2.2-25.1C310.4,193.7,309.9,185.4,309.4,177.1z M219.3,187.3c-0.4-1.3-0.9-2.5-1.5-3.4c-0.6-1-1.4-1.9-2.3-2.5 s-1.9-0.9-3-0.9c-1.3,0-2.5,0.3-3.6,1c-1.1,0.7-2.1,1.6-2.9,2.9c-0.8,1.2-1.4,2.8-1.8,4.8c-0.4,1.9-0.7,4.1-0.7,6.5 c0,2.1,0.2,4,0.7,5.8c0.5,1.7,1.1,3.3,2,4.6c0.9,1.3,1.9,2.3,3.1,3.1s2.5,1.1,3.9,1.1c1.1,0,2.1-0.2,3-0.6 c0.6-0.2,1.1-0.6,1.6-0.9v2.5c-1.7,1.1-3.8,1.6-6.1,1.6c-1.7,0-3.3-0.4-4.9-1.2c-1.6-0.8-3-1.9-4.2-3.3c-1.2-1.4-2.1-3.2-2.9-5.3 s-1.1-4.4-1.1-7.1c0-2.6,0.3-5,1-7.1c0.7-2.1,1.7-4,2.9-5.5c1.2-1.5,2.7-2.7,4.3-3.5c1.7-0.8,3.4-1.2,5.3-1.2 c1.4,0,2.7,0.2,3.8,0.6c1.1,0.4,2.2,1,3.3,1.7c0,0,0,0,0,0l0.8-1.6c0,0,0,0,0,0h1.6c0,0,0,0,0,0l0.1,8.2c0,0,0,0,0,0 c-0.8,0-1.7,0-2.5,0C219.3,187.4,219.3,187.4,219.3,187.3z M240.5,222.9c-1.9,1.4-4.2,2.1-6.8,2.1c-1.7,0-3.3-0.4-4.9-1.2 c-1.6-0.8-3-1.9-4.2-3.3c-1.2-1.4-2.1-3.2-2.9-5.3s-1.1-4.4-1.1-7.1c0-2.6,0.3-5,1-7.1c0.7-2.1,1.7-4,2.9-5.5 c1.2-1.5,2.7-2.7,4.3-3.5c1.7-0.8,3.4-1.2,5.3-1.2c1.4,0,2.7,0.2,3.8,0.6c1.1,0.4,2.2,1,3.3,1.7c0,0,0,0,0,0l0.8-1.6c0,0,0,0,0,0 h1.6c0,0,0,0,0,0l0.1,7.6c-1.5,0.2-1.1,0.2-2.6,0.4c-0.4-1.3-0.9-2.5-1.5-3.4c-0.6-1-1.4-1.9-2.3-2.5s-1.9-0.9-3-0.9 c-1.3,0-2.5,0.3-3.6,1c-1.1,0.7-2.1,1.6-2.9,2.9c-0.8,1.2-1.4,2.8-1.8,4.8c-0.4,1.9-0.7,4.1-0.7,6.5c0,2.1,0.2,4,0.7,5.8 s1.1,3.3,2,4.6c0.9,1.3,1.9,2.3,3.1,3.1s2.5,1.1,3.9,1.1c1.1,0,2.1-0.2,3-0.6c0.9-0.4,1.7-0.9,2.4-1.6c0.7-0.7,1.3-1.4,1.8-2.3 c0.1-0.1,0.1-0.3,0.2-0.4v3.4C241.9,221.7,241.2,222.4,240.5,222.9z M259.3,236.7c-1.8,0.6-3.7,1-5.7,1h-11.9c0,0,0,0,0,0V236 c0,0,0,0,0,0c0.4,0,0.9,0,1.5-0.1c0.6-0.1,1-0.2,1.2-0.3c0.4-0.2,0.7-0.5,0.9-0.9c0.2-0.4,0.3-0.9,0.3-1.4v-23.7 c0-0.5-0.1-1-0.2-1.4c-0.2-0.4-0.5-0.7-0.9-1c-0.4-0.2-0.9-0.4-1.4-0.5c-0.5-0.1-0.9-0.2-1.2-0.2v-1.6c0,0,0,0,0,0h12.5 c1.7,0,3.4,0.3,5.1,0.9c1.7,0.6,3.1,1.4,4.4,2.5c1.7,1.4,3,3.2,4,5.4c1,2.2,1.4,4.8,1.4,7.8c0,2.8-0.5,5.2-1.4,7.3 c-0.9,2-2.1,3.7-3.6,5C262.8,235.1,261.1,236,259.3,236.7z M292.3,248.1C292.3,248.1,292.3,248.1,292.3,248.1l-11.9,0 c0,0,0,0,0,0v-1.6c0,0,0,0,0,0c1-0.1,1.9-0.2,2.6-0.5c0.7-0.2,1-0.5,1-0.9c0-0.1,0-0.3,0-0.5c0-0.2-0.1-0.4-0.1-0.5l-2.4-7.3 c0,0,0,0,0,0h-10c0,0,0,0,0,0c-0.4,1.1-0.7,2-0.9,2.8c-0.2,0.8-0.4,1.5-0.6,2.2c-0.2,0.7-0.3,1.2-0.4,1.6c-0.1,0.4-0.1,0.8-0.1,1 c0,0.6,0.4,1.1,1.3,1.4c0.8,0.3,1.8,0.5,2.9,0.6c0,0,0,0,0,0v1.6c0,0,0,0,0,0h-10.8c0,0,0,0,0,0v-1.6c0,0,0,0,0,0 c0.3,0,0.8-0.1,1.3-0.3c0.5-0.1,1-0.3,1.3-0.6c0.5-0.4,1-0.9,1.2-1.3c0.3-0.5,0.6-1.1,0.9-1.9c1.4-4.1,3-8.7,4.8-13.9 c1.7-5.1,3.3-9.7,4.6-13.7c0,0,0,0,0,0h1.6c0,0,0,0,0,0l9.5,28.3c0.2,0.6,0.4,1.1,0.7,1.5c0.3,0.4,0.6,0.7,1.1,1.1 c0.3,0.2,0.7,0.4,1.2,0.5c0.5,0.1,0.9,0.2,1.2,0.2c0,0,0,0,0,0V248.1z"></path> <path class="st3" d="M320.8,190.2c-0.2-3-0.3-7.6-0.6-12.2c-0.5-6.9-1.1-13.9-1.7-20.8c-0.1-1.5-0.5-2.8-2.1-3.2 c-2.1-0.5-4.8-0.2-6.8,0.1c-6.2,1-12.4,0.4-18.6-0.6c-14.1-2.3-26.5-8.4-37.8-16.8c-2.9-2.2-3.5-2-6.5-0.1 c-5.9,3.7-11.6,7.8-17.9,10.8c-12.1,5.8-24.8,8.7-38.4,6.7c-2.2-0.3-4.9-0.8-7.1-0.1c-1.3,0.4-1.7,1.8-1.9,3 c-0.1,0.7-0.2,1.5-0.3,2.2c-0.9,16.6-2.3,33.2-2.6,49.8c-0.4,23.3,8.2,43.4,23.6,60.7c6.4,7.1,13.7,13.2,21.7,18.5 c7.1,4.7,14.5,9.1,21.6,13.9c3.5,2.4,6.4,2.2,9.7,0.1c4.5-2.9,9.1-5.7,13.6-8.6c9.4-6,18.4-12.5,26.1-20.6 c14.6-15.3,23.8-33.4,25.8-54.6C321.5,209.6,320.8,200.7,320.8,190.2z M232.6,285.2c-0.2-0.2-0.5-0.3-0.7-0.5 c0.2,0.1,0.5,0.2,0.7,0.4C232.6,285.1,232.6,285.1,232.6,285.2z M241.9,291.1C241.9,291.1,241.9,291.1,241.9,291.1 C242,291.1,242,291.1,241.9,291.1C242,291.1,242,291.1,241.9,291.1z M312.6,216.5c-1,12.3-5.2,23.6-11.7,34 c-5.5,8.7-12.4,16.2-20.1,23c-6.7,5.9-14,11-21.7,15.6c-3,1.8-5.8,3.8-8.7,5.6c-0.8,0.5-1.1,0.5-1.9,0c-3.9-2.5-7.7-5-11.6-7.4 c-11.3-7-21.5-15.3-30.3-25.4c-8-9.2-14.2-19.5-17.7-31.2c-2.1-6.9-2.9-13.9-3.1-21.1c-0.2-8.7,0.2-17.4,0.8-26.2 c0.4-5.2,0.8-10.5,1.2-15.7c0.2-1.8,0.4-3.7,0.7-5.5c0.2-1.2,0.3-2.3,1.8-2.1c1.1,0.2,2.2,0.5,3.3,0.6c9.9,1,19.6-0.2,29-3.2 c8.7-2.7,16.5-7,24.1-12.1c0.4-0.3,0.8-0.5,1.2-0.8c1-0.7,2-0.7,3.1,0c1.9,1.3,3.9,2.6,5.9,3.8c7.9,4.9,16.3,8.6,25.4,10.7 c6.7,1.5,13.4,2.1,20.3,1.8c1.8-0.1,3.5-0.4,5.3-0.7c0.3,0,0.6-0.2,1-0.2c0.9,0,1.3,0.3,1.4,1.2c0.5,4.8,1.1,9.7,1.5,14.6 c0.5,7.3,0.9,14.7,1.3,22.1c0.1,1,0,2,0,3C313.2,206.1,313.1,211.3,312.6,216.5z"></path> <path class="st3" d="M436,187.8c-0.7-19.3-1.5-38.6-2.5-57.9c-0.6-12-1.7-23.9-2.5-35.8c-0.5-6.2-1-12.4-1.5-19.1 c0,0-1.8-19.8-1.8-19.9c-0.3-1.5-0.7-4.5-2.1-6.7c-1.4-2.2-3.8-2.3-6.1-1.6C408.8,50,398.1,52,387.1,53 c-12.8,1.1-25.6,0.9-38.3-1.4c-23-4.3-44.5-12.8-64.9-24.3c-10.1-5.7-19.8-12.2-27.9-20.6c-3.9-4.1-7.5-3.9-11.6,0.1 c-3.3,3.2-6.7,6.4-10.4,9.2c-18.3,13.7-38.8,23-60.4,30.1c-23.9,7.9-48.3,9.6-73.1,5.2c-6.4-1.1-12.7-2.6-18.9-4.4 c-2.6-0.8-5.5-0.5-7,1.9c-1.8,2.8-1.7,6.6-2,9.8c-0.1,0-1.4,15.7-2.2,24.8c-0.6,8-1.3,16.1-1.8,24.1c-0.8,12.1-1.6,24.1-2.3,36.2 c-1.2,19.4-2.2,38.8-1.9,58.3c0.2,14.9,1.4,29.8,4.6,44.4c10.6,48.4,33.8,89.8,69.7,124c17.5,16.7,37,30.7,57.3,43.8 c17.1,11.1,35.3,20.4,51.8,32.5c1.9,1.4,3.4,1.1,5.3-0.1c4.8-3.4,9.6-6.7,14.6-9.8c9.6-5.9,19.2-11.6,28.8-17.5 c21.1-13,41.4-26.9,59.8-43.5c35.1-31.5,59.2-69.9,72-115.3C434.9,236.6,436.9,212.4,436,187.8z M354.8,362.7 c-18,17.5-38.4,31.8-59.6,45c-14.6,9.1-29.3,18.1-44,27.1c-0.3,0.2-0.7,0.3-1.1,0.4c-18.3-11.4-36.8-22.6-55.1-34.1 c-11.7-7.4-22.8-15.6-33.5-24.3c-28.5-23.3-51.3-51.2-66.6-84.9c-12.1-26.6-19.2-54.3-19.9-83.5c-0.5-19.6,0.3-39.1,1.4-58.6 c0.7-12.8,1.5-25.6,2.4-38.4c1.2-17.1,2.5-34.1,3.8-51.2c0-0.5,0.2-0.9,0.4-1.7c2.8,0.6,5.5,1.3,8.2,1.8 c17.1,3.6,34.3,5,51.7,3.1c17.4-1.8,34-6.7,50.1-13.2c11.3-4.6,22.4-9.8,32.8-16.2c8.8-5.4,16.8-11.7,24.1-19.4 c0.3-0.2,0.5-0.1,1.5,1c11.2,11.6,24.6,20,39,27c17.9,8.7,36.4,15.5,56,19.1c14.8,2.7,29.6,3.2,44.5,1.3 c8.8-1.1,17.6-2.8,26.7-4.2c0.2,1.2,0.5,2.8,0.6,4.3c2.3,33.6,4.6,67.3,6.7,100.9c0.7,11.5,0.9,23,0.8,34.4 C425.5,263.3,401,317.8,354.8,362.7z"></path> <path class="st3" d="M415.8,178.5c0.4,13.6,0.2,27.1-1,40.7c-2.7,32.1-13.5,61.4-30.6,88.5c-14.3,22.7-32.4,42.2-52.4,60 c-17.4,15.5-36.5,28.6-56.4,40.7c-7.7,4.7-15.2,9.8-22.8,14.7c-2.1,1.4-2.9,1.4-5,0c-10.1-6.5-20.1-13.1-30.3-19.3 c-29.5-18.2-56.1-40-78.9-66.2c-20.9-24-36.9-50.8-46-81.4c-5.4-17.9-7.5-36.3-8-55c-0.6-22.8,0.6-45.5,2.2-68.1 c1-13.6,2-27.3,3.2-40.9c0.4-4.8,1.1-9.6,1.7-14.4c0.4-3.2,0.7-6,4.6-5.4c2.9,0.4,5.8,1.2,8.7,1.5c25.8,2.6,51-0.6,75.6-8.5 c22.6-7.2,43.1-18.3,62.7-31.5c1-0.7,2-1.4,3-2.1c2.7-1.9,5.3-1.9,8.1,0c5.1,3.4,10.2,6.8,15.4,10c20.6,12.7,42.5,22.5,66.2,28 c17.4,4,35,5.6,52.8,4.7c4.6-0.2,9.2-1.2,13.8-1.8c0.8-0.1,1.7-0.4,2.5-0.4c2.3-0.1,3.5,0.7,3.7,3.1c1.3,12.6,2.9,25.3,3.8,37.9 c1.4,19.1,2.3,38.3,3.4,57.4C416,173.4,415.8,175.9,415.8,178.5z M250.2,416.9c0.2-0.1,0.5-0.1,0.7-0.2 c11.3-7.1,22.6-14.1,33.8-21.2c31.9-20.3,60.1-44.8,83.2-74.9c16.9-22.1,29.4-46.4,36.1-73.5c5.4-21.5,6.5-43.5,5.8-65.5 c-0.7-21.6-2-43.2-3.3-64.8c-0.7-11.3-1.8-22.6-2.8-34c-0.1-1.2-0.4-2.3-0.6-3.6c-0.9,0.1-1.5,0.2-2.1,0.2 c-5.5,0.5-10.9,1.4-16.4,1.6c-21.2,0.6-41.9-2.2-62.2-8.3c-24.9-7.4-47.5-19.1-68.5-34.2c-1.3-0.9-2.6-1.7-3.8-2.6 c-45.8,33.5-96,50.3-153.1,43.6c-0.3,2.1-0.6,4.1-0.8,6.1c-0.8,10.2-1.8,20.5-2.4,30.7c-1.3,22.1-2.6,44.1-3.4,66.2 c-0.6,17.4,0.2,34.7,3.2,51.9c4.5,26.6,14.9,50.8,29.6,73.2c15.3,23.4,34.7,43.2,55.9,61.3C201.1,387.5,226.1,401.5,250.2,416.9z "></path> <path class="st4" d="M250.2,408.4c-0.9,3.2-2.5,2.3-3.5,1.6c-32.1-21.2-64.2-42-91.1-69.9c-2-2-3.9-4.1-5.8-6.2 c-23.9-26.4-43.7-58.6-50.7-93.9c-1.1-5.4-1.9-10.8-2.6-16.2c-0.1-0.8-0.2-1.6-0.2-2.4c-0.1-3.6,0.7-3.5,4-3.6 c8.3-0.1,16.6-0.2,24.9-0.2c13.7,0,27.4,0,41,0c0.9,0,1.6,0.1,2.6,1c0.7,0.6,1.1,1.6,1.1,2.5c1.6,25.1,14.6,47.3,32.9,64 c13.2,12,28.6,20.6,43.8,29.5c2.5,1.5,3.6,3.1,3.6,6.1c0,15.6,0,33.5-0.2,46.9C249.9,377,250.2,408.4,250.2,408.4z"></path> <path class="st5" d="M140.9,137.7c0.1-6.1,0.2-12.1,0.6-18.2c0.4-4.5-2.9-7.4-7.1-6.3c-1.3,0.3-3,0.5-4.1,0 c-2.3-1.1-3.9-0.3-5.2,1.2c-1.1,1.2-2.2,2.7-2.5,4.3c-1.9,8.9-2.4,15.9-4,24.8c-0.1,0.5-0.4,3.9,0.7,4.2c1.1,0.2,1.8-1.3,1.9-1.9 c0.4-1.4,0.4-3.3,0.7-4.7c0.8-4.1,1.6-7.9,2.7-11.9c0.4-1.5,0.6-4,1.2-3.7c2,0.9,1,3,0.8,4.5c-0.8,6.6-1.9,13.1-2.8,19.7 c-0.5,3.7-0.8,7.5-1,11.3c0,0.9,0.3,2,0.9,2.5c0.7,0.7,1.8,0.8,2.3,1.7c0.5,0.9,0.5,2,0.5,2.9c0.1,4,0.1,8.1,0.2,12.1 c0,1.7-0.6,4.3,1.4,4.4c1.1,0.1,1.9-1.2,2.1-2.1c0.2-1.1,0-2.2,0-3.2c0.1-1.7,0.1-3.3,0.2-5c0-0.9,0.1-10,0.4-10 c4.3-0.6,3.8,0,3.8,3.7c0,4.6,0,9.1,0.1,13.7c0,1.2,0.4,3.6,2.4,3.4c1.1-0.1,1-2.1,1.1-3.1c0.4-4.5,0.2-9,0.5-13.5 c0.1-1.6,0.4-3.3,1.8-4.2c1.4-0.9,2.2-1.6,2.1-3.4c-0.2-3.8-0.7-7.5-1.1-11.2C141.2,145.5,140.9,141.6,140.9,137.7z M132.5,136.4 c2.7,1.6,4.8,2.8,5.1,5.8C134.5,142.3,132.9,140.6,132.5,136.4z M133.3,124.8c2.8,0.4,3.4,0.9,5.2,4.3 C135.2,129,134.2,128.1,133.3,124.8z"></path> <path class="st5" d="M175.3,119.8c-0.3-4.9-4.3-8.8-9-9.4c-0.6-0.1-1.3,0.1-1.8,0.4c-2.7,1.3-5.3,1.1-7.9,0 c-0.8-0.3-1.9-0.6-2.6-0.3c-4.3,1.6-8.3,3.7-8.5,9c-0.4,8.4-0.6,16.9-0.7,25.3c0,0.9,0.1,2.5,1.1,2.7c1.6,0.3,3.2-2.5,3.2-4 c0-4.9,0.7-10,0.8-14.9c0-1.9,0.2-5.1,1.5-4.9c1.6,0.3,0.9,1.6,1,3.8c0.1,3.1-0.1,6.2,0.1,9.4c0.1,1,0.3,2.8,1.4,2.8 c3.9,0.1,7.7,0.5,11.6,0.5c2.3,0,3-1.5,3-3.7c-0.1-3.1,0-6.2,0-9.4c0-1.4,0.5-3.9,1.3-3.5c1.1,0.6,1.1,2.2,1.3,3.4 c0.4,2.2,0.6,4.4,0.7,6.6c0.1,3.5,0,7,0.1,10.5c0,1.2,1.2,3,2.6,3.2c2,0.3,1.7-3.2,1.7-4.9C175.9,134.8,175.7,127.3,175.3,119.8z "></path> <path class="st5" d="M203.6,128.2c-0.1-2.7-0.4-5.4-1-8.1c-0.8-3.8-5.7-7.9-9.3-7.5c-2.8,0.3-5.6,0.4-8.4,0.1 c-2.1-0.2-7.3-2.2-6.6,2.1c0.9,5.3,1.4,10.6,1.6,15.9c0.2,4.3,0.1,8.6,0,12.9c0,2,0.6,3.2,2.8,3.3c3,0.1,5.9,0.7,8.9,0.6 c3.5-0.1,4.3-1,4.3-4.5c0-4.3,0-8.6,0-12.9c0-2.1,0.1-3.4,1.7-5c0.7,0.5,1.2,1.2,1.4,2c0.5,1.7,0.7,3.6,0.8,5.4 c0.1,3.6,0,7.3,0.1,10.9c0,1,0.8,3.5,2,3.9c0.4,0.1,0.7,0.1,0.9-0.1c0.9-0.6,0.9-3,0.9-3.9C203.7,138.3,203.7,133.2,203.6,128.2z M187.5,132.4c-1.3,0-2.9-0.8-3.9-1.7c-0.3-0.3-2.3-2.8-2.4-2.7C184.1,127.6,186.8,129.4,187.5,132.4z M182.3,122.9 c1.1,0.8,2,1.4,3,2.1C184.3,124.3,183.4,123.6,182.3,122.9c-0.4-0.3-0.9-0.6-1.4-1C181.5,122.2,181.9,122.6,182.3,122.9z M181.1,134c3.1-0.6,6.5,1.7,8.3,6C185.5,138.6,183.1,136.8,181.1,134z"></path> <path class="st5" d="M167.3,142.6c-3.6,0-8-0.1-12.2-0.4c-2.2-0.1-2.8,0.2-2.8,2.6c0,12.1,0.1,24.2,0.2,36.3 c0,1.1,0.3,2.4,0.9,3.4c0.4,0.6,1.4,1.3,2.1,1.3c0.7-0.1,1.3-1,1.6-1.5c0.4-0.7,0.3-1.5,0.3-2.3c0-0.8,0-1.6,0-2.4 c0-1.5,0.1-2.9,0.1-4.4c0.2-5.4,0.3-10.9,0.4-16.3c0.1-2.2,0-4.4,0-6.6c0-0.9,0-1.9,0.4-2.7c0.4-0.7,1.2-1.4,1.9-1.6 c0.4-0.1,1.4,0.8,1.6,1.4c0.4,1.3,0.6,2.8,0.6,4.2c0.2,9.5,0.4,19,0.6,28.4c0,0.9,0,1.8,0.3,2.7c0.2,0.5,0.8,1.2,1.3,1.2 c0.7,0,1.5-0.3,2-0.8c0.4-0.5,0.6-1.4,0.7-2.2c0.3-3.5,0.7-7,0.8-10.5c0.1-9.1,0.1-18.2,0.1-27.3 C168.3,144.2,168.1,142.6,167.3,142.6z"></path> <path class="st5" d="M130.7,110.5c0,0,0.5,1,0.6,1.1c0.3,0.3,0.7,0.6,1.1,0.7c2.2,0.7,3.1-1.1,3-2.9c0-0.1,1.8,0,1.8,0 c0.6,0.1,1.2,0.3,1.7,0.5c0.3,0.1,0.6,0.2,0.9,0.2c0.3,0,0.3,0.1,0.3-0.2c0.1-0.5,0-1.3-0.1-1.8c-0.2-1.6-0.6-3.2-1-4.7 c-0.4-1.6-0.8-3.5-1.6-4.9c-1-1.7-2.5-2.6-4.5-2.6c-5.8-0.2-6.5,9-6.7,13.1c0,0.5-0.1,1-0.1,1.5 C126.3,110.4,130.3,110.4,130.7,110.5z"></path> <path class="st5" d="M157,104.3c0.3,0.6,0.6,1.2,0.6,1.9c0,0.6-0.4,1.6,0,2c0.2,0.2,0.4,0.3,0.6,0.4c1.7,0.8,2.8,0.6,4.5,0.3 c1.4-0.2,0.3-1.7,0.3-2.9c0.1-1.6,0.5-2,1.4-3.3c0.9-1.4,1.3-2.9,1.3-4.5c0-1.2-0.2-2.4-0.6-3.6c-0.4-1.3-1.6-2-2.8-2.5 c-2.5-0.9-5.2-0.2-6.5,2.3c-0.8,1.6-0.9,3.5-0.7,5.2C155.3,101.5,156.2,102.8,157,104.3z"></path> <path class="st5" d="M183,106.8c1,1.2,1.5,2,2,3.5c0.4,1.5,3.3,0.9,4.3,0.4c0.6-0.3,0.7-2,1-2.6c0.5-0.9,1.1-1.6,1.5-2.5 c0.5-1.2,1-3,1.1-4.3c0.1-3.7-3.1-5.9-6.2-6.1c-4.1-0.3-5.6,3.4-5.3,7C181.5,103.9,182.1,105.6,183,106.8z"></path> <path class="st5" d="M333.1,282.5c0,1-1,2.2-2.7,2.8c-4,1.5-6.8,4.5-9.4,7.9c-0.6,0.7-1.3,1.3-2.2,1.6c-0.5,0.1-1.8,0.3-2.3,0 c-0.7-0.5,0-1.9,0.2-2.6c0.8-2.2,2.2-4.2,3.9-5.8c1.7-1.6,3.7-2.9,6-3.6c1.1-0.4,2.2-0.5,3.3-0.6 C331.9,281.9,333.1,282.5,333.1,282.5z"></path> <path class="st5" d="M349.5,291.9c0-0.3,0.2-0.6,0.4-0.9c0.9-1.1,2.6-1.5,3.8-1.6c2.3-0.2,4.7,0.4,6.9,1.1c0.5,0.2,1.2,1.7,1,2.4 c-0.4,1.7-1.6,2.9-3.3,2.5c-2.6-0.5-5.2-1.3-7.8-2.1C349.8,293.1,349.5,292.5,349.5,291.9z"></path> <path class="st5" d="M311.3,340.4c-1.1-0.8-1.2-2.5-1-3.9c0.4-4.5,0.8-9,1.2-13.5c0.3-3.5,0.4-7.6-2.8-9.6 c-1.5-0.9-3.3-1.1-4.9-0.7c-2.5,0.6-4.4,2.1-6,3.9c-0.5,0.6-1,1.2-1.5,1.8c-0.3,0.3-0.8,1.4-1.2,1.5c-1.3,0.3-0.7-2.6-0.5-3.1 c2.2-5,5.7-10.2,10.1-13.5c4-3,9.3-3.6,13.9-5.6c0.6-0.3,1.3-0.6,1.9-1c3.4-2,6-5.2,9.4-7.3c1.9-1.2,4.2-2.1,5.4-4 c0.9-1.4,1.1-3.3,1.8-4.8c1.4-3.1,4.9-4.9,6.8-7.8c1.8-2.7,2.2-6.5,4.7-8.6c1.9-1.6,4.5-1.9,6.4-3.4c1.9-1.5,4.8-5,5.5-4.5 c1.3,0.9-5.2,4.5-5.1,7.6c0,1,9.1,8.3,14.6,13c0.4,0.4,0.9,0.7,1.5,0.7c0.5,0,1.3,0,2.1-0.5c2.1-1.6,4.9-5,5.3-4.5 c0.6,0.6-1.5,2.8-2.8,3.9c-4.3,3.9-2.1,9.6-8,11.6c-1.9,0.7-3.9,0.7-5.9,0.2c-3.9-1-9.9-2.7-13.1,0.7c-1.2,1.2-1.8,2.9-3.2,3.8 c-1.5,1-3.7,0.9-4.7,2.4c-0.6,0.9-0.5,2-1,3c-1.1,2-4.4,2.1-5.4,4.1c-1,2.1,1,4.5,0.6,6.9c-0.1,0.8-0.6,1.6-0.6,2.5 c-0.2,2.4,2.7,4,3.3,6.4c0.3,1.3,0,2.6-0.4,3.8c-1,3.5-2.9,10.8-3.8,10.3c-2.5-0.3-0.9-4-1.2-6.2c0-0.3-0.1-0.8-0.3-1 c-0.9-0.8-1.3,0.7-1.6,1.8c-0.7,2.4-1.4,4.7-2,7.1c-0.2,0.7-0.4,1.5-1,2.1c-0.5,0.6-1.5,0.8-2.1,0.3c-0.3-0.3-0.5-0.7-0.6-1.1 c-0.7-2.9,1.5-6.5-0.5-8.8c-2.3,2.6-2.1,6.6-3.3,9.9c-0.3,0.9-0.8,1.7-1.6,2.2c-0.8,0.5-1.9,0.5-2.5-0.3 c-0.5-0.6-0.4-1.5-0.2-2.3l1.2-6.2c0.2-0.8-0.4-1.7-1.2-1.8c-0.8-0.1-0.8,0.6-1,1.2c-1.4,3.8-1.9,10.8-3.9,11.3 C311.8,340.4,311.3,340.4,311.3,340.4z M371.7,281.8c0-0.9-0.9-1.3-2.1-2.2c-4.6-3.7-9.3-7.2-13.8-12c-2.9-3-3.5-4.7-5.4-3 c-0.9,0.8-1.9,1.6-2.6,2.5c-1.8,2.3-1.8,3.3,0.3,5.3c4.4,4.2,8.4,8,13.1,11.8c1.5,1.2,3.8,3.5,6,2.7 C368.8,286.4,371.8,283.9,371.7,281.8z"></path> <path class="st5" d="M290.9,360.3c0.1-0.6,1.1-1.9,1.4-2.2c2-1.7,3.9-3.4,5.9-5.1c-6.1-7.1-11.3-12.7-17.3-19.7 c-0.5-0.6-3.9,2.4-4.3,2.7c-1.3,1.1-3.8,2.9-4.3,2.1c-0.4-0.6,1.7-1.6,2.2-2.1c1-0.9,2-1.8,3-2.7c2-1.8,2.7-4.6,4.4-6.6 c1.3-1.4,4.7-4.1,6.8-3.2c4.1,1.8,6.4-0.7,9.7-3c1.5-1,2.7-2.5,4.1-3.7c1-0.9,2.2-1.7,3.6-1c1.4,0.7,2.2,2,2.1,3.6 c-0.4,4.9-0.8,9.7-1.1,14.6c-0.2,4.2-0.5,8.4,1.4,12.4c0.3,0.6,0.2,1.8-0.1,2.4c-1.7,2.7-3.9,4.9-7.3,5.5c-1.2,0.2-2.4,1-3.5,1.7 c-1.2,0.9-2.4,1.8-3.6,2.7c-0.6,0.5-1.2,0.9-1.8,1.4c-0.3,0.2-0.9,0.8-1.2,0.4C290.8,360.5,290.9,360.4,290.9,360.3z M281.5,329.7c-0.1,0.8,0.4,1.6,1,2.4c3.5,4.5,6.8,8.8,10.5,13.2c1.9,2.2,3.9,4,6.1,6c2.2,2,3.1,1.9,5.4,0.1 c0.6-0.4,1.1-0.9,1.6-1.5c1.7-2,1.8-2.6,0.1-4.7c-4.7-5.7-9.1-11-14-16.6c-4.1-4.8-5.4-4.7-9.9-0.3 C281.8,328.7,281.5,329.2,281.5,329.7z"></path> <path class="st5" d="M354.2,305.4c0,0.1,0,0.1,0,0.2c-0.1,0.9-1.3,2.2-2,2.7c-1,0.7-2.2,1-3.4,0.8c-3.4-0.6-6.8-1.5-10.1-2.6 c-0.7-0.2-1.6-1.5-1.6-2.3c0.1-0.6,1.3-1.5,2.2-1.6c2.3-0.5,5.1,0.1,7.3,0.5C347.5,303.2,353.7,304.3,354.2,305.4z"></path> <path class="st5" d="M358.7,298.9c0.6,1.5-1.6,3.2-2.8,3.3c-4.5,0.4-8.8-0.5-12.8-2.8c-0.6-0.3-1.3-1.5-1.1-1.9 c0.2-0.8,1.1-1.6,1.8-1.8c2.2-0.8,5.3,0.1,7.5,0.5c1.5,0.3,3,0.7,4.4,1.2C356.6,297.7,358.2,297.8,358.7,298.9 C358.7,298.8,358.7,298.8,358.7,298.9z"></path> <path class="st5" d="M348,313.1c0,0.1,0,0.2,0,0.2c0.1,1.8-2.5,2.8-3.8,2.8c-2.5,0.1-4.8-0.8-6.6-2.7c-0.5-0.6-0.8-1.9-0.6-2.5 c0.2-0.5,1.6-1,2.3-0.8C341,310.7,347.4,310.8,348,313.1z"></path> <path class="st4" d="M404.7,149.5c-0.8-14-1.9-28-2.8-42c-0.4-7-0.9-13.9-1.7-20.8c-0.4-3.3-0.7-3.3-4-3.2 c-7.7,0.3-15.4,1-23,0.8c-9.6-0.3-19.3-0.7-28.8-2c-19-2.5-37.9-10.3-55.2-18.3c-6.2-2.9-12.2-6.1-18.1-9.6 c-6.3-3.7-12.6-7.4-18.6-11.7c-0.6-0.4-1.6-1.2-2.3-0.4c0,0,0,79.2,0,79.2c0,2.2,3.1,4.4,4.6,5.7c2.3,1.9,4.7,3.7,7.2,5.3 c4.9,3.2,10.3,5.9,15.8,7.9c2.6,0.9,5.2,1.7,7.8,2.3c7.5,1.8,15.1,2.9,22.8,2.9c4.2,0,8.3,0,12.5,0.1c3.6,0.1,4.6,0.9,5.1,4.4 c1.1,8.3,2.3,16.7,2.9,25.1c0.2,3.4,0.4,6.7,0.6,10.1c0.2,3.7,0.3,7.5,0.5,11.2c0.1,3.3,0.2,6.7,0.3,10c0,2.2,0.1,4.4,0.1,6.6 c0,1.4-0.1,3.3,0.7,4.5c0.5,0.8,1.4,0.9,2.2,1c0.6,0.1,1.3,0.1,1.9,0.1c17.2,0,34.3,0.1,51.5,0c5.4,0,10.8-0.3,16.6-0.6 c1,0,1.9-0.8,1.9-1.9C406.7,194,406,171.7,404.7,149.5z"></path> </g> </g> </g> </svg>
