<?xml version="1.0" encoding="UTF-8"?>
<svg xmlns="http://www.w3.org/2000/svg" xmlns:xlink="http://www.w3.org/1999/xlink" version="1.1" id="Layer_1" x="0px" y="0px" viewBox="0 0 78.7 78.7" style="enable-background:new 0 0 78.7 78.7;" xml:space="preserve"> <style type="text/css"> .st0{fill:#FFFFFF;} </style> <g id="Layer_2_00000049183467156005833110000011740280456525579966_"> <g id="Layer_1-2"> <path class="st0" d="M34.7,40.8c-8.5-6.1-9.1-6.7-11-8.2c-0.4-0.3-0.6-0.7-0.6-1.2v-1.2c0-1.7,1.4-3,3.1-3h26.4c1.6,0,3,1.4,3,3 v1.2c0,0.5-0.2,0.9-0.6,1.2c-2,1.5-2.6,2.1-11,8.2c-1.1,0.8-3.2,2.7-4.7,2.6S35.7,41.5,34.7,40.8z M55.7,35.5v13 c0,1.7-1.3,3-3,3.1H26.1c-1.7,0-3.1-1.3-3.1-3c0,0,0,0,0,0v-13c0-0.2,0.2-0.4,0.4-0.4c0.1,0,0.2,0,0.2,0.1 c1.4,1.1,3.3,2.5,9.8,7.2c1.3,1,3.6,3,5.9,3s4.6-2.1,5.9-3c6.5-4.7,8.4-6.1,9.8-7.2c0.2-0.1,0.4-0.1,0.5,0 C55.6,35.3,55.6,35.4,55.7,35.5L55.7,35.5z"></path> <path class="st0" d="M39.3,78.7C17.6,78.7,0,61,0,39.3S17.6,0,39.3,0s39.3,17.6,39.3,39.3C78.6,61,61,78.6,39.3,78.7z M39.3,4 C19.8,4,4,19.8,4,39.3s15.8,35.3,35.3,35.3s35.3-15.8,35.3-35.3c0,0,0,0,0,0C74.6,19.8,58.8,4,39.3,4z"></path> </g> </g> </svg>
