<?xml version="1.0" encoding="UTF-8"?>
<svg xmlns="http://www.w3.org/2000/svg" xmlns:xlink="http://www.w3.org/1999/xlink" version="1.1" id="Layer_1" x="0px" y="0px" viewBox="0 0 78.7 78.7" style="enable-background:new 0 0 78.7 78.7;" xml:space="preserve"> <style type="text/css"> .st0{fill:#FFFFFF;} </style> <g id="Layer_2_00000157995763616195950560000009406885758262408585_"> <g id="Layer_1-2"> <path class="st0" d="M28.4,36.6c0.2-6.8,5.8-12.1,12.6-11.9c6.5,0.2,11.7,5.4,11.9,11.9c0,4.9-1.7,6.3-11,19.7 c-0.5,0.7-1.4,0.9-2.1,0.4c-0.2-0.1-0.3-0.2-0.4-0.4C30.1,42.9,28.4,41.6,28.4,36.6z M45.7,36.6c0-2.8-2.3-5.1-5.1-5.1 c-2.8,0-5.1,2.3-5.1,5.1c0,2.8,2.3,5.1,5.1,5.1c0,0,0,0,0,0C43.4,41.7,45.7,39.5,45.7,36.6C45.7,36.6,45.7,36.6,45.7,36.6z"></path> <path class="st0" d="M39.3,78.7C17.6,78.7,0,61,0,39.3S17.6,0,39.3,0s39.3,17.6,39.3,39.3C78.6,61,61,78.6,39.3,78.7z M39.3,4 C19.8,4,4,19.8,4,39.3s15.8,35.3,35.3,35.3s35.3-15.8,35.3-35.3c0,0,0,0,0,0C74.6,19.8,58.8,4,39.3,4z"></path> </g> </g> </svg>
