<?xml version="1.0" encoding="UTF-8"?>
<svg xmlns="http://www.w3.org/2000/svg" xmlns:xlink="http://www.w3.org/1999/xlink" version="1.1" id="Layer_1" x="0px" y="0px" viewBox="0 0 78.7 78.7" style="enable-background:new 0 0 78.7 78.7;" xml:space="preserve"> <style type="text/css"> .st0{fill:#FFFFFF;} </style> <g id="Layer_2_00000038392871573677606580000011355245168293831075_"> <g id="Layer_1-2"> <path class="st0" d="M57.7,48.9c0,0.1,0,0.2,0,0.3l-1.5,6.6C56,56.5,55.3,57,54.6,57l0,0c-16.3,0-29.5-13.2-29.6-29.5 c0-0.7,0.5-1.3,1.2-1.5l6.6-1.5c0.1,0,0.2,0,0.3,0c0.6,0,1.1,0.4,1.4,0.9l3,7.1c0.1,0.2,0.1,0.4,0.1,0.6c0,0.5-0.2,0.9-0.6,1.2 l-3.8,3.1c2.6,4.8,6.5,8.7,11.3,11.3l3.2-3.8c0.3-0.3,0.7-0.5,1.2-0.6c0.2,0,0.4,0.1,0.6,0.1l7.1,3C57.3,47.7,57.7,48.2,57.7,48.9 z"></path> <path class="st0" d="M39.3,78.7C17.6,78.7,0,61,0,39.3S17.6,0,39.3,0s39.3,17.6,39.3,39.3C78.6,61,61,78.6,39.3,78.7z M39.3,4 C19.8,4,4,19.8,4,39.3s15.8,35.3,35.3,35.3s35.3-15.8,35.3-35.3c0,0,0,0,0,0C74.6,19.8,58.8,4,39.3,4z"></path> </g> </g> </svg>
