<?xml version="1.0" encoding="UTF-8"?> <svg xmlns="http://www.w3.org/2000/svg" viewBox="0 0 78.65 78.65"><defs><style>.cls-1{fill:#eda23b;}</style></defs><g id="Layer_2" data-name="Layer 2"><g id="Layer_1-2" data-name="Layer 1"><path class="cls-1" d="M57.68,48.86a1.86,1.86,0,0,1,0,.34l-1.53,6.62A1.59,1.59,0,0,1,54.63,57h0A29.55,29.55,0,0,1,25.08,27.46,1.6,1.6,0,0,1,26.26,26l6.63-1.53a1.87,1.87,0,0,1,.34,0,1.67,1.67,0,0,1,1.41.92l3,7.13a1.79,1.79,0,0,1,.13.6,1.77,1.77,0,0,1-.57,1.19L33.4,37.4A27.31,27.31,0,0,0,44.68,48.68l3.16-3.85A1.73,1.73,0,0,1,49,44.26a1.79,1.79,0,0,1,.6.13l7.13,3A1.69,1.69,0,0,1,57.68,48.86Z"></path><path class="cls-1" d="M39.32,78.65A39.33,39.33,0,1,1,78.65,39.32,39.37,39.37,0,0,1,39.32,78.65ZM39.32,4A35.33,35.33,0,1,0,74.65,39.32,35.37,35.37,0,0,0,39.32,4Z"></path></g></g></svg> 