<?xml version="1.0" encoding="UTF-8"?> <svg xmlns="http://www.w3.org/2000/svg" viewBox="0 0 341.35 90.29"><defs><style>.cls-1{fill:#fff;}.cls-2{fill:#eda23b;}</style></defs><g id="Layer_2" data-name="Layer 2"><g id="Layer_1-2" data-name="Layer 1"><path class="cls-1" d="M43.76,12.41A9.58,9.58,0,0,1,39.83,17a10.88,10.88,0,0,1-6,1.85,4.15,4.15,0,0,1-2.38-.63,1.89,1.89,0,0,1-.92-1.61,3.73,3.73,0,0,1,.79-2.12,4.68,4.68,0,0,0,1.65.27,7.37,7.37,0,0,0,4.75-1.78,5.36,5.36,0,0,0,2.18-4.29c0-2.56-1.69-3.83-5.08-3.83A22.23,22.23,0,0,0,21.71,9.44a34.67,34.67,0,0,0-10.33,12A31.5,31.5,0,0,0,7.46,36.37q0,11.75,10.69,11.74,6.66,0,14.12-5.15t9.9-11.15a2.66,2.66,0,0,1,1.26,2.31q0,3-4.22,7.36a30.45,30.45,0,0,1-10.63,7,34.54,34.54,0,0,1-13.07,2.6Q0,51.08,0,36.63A30.18,30.18,0,0,1,2.44,25.18,43.91,43.91,0,0,1,9,14.09a33.19,33.19,0,0,1,10.4-8.41,26.18,26.18,0,0,1,12.31-3.3c4,0,7.15.69,9.3,2.08a6.14,6.14,0,0,1,3.24,5.31A7.88,7.88,0,0,1,43.76,12.41Z"></path><path class="cls-1" d="M75.5,32.87c.14-.27.27-.4.4-.4s.4.33.4,1a6.5,6.5,0,0,1-2.55,5.25A7.73,7.73,0,0,1,69,40.79a5.89,5.89,0,0,1-3.79-1.26,22.92,22.92,0,0,1-5.65,7.4,12.75,12.75,0,0,1-8.41,2.7,7.42,7.42,0,0,1-5.38-2q-2.09-2-2.08-6.14A21.58,21.58,0,0,1,45.57,33a20,20,0,0,1,5.68-7.56,12.92,12.92,0,0,1,8.48-3.17q7.84,0,7.85,8.32a18.14,18.14,0,0,1-1.38,6.66A3.26,3.26,0,0,0,69,38.61Q72.46,38.61,75.5,32.87Zm-11-4.09c-.17-2.34-1.23-3.5-3.17-3.5q-4.55,0-8.91,8.84A20.6,20.6,0,0,0,50,43c0,2.65,1.14,4,3.43,4.16q2.84,0,5.25-3a31.32,31.32,0,0,0,4.06-6.63,6.06,6.06,0,0,1-2.25-4.82,4.07,4.07,0,0,1,1-2.84,3.36,3.36,0,0,1,2.61-1Z"></path><path class="cls-1" d="M98.47,22.51l3.17.06a7.54,7.54,0,0,0,1.25-.06q-1.85,1.24-5.31,8.74T94.12,42c0,1.32.43,2,1.32,2a4.44,4.44,0,0,0,2.34-1.12,13.3,13.3,0,0,0,2.54-2.48,39.06,39.06,0,0,0,2.28-3.33l2.11-3.43a5.6,5.6,0,0,1,1-1.45c.27,0,.4.42.4,1.25a4.35,4.35,0,0,1-.73,2.38Q97.23,49.51,91.74,49.5,88,49.5,88,44a19.69,19.69,0,0,1,.27-3.3Q82.1,49.5,76.49,49.5a3.15,3.15,0,0,1-2.67-1.39,6.83,6.83,0,0,1-1-4.09c0-1.8.63-4.78,1.91-8.94A37.43,37.43,0,0,1,79.4,24.82a2.82,2.82,0,0,1,1.42-1.23,11.81,11.81,0,0,1,2.87-.23h3.17a42.07,42.07,0,0,0-3.57,6.08c-2.9,6-4.35,10.45-4.35,13.26,0,1.67.6,2.51,1.81,2.51s2.65-1.17,4.32-3.5a73.19,73.19,0,0,0,5.38-9.07q2.88-5.58,3.34-6.31Q96.22,22.51,98.47,22.51Z"></path><path class="cls-1" d="M134.18,35.84c-1.63,2.73-3.12,5-4.46,6.83a24.81,24.81,0,0,1-4.59,4.78,7.78,7.78,0,0,1-4.68,2q-3.9,0-3.9-4.29t5-17.23a3,3,0,0,0,.27-1.25c0-.92-.59-1.39-1.75-1.39a6.28,6.28,0,0,0-3.43,1.09,11,11,0,0,0-3.07,3.11A42.78,42.78,0,0,0,111,33.63a33.71,33.71,0,0,0-2.08,4.78c-.64,1.81-1.14,3.31-1.52,4.52s-.75,2.51-1.12,3.9-.58,2.14-.63,2.27h-6.4q0-1.38,5.81-15.9c1.58-4.53,2.38-7.7,2.38-9.51a2,2,0,0,0-.2-1H110a6,6,0,0,1,3,.47,1.43,1.43,0,0,1,.66,1.25,14.35,14.35,0,0,1-.73,3.23q5.55-5.28,11.16-5.28,3.77,0,3.76,3.44a7.94,7.94,0,0,1-.33,2.24c-.22.75-.77,2.24-1.65,4.49q-2.91,7.4-2.9,9.9c0,1.05.39,1.58,1.18,1.58a4.63,4.63,0,0,0,2.41-1.19,14.23,14.23,0,0,0,2.58-2.47,35.87,35.87,0,0,0,2.24-3.24c.82-1.29,1.51-2.43,2.08-3.39a5.63,5.63,0,0,1,1-1.46c.27,0,.4.41.4,1.22A4.57,4.57,0,0,1,134.18,35.84Z"></path><path class="cls-1" d="M152.26,11.29Q149,13.52,145,22.77h6.67l.06.07c0,.22-.24.6-.72,1.15s-.91.83-1.26.83h-5.67q-5.22,12.93-5.22,16.63c0,1.67.53,2.51,1.59,2.51q2.31,0,5.41-4a22.46,22.46,0,0,0,1.91-2.91,56.74,56.74,0,0,1,3.17-4.88c.26,0,.4.35.4,1q-.08,2.52-5.48,9.77a25.15,25.15,0,0,1-4.29,4.42,7.52,7.52,0,0,1-4.56,2c-2.5,0-3.76-1.76-3.76-5.28a30.09,30.09,0,0,1,2.11-10.16V34a24.88,24.88,0,0,1-2.14,3.43,5.11,5.11,0,0,1-1,1.12c-.18,0-.27-.27-.27-.82a7.45,7.45,0,0,1,.89-2.68q.9-1.84,2.44-4.81c1-2,1.89-3.79,2.55-5.41h-4.43c-.13,0-.19-.1-.19-.3a2.29,2.29,0,0,1,.49-1c.33-.49.58-.73.76-.73h5q4.74-11.41,9.63-11.42C151,11.35,152,11.33,152.26,11.29Z"></path><path class="cls-1" d="M165.92,22.57l3.37.07H170q-1,.72-2.81,4.29c-1.21,2.37-2.11,4.17-2.7,5.38a44.6,44.6,0,0,0-2,4.88,15.67,15.67,0,0,0-1.09,5q0,1.92,1.32,1.92a5.5,5.5,0,0,0,2.41-1.22,13.74,13.74,0,0,0,2.57-2.45,30.38,30.38,0,0,0,2.24-3.3L172,33.63a5.91,5.91,0,0,1,1-1.49c.31,0,.46.41.46,1.22a4.57,4.57,0,0,1-.66,2.35q-2.83,4.68-4.68,7.19a24.75,24.75,0,0,1-4.46,4.59A8,8,0,0,1,159,49.57q-3.77,0-3.76-5.55a29.4,29.4,0,0,1,1.45-8.51A37.1,37.1,0,0,1,161,26.33a7.35,7.35,0,0,1-4.62,1.85,4,4,0,0,1-1.52-.33q-4.68,9.24-5.05,9.24c-.24,0-.36-.36-.36-1.09a8.5,8.5,0,0,1,.83-3c.55-1.3,1.14-2.54,1.78-3.73s1-1.85,1-2a4,4,0,0,1-2.37-3.83,3.78,3.78,0,0,1,.82-2.38A2.74,2.74,0,0,1,153.78,20a3.23,3.23,0,0,1,2.37.92,4,4,0,0,0-.13,1.19,3.37,3.37,0,0,0,1.29,2.8,4.83,4.83,0,0,0,3.13,1,3.26,3.26,0,0,0,.8-.07Q163.55,22.57,165.92,22.57Z"></path><path class="cls-1" d="M197.07,23.36h2.71q-2,1.26-4.16,6.21-1.71,4.16-2.9,7.55c-.79,2.27-1.28,3.65-1.45,4.13s-.59,1.66-1.23,3.53-1.15,3.31-1.55,4.32a25.36,25.36,0,0,1-3.82,7.33,16.21,16.21,0,0,1-5.42,4.32,14.42,14.42,0,0,1-6.53,1.62,11.52,11.52,0,0,1-5.64-1.29A4.3,4.3,0,0,1,164.73,57a4.16,4.16,0,0,1,.89-2.6,2.58,2.58,0,0,1,2-1.16,3.46,3.46,0,0,1,2,.53A3.22,3.22,0,0,1,170.74,55c-.79.26-1.19,1.19-1.19,2.77a2.52,2.52,0,0,0,.89,2,3.38,3.38,0,0,0,2.28.76q5.34,0,9-9.57l3.76-10a43.52,43.52,0,0,1-5.38,5.84,11.59,11.59,0,0,1-3.57,2.34,10.11,10.11,0,0,1-3,.4,3.33,3.33,0,0,1-2.81-1.42,6.81,6.81,0,0,1-1-4.16,30.54,30.54,0,0,1,1.58-7.82,33.56,33.56,0,0,1,3.44-8,9.36,9.36,0,0,1,3.89-3.83,14.41,14.41,0,0,1,5.51-.86c.18,0,.26.09.26.27a1.12,1.12,0,0,1-.39.66q-2.72,2.37-5.51,8.51t-2.81,10.36q0,2.25,1.26,2.25c1.58,0,3.6-1.59,6.07-4.75a41.85,41.85,0,0,0,5.67-9.51c.18-.44.43-1.08.76-1.91s.57-1.41.7-1.72.34-.73.62-1.29a4.47,4.47,0,0,1,.76-1.12c.22-.2.52-.45.89-.76a2.91,2.91,0,0,1,1.16-.59A18,18,0,0,1,197.07,23.36Z"></path><path class="cls-1" d="M263.14,12.41A9.63,9.63,0,0,1,259.21,17a10.88,10.88,0,0,1-6,1.85,4.15,4.15,0,0,1-2.38-.63,1.89,1.89,0,0,1-.92-1.61,3.73,3.73,0,0,1,.79-2.12,4.68,4.68,0,0,0,1.65.27,7.37,7.37,0,0,0,4.75-1.78,5.39,5.39,0,0,0,2.18-4.29c0-2.56-1.69-3.83-5.08-3.83a22.23,22.23,0,0,0-13.14,4.62,34.67,34.67,0,0,0-10.33,12,31.5,31.5,0,0,0-3.92,14.95q0,11.75,10.69,11.74,6.66,0,14.12-5.15t9.9-11.15a2.66,2.66,0,0,1,1.26,2.31q0,3-4.23,7.36a30.41,30.41,0,0,1-10.62,7,34.54,34.54,0,0,1-13.07,2.6q-15.51,0-15.51-14.45a30.18,30.18,0,0,1,2.44-11.45,43.91,43.91,0,0,1,6.6-11.09,33.19,33.19,0,0,1,10.4-8.41,26.15,26.15,0,0,1,12.31-3.3c4,0,7.15.69,9.3,2.08a6.14,6.14,0,0,1,3.24,5.31A7.88,7.88,0,0,1,263.14,12.41Z"></path><path class="cls-1" d="M288.15,8.84a61.41,61.41,0,0,1-7.26,10.93,99.42,99.42,0,0,1-8.78,9.8l-1.05,3a50.7,50.7,0,0,0-1.52,5.61,20.11,20.11,0,0,0-.66,4.69c0,1.32.48,2,1.45,2a5.94,5.94,0,0,0,3.47-1.65,18.2,18.2,0,0,0,2.93-2.87c.62-.82,1.33-1.88,2.15-3.2L281,33.73a5.8,5.8,0,0,1,1-1.46c.27,0,.4.41.4,1.22a4.57,4.57,0,0,1-.66,2.35,59.66,59.66,0,0,1-5.87,8.64q-4.56,5-9.38,5-3.69,0-3.69-5t4.42-17.29c.22-.7.73-2.18,1.52-4.42s1.47-4,2-5.25,1.34-2.91,2.31-5a30.28,30.28,0,0,1,2.81-4.95c.9-1.23,1.9-2.49,3-3.76q3.24-3.82,7-3.83t3.76,3.43A11.23,11.23,0,0,1,288.15,8.84Zm-1.38-7.19h-.47q-4,0-12.87,24.16,9-10.63,12.35-17.43c1.23-2.77,1.84-4.59,1.84-5.44S287.34,1.65,286.77,1.65Z"></path><path class="cls-1" d="M304.45,22.51l3.17.06a7.78,7.78,0,0,0,1.26-.06q-1.86,1.24-5.32,8.74T300.1,42q0,2,1.32,2a4.44,4.44,0,0,0,2.34-1.12,13.3,13.3,0,0,0,2.54-2.48,39.06,39.06,0,0,0,2.28-3.33c.81-1.32,1.52-2.46,2.11-3.43a5.6,5.6,0,0,1,1-1.45c.27,0,.4.42.4,1.25a4.27,4.27,0,0,1-.73,2.38q-8.17,13.67-13.66,13.66c-2.46,0-3.7-1.83-3.7-5.48a19.69,19.69,0,0,1,.27-3.3q-6.21,8.78-11.82,8.78a3.15,3.15,0,0,1-2.67-1.39,6.83,6.83,0,0,1-1-4.09q0-2.7,1.91-8.94a37.43,37.43,0,0,1,4.69-10.26,2.82,2.82,0,0,1,1.42-1.23,11.81,11.81,0,0,1,2.87-.23h3.17a43,43,0,0,0-3.57,6.08c-2.9,6-4.35,10.45-4.35,13.26,0,1.67.6,2.51,1.81,2.51s2.65-1.17,4.32-3.5a72,72,0,0,0,5.38-9.07q2.88-5.58,3.34-6.31C301.39,23.78,303,22.51,304.45,22.51Z"></path><path class="cls-1" d="M341,32.21c.26,0,.4.41.4,1.22a3.73,3.73,0,0,1-.4,1.88l-1.45,2.44a32.7,32.7,0,0,1-5.28,7.13,6.65,6.65,0,0,1-4.36,2,3.58,3.58,0,0,1-3.69-2.58,20.61,20.61,0,0,1-5.48,4.06,14,14,0,0,1-6.21,1.35c-2.28,0-3.9-.36-4.85-1.09A4.3,4.3,0,0,1,308.21,45a24.54,24.54,0,0,1,.8-5.77,139.77,139.77,0,0,1,6.86-20.49Q320.68,7,323.46,6.27A17.51,17.51,0,0,1,326.59,6c1.52,0,2.44-.06,2.74-.1q-2.56,1.92-7,11.22A102.82,102.82,0,0,0,315.74,35q7.13-12.6,13.46-12.6c3,0,4.49,2.14,4.49,6.44s-1.81,8.65-5.41,13.1a2.79,2.79,0,0,0,.66,1.78,1.94,1.94,0,0,0,1.52.66,3.45,3.45,0,0,0,2-.83,11.91,11.91,0,0,0,1.65-1.45c.37-.42.87-1,1.48-1.81a36.67,36.67,0,0,0,2.18-3.21c.84-1.34,1.55-2.49,2.15-3.46A5.6,5.6,0,0,1,341,32.21ZM326.3,28.05a4.69,4.69,0,0,0-1-.07c-.56,0-1.59.58-3.11,1.72s-3.29,3.33-5.31,6.57-3,5.89-3,8,.64,3.14,1.92,3.14q3.5,0,7.52-6.77t4-10.66C327.29,28.86,327,28.23,326.3,28.05Z"></path><path class="cls-2" d="M71.1,78.34Q71.1,84,68,87t-9,3H52.52V67.14h7.06c3.64,0,6.46,1,8.49,2.93S71.1,74.79,71.1,78.34Zm-3.94.12q0-8.19-7.67-8.2H56.25V86.84h2.66Q67.16,86.84,67.16,78.46Z"></path><path class="cls-2" d="M93.18,90,90.9,83.64H82.17L79.93,90H76L84.54,67H88.6L97.15,90Zm-3.26-9.56L87.78,74.2c-.16-.42-.38-1.08-.65-2s-.47-1.55-.57-2a33.41,33.41,0,0,1-1.24,4.2l-2.06,6Z"></path><path class="cls-2" d="M109.63,77.56,115,67.14h4.06l-7.61,14V90h-3.75V81.25l-7.58-14.11h4.06Z"></path><path class="cls-2" d="M150.61,90l-2.28-6.34H139.6L137.36,90h-3.93L142,67H146L154.58,90Zm-3.26-9.56-2.14-6.22c-.16-.42-.38-1.08-.65-2s-.47-1.55-.57-2a35.18,35.18,0,0,1-1.24,4.2l-2.06,6Z"></path><path class="cls-2" d="M170.32,70a6.16,6.16,0,0,0-5.06,2.28,9.75,9.75,0,0,0-1.84,6.3q0,4.2,1.77,6.36a6.24,6.24,0,0,0,5.13,2.15,13.76,13.76,0,0,0,2.82-.28c.9-.2,1.85-.44,2.82-.75v3.21a17.28,17.28,0,0,1-6.09,1q-5,0-7.7-3t-2.69-8.69a14.05,14.05,0,0,1,1.31-6.24,9.23,9.23,0,0,1,3.77-4.09,11.39,11.39,0,0,1,5.8-1.42,14.35,14.35,0,0,1,6.46,1.47l-1.34,3.11a20.32,20.32,0,0,0-2.44-1A9,9,0,0,0,170.32,70Z"></path><path class="cls-2" d="M191.79,90h-3.74V70.34h-6.72v-3.2H198.5v3.2h-6.71Z"></path><path class="cls-2" d="M205,90V67.14h3.74V90Z"></path><path class="cls-2" d="M230.8,67.14h3.88l-8,22.84h-3.94l-8-22.84h3.84l4.77,14.2c.25.68.51,1.55.8,2.62s.46,1.86.54,2.38c.14-.79.35-1.71.63-2.75s.51-1.81.69-2.31Z"></path><path class="cls-2" d="M240.7,90V67.14h3.73V90Z"></path><path class="cls-2" d="M261.36,90h-3.73V70.34h-6.72v-3.2h17.17v3.2h-6.72Z"></path><path class="cls-2" d="M281,77.56l5.41-10.42h4.06l-7.61,14V90h-3.75V81.25l-7.57-14.11h4.06Z"></path></g></g></svg> 