<?xml version="1.0" encoding="utf-8"?>
<!-- Generator: Adobe Illustrator 25.2.0, SVG Export Plug-In . SVG Version: 6.00 Build 0)  -->
<svg version="1.1" id="Layer_1" xmlns="http://www.w3.org/2000/svg" xmlns:xlink="http://www.w3.org/1999/xlink" x="0px" y="0px"
	 viewBox="0 0 328 141" style="enable-background:new 0 0 328 141;" xml:space="preserve">
<style type="text/css">
	.st0{fill:#58595B;}
	.st1{fill:#FFFFFF;}
	.st2{fill:#F1A63A;}
	.st3{fill:none;}
	.st4{display:none;fill:none;stroke:#58595B;stroke-miterlimit:10;}
	.st5{display:none;fill:none;stroke:#00AEEF;stroke-width:0.25;stroke-miterlimit:10;}
	.st6{fill:#515251;}
	.st7{fill:#135F69;}
	.st8{fill:#F1F2F2;}
	.st9{fill:#F6B86F;}
	.st10{fill:#512951;}
	.st11{fill:#E6E7E8;}
</style>
<g>
	<g>
		<g>
			<path class="st6" d="M56.3,42.9c-0.6,1.6-1.7,2.9-3.4,3.9c-1.6,1.1-3.4,1.6-5.1,1.6c-0.8,0-1.5-0.2-2-0.5
				C45.2,47.5,45,47,45,46.5c0-0.6,0.2-1.2,0.7-1.8c0.4,0.2,0.9,0.2,1.4,0.2c1.5,0,2.8-0.5,4.1-1.5c1.2-1,1.9-2.3,1.9-3.7
				c0-2.2-1.5-3.3-4.4-3.3c-3.9,0-7.6,1.3-11.3,4c-3.7,2.6-6.6,6.1-8.9,10.3c-2.3,4.2-3.4,8.5-3.4,12.9c0,6.7,3.1,10.1,9.2,10.1
				c3.8,0,7.9-1.5,12.1-4.4c4.3-3,7.1-6.2,8.5-9.6c0.7,0.5,1.1,1.2,1.1,2c0,1.7-1.2,3.8-3.6,6.3c-2.4,2.5-5.5,4.5-9.1,6
				c-3.7,1.5-7.4,2.2-11.2,2.2c-8.9,0-13.3-4.1-13.3-12.4c0-3.1,0.7-6.4,2.1-9.9c1.4-3.4,3.3-6.6,5.7-9.5c2.4-2.9,5.4-5.3,8.9-7.2
				c3.6-1.9,7.1-2.8,10.6-2.8c3.5,0,6.2,0.6,8,1.8c1.9,1.2,2.8,2.7,2.8,4.6C56.8,41.3,56.6,42,56.3,42.9z"/>
			<path class="st6" d="M83.6,60.5c0.1-0.2,0.2-0.3,0.3-0.3c0.2,0,0.3,0.3,0.3,0.9c0,1.8-0.7,3.3-2.2,4.5c-1.5,1.2-2.8,1.8-4.1,1.8
				c-1.3,0-2.4-0.4-3.3-1.1c-1.4,2.7-3,4.8-4.9,6.4c-1.9,1.6-4.3,2.3-7.2,2.3c-1.9,0-3.4-0.6-4.6-1.7c-1.2-1.2-1.8-2.9-1.8-5.3
				c0-2.4,0.5-4.8,1.6-7.3c1.1-2.5,2.7-4.7,4.9-6.5c2.2-1.8,4.6-2.7,7.3-2.7c4.5,0,6.8,2.4,6.8,7.2c0,1.8-0.4,3.7-1.2,5.7
				c0.6,0.8,1.4,1.2,2.4,1.2C80,65.4,81.9,63.8,83.6,60.5z M74.2,57c-0.2-2-1.1-3-2.7-3c-2.6,0-5.2,2.5-7.7,7.6
				c-1.4,2.8-2,5.3-2,7.6c0,2.3,1,3.5,3,3.6c1.6,0,3.1-0.9,4.5-2.6c1.4-1.7,2.5-3.6,3.5-5.7c-1.3-1.1-1.9-2.5-1.9-4.1
				c0-1,0.3-1.8,0.8-2.4c0.5-0.6,1.3-0.9,2.2-0.9H74.2z"/>
			<path class="st6" d="M103.4,51.6l2.7,0.1c0.6,0,0.9,0,1.1-0.1c-1.1,0.7-2.6,3.2-4.6,7.5c-2,4.3-3,7.4-3,9.3
				c0,1.1,0.4,1.7,1.1,1.7c0.5,0,1.2-0.3,2-1s1.6-1.4,2.2-2.1c0.6-0.8,1.3-1.7,2-2.9c0.7-1.1,1.3-2.1,1.8-3c0.5-0.8,0.8-1.2,0.9-1.2
				c0.2,0,0.3,0.4,0.3,1.1c0,0.7-0.2,1.4-0.6,2c-4.7,7.8-8.6,11.8-11.8,11.8c-2.1,0-3.2-1.6-3.2-4.7c0-1,0.1-1.9,0.2-2.8
				c-3.6,5-6.9,7.6-10.2,7.6c-0.9,0-1.7-0.4-2.3-1.2c-0.6-0.8-0.9-2-0.9-3.5c0-1.6,0.5-4.1,1.6-7.7c1.1-3.6,2.4-6.5,4-8.8
				c0.4-0.6,0.8-0.9,1.2-1.1c0.4-0.1,1.3-0.2,2.5-0.2h2.7c-0.9,1.3-2,3-3.1,5.2c-2.5,5.2-3.7,9-3.7,11.4c0,1.4,0.5,2.2,1.6,2.2
				c1,0,2.3-1,3.7-3c1.4-2,3-4.6,4.6-7.8c1.6-3.2,2.6-5,2.9-5.4C100.8,52.7,102.1,51.6,103.4,51.6z"/>
			<path class="st6" d="M134.1,63c-1.4,2.3-2.7,4.3-3.8,5.9c-1.2,1.6-2.5,2.9-3.9,4.1c-1.5,1.2-2.8,1.8-4,1.8
				c-2.2,0-3.3-1.2-3.3-3.7c0-2.5,1.4-7.4,4.3-14.8c0.2-0.3,0.2-0.7,0.2-1.1c0-0.8-0.5-1.2-1.5-1.2c-1,0-2,0.3-3,0.9
				c-1,0.6-1.8,1.5-2.6,2.7c-0.8,1.2-1.5,2.3-2.2,3.5c-0.6,1.2-1.2,2.6-1.8,4.1c-0.5,1.6-1,2.8-1.3,3.9c-0.3,1-0.6,2.2-1,3.3
				c-0.3,1.2-0.5,1.8-0.5,2h-5.5c0-0.8,1.7-5.4,5-13.7c1.4-3.9,2-6.6,2-8.2c0-0.4-0.1-0.7-0.2-0.9h2.4c1.3,0,2.2,0.1,2.6,0.4
				c0.4,0.3,0.6,0.6,0.6,1.1s-0.2,1.4-0.6,2.8c3.2-3,6.4-4.5,9.6-4.5c2.2,0,3.2,1,3.2,3c0,0.6-0.1,1.3-0.3,1.9
				c-0.2,0.6-0.7,1.9-1.4,3.9c-1.7,4.2-2.5,7.1-2.5,8.5c0,0.9,0.3,1.4,1,1.4c0.5,0,1.2-0.3,2.1-1c0.9-0.7,1.6-1.4,2.2-2.1
				c0.6-0.7,1.2-1.7,1.9-2.8c0.7-1.1,1.3-2.1,1.8-2.9c0.5-0.8,0.8-1.2,0.9-1.2c0.2,0,0.3,0.4,0.3,1.1
				C134.7,61.7,134.5,62.4,134.1,63z"/>
			<path class="st6" d="M149.7,41.9c-1.9,1.3-3.9,4.6-6.2,9.9h5.7l0.1,0.1c0,0.2-0.2,0.5-0.6,1c-0.4,0.5-0.8,0.7-1.1,0.7h-4.9
				c-3,7.4-4.5,12.2-4.5,14.3c0,1.4,0.5,2.2,1.4,2.2c1.3,0,2.9-1.1,4.7-3.4c0.4-0.5,1-1.3,1.6-2.5c1.7-2.8,2.6-4.2,2.7-4.2
				c0.2,0,0.3,0.3,0.3,0.9c0,1.4-1.6,4.2-4.7,8.4c-1,1.4-2.3,2.6-3.7,3.8c-1.4,1.2-2.7,1.8-3.9,1.8c-2.2,0-3.2-1.5-3.2-4.5
				c0-2.5,0.6-5.5,1.8-8.7v-0.1c-0.7,1.3-1.3,2.3-1.8,3c-0.5,0.6-0.8,1-0.9,1c-0.2,0-0.2-0.2-0.2-0.7c0-0.5,0.3-1.2,0.8-2.3
				c0.5-1.1,1.2-2.4,2.1-4.1c0.9-1.7,1.6-3.3,2.2-4.7h-3.8c-0.1,0-0.2-0.1-0.2-0.3c0-0.2,0.1-0.5,0.4-0.9c0.3-0.4,0.5-0.6,0.7-0.6
				h4.3c2.7-6.5,5.5-9.8,8.3-9.8C148.6,42,149.5,41.9,149.7,41.9z"/>
			<path class="st6" d="M161.4,51.6l2.9,0.1h0.6c-0.6,0.4-1.4,1.6-2.4,3.7c-1,2-1.8,3.6-2.3,4.6c-0.5,1-1.1,2.4-1.7,4.2
				s-0.9,3.2-0.9,4.3c0,1.1,0.4,1.6,1.1,1.6c0.5,0,1.2-0.4,2.1-1c0.9-0.7,1.6-1.4,2.2-2.1c0.6-0.7,1.2-1.7,1.9-2.8
				c0.7-1.2,1.3-2.2,1.8-3c0.5-0.9,0.8-1.3,0.9-1.3c0.3,0,0.4,0.4,0.4,1.1s-0.2,1.4-0.6,2c-1.6,2.7-3,4.8-4,6.2
				c-1.1,1.4-2.3,2.8-3.8,3.9c-1.5,1.2-2.8,1.8-4.1,1.8c-2.2,0-3.2-1.6-3.2-4.8c0-2.2,0.4-4.6,1.2-7.3c0.8-2.7,2.1-5.4,3.7-7.9
				c-1.3,1.1-2.6,1.6-4,1.6c-0.4,0-0.9-0.1-1.3-0.3c-2.7,5.3-4.1,7.9-4.3,7.9s-0.3-0.3-0.3-0.9c0-0.6,0.2-1.5,0.7-2.6
				c0.5-1.1,1-2.2,1.5-3.2c0.5-1,0.8-1.6,0.9-1.7c-1.4-0.7-2-1.8-2-3.3c0-0.8,0.2-1.4,0.7-2c0.5-0.6,1.1-0.9,2-0.9
				c0.8,0,1.5,0.3,2,0.8c-0.1,0.2-0.1,0.6-0.1,1c0,1,0.4,1.8,1.1,2.4c0.7,0.6,1.6,0.9,2.7,0.9c0.3,0,0.5,0,0.7-0.1
				C158.7,52.6,160.1,51.6,161.4,51.6z"/>
			<path class="st6" d="M188.2,52.3h2.3c-1.2,0.7-2.4,2.5-3.6,5.3c-1,2.4-1.8,4.6-2.5,6.5c-0.7,1.9-1.1,3.1-1.2,3.5
				c-0.2,0.4-0.5,1.4-1.1,3c-0.5,1.6-1,2.8-1.3,3.7c-0.9,2.6-2,4.7-3.3,6.3c-1.2,1.6-2.8,2.8-4.7,3.7c-1.9,0.9-3.7,1.4-5.6,1.4
				c-1.9,0-3.5-0.4-4.9-1.1s-2-1.9-2-3.5c0-0.8,0.3-1.6,0.8-2.2c0.5-0.7,1.1-1,1.8-1c0.7,0,1.2,0.2,1.7,0.5c0.5,0.3,0.8,0.6,1,1
				c-0.7,0.2-1,1-1,2.4c0,0.7,0.3,1.3,0.8,1.7c0.5,0.4,1.2,0.7,2,0.7c3.1,0,5.6-2.7,7.7-8.2l3.2-8.6c-1.8,2.2-3.3,3.9-4.6,5
				c-1.3,1.1-2.3,1.8-3.1,2c-0.7,0.2-1.6,0.3-2.6,0.3c-1,0-1.8-0.4-2.4-1.2c-0.6-0.8-0.9-2-0.9-3.6c0-1.6,0.5-3.8,1.4-6.7
				c0.9-2.9,1.9-5.2,3-6.9c1.1-1.7,2.2-2.8,3.3-3.3c1.2-0.5,2.7-0.7,4.7-0.7c0.2,0,0.2,0.1,0.2,0.2c0,0.2-0.1,0.3-0.3,0.6
				c-1.6,1.4-3.1,3.8-4.7,7.3c-1.6,3.5-2.4,6.5-2.4,8.9c0,1.3,0.4,1.9,1.1,1.9c1.4,0,3.1-1.4,5.2-4.1c2.1-2.7,3.7-5.5,4.9-8.2
				c0.2-0.4,0.4-0.9,0.7-1.6c0.3-0.7,0.5-1.2,0.6-1.5c0.1-0.3,0.3-0.6,0.5-1.1c0.2-0.5,0.5-0.8,0.7-1c0.2-0.2,0.4-0.4,0.8-0.7
				c0.3-0.3,0.7-0.4,1-0.5C186.2,52.4,187.3,52.3,188.2,52.3z"/>
			<path class="st6" d="M245,42.9c-0.6,1.6-1.7,2.9-3.4,3.9c-1.6,1.1-3.4,1.6-5.1,1.6c-0.8,0-1.5-0.2-2-0.5
				c-0.5-0.4-0.8-0.8-0.8-1.4c0-0.6,0.2-1.2,0.7-1.8c0.4,0.2,0.9,0.2,1.4,0.2c1.5,0,2.8-0.5,4.1-1.5c1.2-1,1.9-2.3,1.9-3.7
				c0-2.2-1.5-3.3-4.4-3.3c-3.9,0-7.6,1.3-11.3,4c-3.7,2.6-6.6,6.1-8.9,10.3c-2.3,4.2-3.4,8.5-3.4,12.9c0,6.7,3.1,10.1,9.2,10.1
				c3.8,0,7.9-1.5,12.1-4.4c4.3-3,7.1-6.2,8.5-9.6c0.7,0.5,1.1,1.2,1.1,2c0,1.7-1.2,3.8-3.6,6.3c-2.4,2.5-5.5,4.5-9.1,6
				c-3.7,1.5-7.4,2.2-11.2,2.2c-8.9,0-13.3-4.1-13.3-12.4c0-3.1,0.7-6.4,2.1-9.9c1.4-3.4,3.3-6.6,5.7-9.5c2.4-2.9,5.4-5.3,8.9-7.2
				c3.6-1.9,7.1-2.8,10.6-2.8c3.5,0,6.2,0.6,8,1.8c1.9,1.2,2.8,2.7,2.8,4.6C245.5,41.3,245.3,42,245,42.9z"/>
			<path class="st6" d="M266.6,39.8c-1.4,2.8-3.4,5.9-6.2,9.4c-2.8,3.5-5.3,6.3-7.6,8.4l-0.9,2.6c-0.5,1.3-0.9,2.9-1.3,4.8
				c-0.4,1.9-0.6,3.2-0.6,4c0,1.1,0.4,1.7,1.2,1.7c0.8,0,1.8-0.5,3-1.4c1.2-0.9,2-1.8,2.5-2.5c0.5-0.7,1.1-1.6,1.8-2.8
				c0.7-1.1,1.3-2.1,1.8-3c0.5-0.8,0.8-1.2,0.9-1.2c0.2,0,0.3,0.4,0.3,1.1c0,0.7-0.2,1.4-0.6,2c-2.1,3.5-3.8,6-5.1,7.4
				c-2.6,2.9-5.3,4.3-8.1,4.3c-2.1,0-3.2-1.4-3.2-4.3c0-2.8,1.3-7.8,3.8-14.9c0.2-0.6,0.6-1.9,1.3-3.8c0.7-1.9,1.3-3.4,1.8-4.5
				c0.5-1.1,1.2-2.5,2-4.3c0.8-1.8,1.6-3.2,2.4-4.3c0.8-1.1,1.6-2.1,2.6-3.2c1.9-2.2,3.9-3.3,6-3.3c2.2,0,3.2,1,3.2,3
				C267.9,36.7,267.4,38.2,266.6,39.8z M265.4,33.6H265c-2.3,0-6,6.9-11.1,20.8c5.2-6.1,8.7-11.1,10.6-15c1.1-2.4,1.6-3.9,1.6-4.7
				S265.9,33.6,265.4,33.6z"/>
			<path class="st6" d="M280.6,51.6l2.7,0.1c0.6,0,0.9,0,1.1-0.1c-1.1,0.7-2.6,3.2-4.6,7.5c-2,4.3-3,7.4-3,9.3
				c0,1.1,0.4,1.7,1.1,1.7c0.5,0,1.2-0.3,2-1s1.6-1.4,2.2-2.1c0.6-0.8,1.3-1.7,2-2.9c0.7-1.1,1.3-2.1,1.8-3c0.5-0.8,0.8-1.2,0.9-1.2
				c0.2,0,0.3,0.4,0.3,1.1c0,0.7-0.2,1.4-0.6,2c-4.7,7.8-8.6,11.8-11.8,11.8c-2.1,0-3.2-1.6-3.2-4.7c0-1,0.1-1.9,0.2-2.8
				c-3.6,5-6.9,7.6-10.2,7.6c-0.9,0-1.7-0.4-2.3-1.2c-0.6-0.8-0.9-2-0.9-3.5c0-1.6,0.5-4.1,1.6-7.7c1.1-3.6,2.4-6.5,4-8.8
				c0.4-0.6,0.8-0.9,1.2-1.1c0.4-0.1,1.3-0.2,2.5-0.2h2.7c-0.9,1.3-2,3-3.1,5.2c-2.5,5.2-3.7,9-3.7,11.4c0,1.4,0.5,2.2,1.6,2.2
				c1,0,2.3-1,3.7-3c1.4-2,3-4.6,4.6-7.8c1.6-3.2,2.6-5,2.9-5.4C278,52.7,279.3,51.6,280.6,51.6z"/>
			<path class="st6" d="M312,59.9c0.2,0,0.3,0.4,0.3,1.1c0,0.7-0.1,1.2-0.3,1.6l-1.2,2.1c-1.9,3.1-3.4,5.1-4.5,6.1
				c-1.3,1.2-2.5,1.8-3.7,1.8c-1.6,0-2.6-0.7-3.2-2.2c-1.6,1.6-3.1,2.7-4.7,3.5s-3.4,1.2-5.3,1.2c-2,0-3.4-0.3-4.2-0.9
				c-0.8-0.6-1.2-1.7-1.2-3.1c0-1.5,0.2-3.1,0.7-5c1.2-5,3.1-10.9,5.9-17.6c2.8-6.8,4.9-10.3,6.5-10.8c0.5-0.1,1.4-0.2,2.7-0.2
				c1.3,0,2.1,0,2.4-0.1c-1.5,1.1-3.5,4.3-6,9.7c-2.5,5.3-4.4,10.5-5.7,15.4c4.1-7.2,7.9-10.8,11.6-10.8c2.6,0,3.9,1.8,3.9,5.5
				s-1.6,7.4-4.7,11.3c0,0.6,0.2,1.2,0.6,1.5c0.3,0.4,0.8,0.6,1.3,0.6c0.5,0,1.1-0.2,1.7-0.7c0.6-0.5,1.1-0.9,1.4-1.2
				c0.3-0.4,0.7-0.9,1.3-1.6c0.5-0.7,1.2-1.6,1.9-2.8c0.7-1.2,1.3-2.1,1.8-3C311.6,60.3,311.9,59.9,312,59.9z M299.4,56.3
				c-0.1,0-0.4-0.1-0.9-0.1c-0.5,0-1.4,0.5-2.7,1.5c-1.3,1-2.8,2.9-4.6,5.6c-1.7,2.8-2.6,5.1-2.6,6.9s0.5,2.7,1.6,2.7
				c2,0,4.2-1.9,6.5-5.8c2.3-3.9,3.5-6.9,3.5-9.2C300.2,57,299.9,56.5,299.4,56.3z"/>
		</g>
		<g>
			<path class="st2" d="M74.4,100.1c0,3.3-0.9,5.8-2.7,7.6s-4.5,2.6-7.9,2.6h-5.6v-20h6.2c3.2,0,5.7,0.9,7.4,2.6S74.4,97,74.4,100.1
				z M70.9,100.2c0-4.8-2.2-7.2-6.7-7.2h-2.8v14.5h2.3C68.5,107.5,70.9,105.1,70.9,100.2z"/>
			<path class="st2" d="M93.7,110.3l-2-5.6H84l-2,5.6h-3.4l7.5-20.1h3.6l7.5,20.1H93.7z M90.8,101.9l-1.9-5.4
				c-0.1-0.4-0.3-0.9-0.6-1.7S88,93.4,87.9,93c-0.2,1.1-0.6,2.3-1.1,3.7l-1.8,5.2H90.8z"/>
			<path class="st2" d="M108.1,99.4l4.7-9.1h3.6l-6.7,12.2v7.8h-3.3v-7.6l-6.6-12.3h3.6L108.1,99.4z"/>
			<path class="st2" d="M143.9,110.3l-2-5.6h-7.6l-2,5.6h-3.4l7.5-20.1h3.6l7.5,20.1H143.9z M141.1,101.9l-1.9-5.4
				c-0.1-0.4-0.3-0.9-0.6-1.7s-0.4-1.4-0.5-1.7c-0.2,1.1-0.6,2.3-1.1,3.7l-1.8,5.2H141.1z"/>
			<path class="st2" d="M161.2,92.8c-1.9,0-3.4,0.7-4.4,2s-1.6,3.2-1.6,5.5c0,2.5,0.5,4.3,1.6,5.6s2.5,1.9,4.5,1.9
				c0.8,0,1.7-0.1,2.5-0.3s1.6-0.4,2.5-0.6v2.8c-1.6,0.6-3.3,0.9-5.3,0.9c-2.9,0-5.2-0.9-6.7-2.7s-2.4-4.3-2.4-7.6
				c0-2.1,0.4-3.9,1.1-5.5s1.9-2.8,3.3-3.6s3.1-1.2,5.1-1.2c2,0,3.9,0.4,5.7,1.3l-1.2,2.7c-0.7-0.3-1.4-0.6-2.1-0.8
				S162,92.8,161.2,92.8z"/>
			<path class="st2" d="M180,110.3h-3.3V93.1h-5.9v-2.8h15v2.8H180V110.3z"/>
			<path class="st2" d="M191.5,110.3v-20h3.3v20H191.5z"/>
			<path class="st2" d="M214.1,90.3h3.4l-7,20H207l-7-20h3.4l4.2,12.4c0.2,0.6,0.5,1.4,0.7,2.3s0.4,1.6,0.5,2.1
				c0.1-0.7,0.3-1.5,0.5-2.4s0.4-1.6,0.6-2L214.1,90.3z"/>
			<path class="st2" d="M222.8,110.3v-20h3.3v20H222.8z"/>
			<path class="st2" d="M240.8,110.3h-3.3V93.1h-5.9v-2.8h15v2.8h-5.9V110.3z"/>
			<path class="st2" d="M258.1,99.4l4.7-9.1h3.6l-6.7,12.2v7.8h-3.3v-7.6l-6.6-12.3h3.6L258.1,99.4z"/>
		</g>
	</g>
</g>
</svg>
