<?xml version="1.0" encoding="utf-8"?>
<!-- Generator: Adobe Illustrator 25.2.0, SVG Export Plug-In . SVG Version: 6.00 Build 0)  -->
<svg version="1.1" id="Layer_1" xmlns="http://www.w3.org/2000/svg" xmlns:xlink="http://www.w3.org/1999/xlink" x="0px" y="0px"
	 viewBox="0 0 464.9 141" style="enable-background:new 0 0 464.9 141;" xml:space="preserve">
<style type="text/css">
	.st0{fill:#58595B;}
	.st1{fill:#FFFFFF;}
	.st2{fill:#F1A63A;}
	.st3{fill:none;}
	.st4{display:none;fill:none;stroke:#58595B;stroke-miterlimit:10;}
	.st5{display:none;fill:none;stroke:#00AEEF;stroke-width:0.25;stroke-miterlimit:10;}
	.st6{fill:#515251;}
	.st7{font-family:'Playball-Regular';}
	.st8{font-size:56.7757px;}
	.st9{font-family:'OpenSans-Semibold';}
	.st10{font-size:28px;}
	.st11{letter-spacing:2;}
	.st12{fill:#135F69;}
	.st13{fill:#F1F2F2;}
	.st14{fill:#F6B86F;}
	.st15{fill:#512951;}
	.st16{fill:#E6E7E8;}
</style>
<image style="display:none;overflow:visible;" width="480" height="640" xlink:href="7AFFA575.jpg"  transform="matrix(1.3177 0 0 1.3177 -107.7872 -1753.438)">
</image>
<polygon points="413.2,-1191.5 388.2,-1174.4 407.1,-1173.7 427.5,-1191.3 "/>
<polygon class="st0" points="421.9,-1197.4 434.9,-1197.2 444.9,-1209.7 436.2,-1210.9 "/>
<polygon class="st0" points="440.3,-1215.3 448.9,-1214.8 453.8,-1225.5 447.9,-1225.8 "/>
<polygon class="st0" points="452.5,-1238.3 450,-1230.1 454.8,-1229.6 455.8,-1238 "/>
<polygon class="st0" points="453.5,-1248 453,-1241.6 456.3,-1241.6 456.1,-1248.2 "/>
<polygon class="st0" points="451,-1257.4 452.5,-1252.6 454.8,-1252.6 453,-1257.4 "/>
<path class="st0" d="M446.6-1264.8c0.3,0.8,2.8,5.9,2.8,5.9s3.1-0.3,2.3-0.8S446.6-1264.8,446.6-1264.8z"/>
<g>
	<path class="st0" d="M470.6-1175.6c0.2-0.4,0.5-0.9,0.8-1.4c0.3-0.5,0.5-1,0.8-1.6c0.5-1.1,1-2.2,1.5-3.3c1-2.2,1.8-4.5,2.6-6.9
		c1.5-4.7,2.7-9.4,3.4-14.3c1.4-9.7,0.9-19.8-1.8-29.3c-0.6-2.4-1.5-4.7-2.4-7.1c-1-2.3-2-4.6-3.3-6.7c-1.1-2.2-2.6-4.3-3.9-6.4
		l-2.3-3c-0.4-0.5-0.7-1-1.1-1.5l-1.2-1.4c-6.5-7.8-14.5-14.4-23.1-20c9,4.9,17.6,10.9,24.9,18.3l1.4,1.4c0.4,0.5,0.9,1,1.3,1.5
		l2.6,3c1.6,2.1,3.3,4.1,4.6,6.4c1.5,2.2,2.7,4.5,4,6.8c1.1,2.4,2.3,4.8,3.2,7.3c3.8,10,5.2,20.9,4.6,31.6
		c-0.3,5.4-1.2,10.7-2.4,15.9c-0.6,2.6-1.4,5.2-2.2,7.8c-0.4,1.3-0.9,2.6-1.4,3.8c-0.2,0.6-0.5,1.3-0.8,1.9c-0.3,0.7-0.5,1.2-0.9,2
		L470.6-1175.6z"/>
</g>
<g>
	<path class="st0" d="M436.5-1276.3c0.6,2,0.9,4.1,1,6.2c0.2,2.1,0.2,4.2,0.1,6.3c-0.2,4.2-0.9,8.5-2.1,12.5
		c-1.2,4.1-2.8,8.1-4.8,11.9c-0.9,1.9-2.1,3.7-3.3,5.6c-0.5,0.9-1.2,1.8-1.8,2.6c-0.6,0.9-1.2,1.8-1.9,2.6
		c-5.3,6.8-11.6,12.7-18.5,17.9c-6.9,5.2-14.2,9.6-21.8,13.7c-15.2,7.9-31.4,13.8-47.7,18.6c-16.4,4.8-33.1,8.4-49.8,11.3l-2.1-15.9
		c16.5-1.6,32.9-3.8,49-7.1c16.1-3.3,32.1-7.8,47.2-14.2c7.5-3.3,14.8-7,21.8-11.4c6.9-4.4,13.3-9.6,18.8-15.6
		c0.7-0.8,1.3-1.6,2-2.3c0.6-0.8,1.4-1.5,1.9-2.4c1.2-1.7,2.5-3.3,3.5-5c2.3-3.4,4.1-7.1,5.5-11c1.5-3.8,2.5-7.9,3.1-12
		c0.2-2.1,0.4-4.1,0.4-6.2C437-1272.1,436.9-1274.2,436.5-1276.3z"/>
</g>
<rect x="251.1" y="-1194.6" class="st1" width="248.4" height="46.5"/>
<polygon class="st2" points="424.8,-1252.4 408.9,-1259.1 411.1,-1242 400.7,-1255.8 394.1,-1239.8 392,-1257 378.3,-1246.4 
	385.1,-1262.3 367.9,-1260.1 381.7,-1270.5 365.7,-1277.1 382.9,-1279.2 372.4,-1292.9 388.3,-1286.2 386,-1303.3 396.4,-1289.5 
	403,-1305.5 405.1,-1288.3 418.8,-1298.8 412.1,-1282.9 429.2,-1285.2 415.4,-1274.8 431.4,-1268.2 414.3,-1266.1 "/>
<circle class="st1" cx="398.6" cy="-1272.6" r="13.2"/>
<g>
	<path class="st3" d="M-49.4-964.9"/>
</g>
<path class="st0" d="M263.8-1131.5c-0.9-2.5-2.1-4.9-3.2-7.3c-1.3-2.3-2.5-4.7-4-6.8c-1.4-2.3-3.1-4.3-4.6-6.4l-2.6-3
	c-0.4-0.5-0.9-1-1.3-1.5l-1.4-1.4c-6.1-6.1-12.9-11.3-20.2-15.7c0,0,0,0,0,0c0,0.1-0.1,0.3-0.2,0.4c6.9,4.9,13.2,10.6,18.6,16.9
	l1.2,1.4c0.4,0.5,0.8,1,1.1,1.5l2.3,3c1.3,2.1,2.8,4.2,3.9,6.4c1.3,2.2,2.2,4.5,3.3,6.7c0.9,2.3,1.8,4.6,2.4,7.1
	c2.7,9.5,3.3,19.6,1.8,29.3c-0.3,2.1-0.7,4.2-1.2,6.3c-0.2,1.1,0.6,2.1,1.7,2.1h3.4c1.6,0,2.9-1.2,3.1-2.8c0.2-1.6,0.3-3.2,0.4-4.9
	C269.1-1110.6,267.6-1121.5,263.8-1131.5z"/>
<path class="st2" d="M204.1-1150.8l-13-5.5c-0.4-0.2-0.8,0.2-0.8,0.6l1.9,14c0.1,0.6-0.7,0.9-1,0.4l-8.5-11.3
	c-0.3-0.4-0.8-0.3-1,0.1l-5.4,13.1c-0.2,0.5-1,0.4-1.1-0.1l-1.7-14c-0.1-0.4-0.6-0.6-0.9-0.4l-11.2,8.6c-0.5,0.4-1.1-0.1-0.9-0.7
	l5.5-13c0.2-0.4-0.2-0.8-0.6-0.8l-14,1.9c-0.6,0.1-0.9-0.7-0.4-1l11.3-8.5c0.4-0.3,0.3-0.8-0.1-1l-13.1-5.4c-0.5-0.2-0.4-1,0.1-1.1
	l14-1.7c0.4-0.1,0.6-0.6,0.4-0.9l-8.6-11.2c-0.4-0.5,0.1-1.1,0.7-0.9l13,5.5c0.4,0.2,0.8-0.2,0.8-0.6l-1.9-14
	c-0.1-0.6,0.7-0.9,1-0.4l8.5,11.3c0.3,0.4,0.8,0.3,1-0.1l5.4-13.1c0.2-0.5,1-0.4,1.1,0.1l1.7,14c0.1,0.4,0.6,0.6,0.9,0.4l11.2-8.6
	c0.5-0.4,1.1,0.1,0.9,0.7l-5.5,13c-0.2,0.4,0.2,0.8,0.6,0.8l14-1.9c0.6-0.1,0.9,0.7,0.4,1l-11.3,8.5c-0.4,0.3-0.3,0.8,0.1,1
	l13.1,5.4c0.5,0.2,0.4,1-0.1,1.1l-14,1.7c-0.4,0.1-0.6,0.6-0.4,0.9l8.6,11.2C205.1-1151.2,204.6-1150.6,204.1-1150.8z"/>
<circle class="st1" cx="179.8" cy="-1170.3" r="13.2"/>
<path class="st0" d="M218.5-1170.2C218.5-1170.2,218.5-1170.2,218.5-1170.2c-0.1,0-0.2,0.1-0.3,0.2c0,0,0,0,0,0
	c0,0.8,0.1,1.6,0.1,2.4c0,2.1-0.2,4.2-0.4,6.2c-0.5,4.1-1.6,8.2-3.1,12c-1.5,3.8-3.3,7.6-5.5,11c-1,1.8-2.3,3.4-3.5,5
	c-0.6,0.8-1.3,1.6-1.9,2.4c-0.7,0.8-1.3,1.6-2,2.3c-5.6,6-12,11.2-18.8,15.6c-6.9,4.4-14.3,8.1-21.8,11.4c-2.8,1.2-5.7,2.3-8.5,3.3
	c-3.3,1.2-2.4,6.1,1.1,6.1h4.8c1,0,2-0.2,3-0.7c1-0.5,2.1-1,3.1-1.6c7.6-4.1,14.9-8.5,21.8-13.7c6.8-5.2,13.1-11.2,18.5-17.9
	c0.7-0.9,1.3-1.7,1.9-2.6c0.6-0.9,1.3-1.7,1.8-2.6c1.1-1.8,2.3-3.6,3.3-5.6c2.1-3.8,3.6-7.8,4.8-11.9c1.2-4.1,2-8.3,2.1-12.5
	c0.1-2.1,0.1-4.2-0.1-6.3C218.7-1168.5,218.6-1169.4,218.5-1170.2z"/>
<g>
	<path class="st3" d="M308.9-977.2"/>
</g>
<circle class="st4" cx="194.6" cy="-1109.6" r="70.5"/>
<circle class="st4" cx="136.2" cy="-1178.2" r="84"/>
<circle class="st5" cx="172.8" cy="-1138.6" r="61.8"/>
<circle class="st5" cx="169.4" cy="-1146" r="61.8"/>
<path class="st0" d="M218.4-1108.3c-3.9,5-8.5,9.5-13.7,13.1l11.1,0.9c0.1,0,0.1,0,0.2,0c1.5-1.5,2.9-3,4.3-4.6l0.5-0.6
	c2.1-2.6,4-5.3,5.6-8.2L218.4-1108.3z"/>
<path class="st0" d="M227-1123.3c-1.5,3.8-3.3,7.3-5.5,10.7l7.2,0.4c1.6-3.5,3-7.2,4-11L227-1123.3z"/>
<path class="st0" d="M230.7-1135.8c-0.1,0-0.2,0-0.3,0c-0.5,2.8-1.1,5.5-1.9,8.2l5,0.2c0.5-2.7,0.8-5.5,1-8.4L230.7-1135.8z"/>
<path class="st0" d="M234.5-1139.6c0-2.2-0.2-4.3-0.4-6.4l-2.8,0c0,0,0,0,0,0c0,2.2-0.1,4.3-0.3,6.4L234.5-1139.6z"/>
<path class="st0" d="M231.4-1150.1h2.1c-0.3-1.7-0.7-3.3-1.1-4.9l-1.6,0.1c0,0-0.1,0-0.1,0c0.2,1.5,0.4,3.1,0.5,4.7
	C231.2-1150.1,231.3-1150.1,231.4-1150.1z"/>
<path class="st0" d="M231.4-1158.1c-0.7-2.1-1.5-4.1-2.4-6c-0.1,0-0.1,0-0.2,0c-0.1,0-0.1,0-0.2,0c0,0,0,0,0,0
	c0.6,1.9,1.1,3.9,1.5,5.9C230.3-1158.1,230.9-1158.1,231.4-1158.1z"/>
<path class="st0" d="M67.5-1131.8c-0.9-2.5-2-4.8-3.1-7.2c-1.3-2.3-2.5-4.6-3.9-6.7c-1.3-2.2-3-4.2-4.5-6.3l-2.5-2.9
	c-0.4-0.5-0.8-1-1.3-1.4l-1.4-1.4c-6-6-12.7-11.1-19.9-15.4c0,0,0,0,0,0c0,0.1-0.1,0.3-0.2,0.4c6.7,4.8,12.9,10.3,18.2,16.6l1.2,1.4
	c0.4,0.5,0.7,1,1.1,1.5l2.2,3c1.3,2.1,2.7,4.1,3.8,6.3c1.2,2.1,2.2,4.4,3.2,6.6c0.9,2.3,1.7,4.6,2.4,6.9c2.7,9.4,3.2,19.2,1.8,28.7
	c-0.3,2.1-0.7,4.3-1.2,6.4c-0.2,0.9,0.5,1.8,1.4,1.8H70c0.6,0,1.2-0.5,1.3-1.1c0.3-2.1,0.5-4.3,0.6-6.4
	C72.6-1111.3,71.2-1122,67.5-1131.8z"/>
<path class="st2" d="M9-1150.8l-13-5.5c-0.4-0.2-0.8,0.2-0.8,0.6l1.9,14c0.1,0.6-0.7,0.9-1,0.4l-8.5-11.3c-0.3-0.4-0.8-0.3-1,0.1
	l-5.4,13.1c-0.2,0.5-1,0.4-1.1-0.1l-1.7-14c-0.1-0.4-0.6-0.6-0.9-0.4l-11.2,8.6c-0.5,0.4-1.1-0.1-0.9-0.7l5.5-13
	c0.2-0.4-0.2-0.8-0.6-0.8l-14,1.9c-0.6,0.1-0.9-0.7-0.4-1l11.3-8.5c0.4-0.3,0.3-0.8-0.1-1l-13.1-5.4c-0.5-0.2-0.4-1,0.1-1.1l14-1.7
	c0.4-0.1,0.6-0.6,0.4-0.9l-8.6-11.2c-0.4-0.5,0.1-1.1,0.7-0.9l13,5.5c0.4,0.2,0.8-0.2,0.8-0.6l-1.9-14c-0.1-0.6,0.7-0.9,1-0.4
	l8.5,11.3c0.3,0.4,0.8,0.3,1-0.1l5.4-13.1c0.2-0.5,1-0.4,1.1,0.1l1.7,14c0.1,0.4,0.6,0.6,0.9,0.4l11.2-8.6c0.5-0.4,1.1,0.1,0.9,0.7
	l-5.5,13c-0.2,0.4,0.2,0.8,0.6,0.8l14-1.9c0.6-0.1,0.9,0.7,0.4,1L2.4-1173c-0.4,0.3-0.3,0.8,0.1,1l13.1,5.4c0.5,0.2,0.4,1-0.1,1.1
	l-14,1.7c-0.4,0.1-0.6,0.6-0.4,0.9l8.6,11.2C10-1151.2,9.5-1150.6,9-1150.8z"/>
<circle class="st1" cx="-15.2" cy="-1170.3" r="13.2"/>
<path class="st0" d="M25.5-1171.2C25.5-1171.2,25.4-1171.2,25.5-1171.2c-0.1,0-0.2,0.1-0.3,0.2c0,0,0,0,0,0c0,0.8,0.1,1.6,0.1,2.4
	c0,2.1-0.2,4.2-0.4,6.2c-0.5,4.1-1.6,8.2-3.1,12c-1.5,3.8-3.3,7.6-5.5,11c-1,1.8-2.3,3.4-3.5,5c-0.6,0.8-1.3,1.6-1.9,2.4
	c-0.7,0.8-1.3,1.6-2,2.3c-5.6,6-12,11.2-18.8,15.6c-6.9,4.4-14.3,8.1-21.8,11.4c-6.3,2.6-12.6,4.9-19.1,6.9
	c-1.4,0.4-1.1,2.5,0.4,2.5l16.3,0c0.9,0,1.8-0.2,2.6-0.6c1.1-0.5,2.2-1.1,3.3-1.6c7.6-4.1,14.9-8.5,21.8-13.7
	c6.8-5.2,13.1-11.2,18.5-17.9c0.7-0.9,1.3-1.7,1.9-2.6c0.6-0.9,1.3-1.7,1.8-2.6c1.1-1.8,2.3-3.6,3.3-5.6c2.1-3.8,3.6-7.8,4.8-11.9
	c1.2-4.1,2-8.3,2.1-12.5c0.1-2.1,0.1-4.2-0.1-6.3C25.7-1169.5,25.6-1170.4,25.5-1171.2z"/>
<path class="st0" d="M22.2-1108.1c-3.6,4.6-7.8,8.7-12.6,12.2c-0.3,0.2-0.2,0.8,0.2,0.8l9.3,0.7c0.5,0,0.9-0.1,1.2-0.5
	c1.6-1.7,4.3-4.7,4.3-4.7c2-2.5,3.8-5.1,5.4-7.8c0.1-0.2,0-0.4-0.2-0.4l-7.3-0.5C22.4-1108.3,22.3-1108.2,22.2-1108.1z"/>
<path class="st0" d="M30.8-1123c-1.4,3.4-3,6.7-5,9.7c-0.2,0.3,0,0.7,0.4,0.7l5.9,0.3c0.3,0,0.6-0.2,0.7-0.4
	c1.5-3.2,2.7-6.5,3.6-9.9c0.1-0.3-0.1-0.6-0.4-0.6l-4.7-0.1C31-1123.3,30.8-1123.2,30.8-1123z"/>
<path class="st0" d="M34.7-1135.8c-0.1,0-0.2,0-0.2,0.1c0,0.1-0.1,0.1-0.1,0.2c-0.4,2.6-1,5.1-1.8,7.6c-0.1,0.2,0.1,0.4,0.3,0.4
	l4.4,0.2c0.2,0,0.3-0.1,0.3-0.3c0.5-2.5,0.8-5.1,0.9-7.7c0-0.2-0.1-0.3-0.3-0.3L34.7-1135.8z"/>
<path class="st0" d="M38.5-1140c0-2-0.2-3.9-0.4-5.8c0-0.2-0.2-0.3-0.3-0.3c-0.3,0-0.7,0-1,0c-0.4,0-0.8,0-1.3,0
	c-0.1,0-0.2,0-0.2,0.1c0,0,0,0.1,0,0.2c0,1,0,1.9-0.1,2.9c0,1-0.1,1.9-0.2,2.9c0,0,0,0.1,0,0.1c0,0.2,0.1,0.4,0.3,0.4l2.9,0
	C38.3-1139.6,38.5-1139.8,38.5-1140z"/>
<path class="st0" d="M36.3-1154.8c0-0.1-0.1-0.2-0.2-0.2c0,0-1.3,0.1-1.3,0.1c-0.1,0-0.2,0.2-0.2,0.3c0.1,0.5,0.1,0.9,0.2,1.4
	c0.1,0.5,0.1,1,0.2,1.5c0,0.5,0.1,1,0.1,1.5c0,0.1,0.2,0.2,0.3,0.2h1.8c0.1,0,0.3-0.1,0.2-0.3C37.1-1151.9,36.7-1153.3,36.3-1154.8z
	"/>
<path class="st0" d="M33.4-1163C33.4-1163,33.4-1163,33.4-1163c-0.1-0.1-0.2,0-0.3,0c0,0-0.1,0-0.1,0c-0.1,0-0.1,0-0.2,0.1
	c0,0.1,0,0.1,0,0.2c0,0.1,0,0.2,0.1,0.2c0,0.2,0.1,0.3,0.1,0.5c0.1,0.3,0.2,0.6,0.2,0.9c0.1,0.3,0.2,0.6,0.2,0.9
	c0.1,0.3,0.1,0.6,0.2,1c0,0.2,0.1,0.3,0.1,0.5c0,0.1,0,0.2,0.1,0.2c0,0,0,0.1,0,0.1c0,0,0,0.1,0,0.1c0,0,0.1,0.1,0.1,0.1
	c0,0,0,0,0.1,0c0.1,0,0.1,0,0.2,0c0.1,0,0.3,0,0.4,0c0,0,0.1,0,0.1,0c0,0,0.1,0,0.2,0c0.1,0,0.1-0.1,0.1-0.1c0,0,0-0.1,0-0.1
	c0,0,0-0.1,0-0.1c0-0.1-0.1-0.2-0.1-0.2c-0.1-0.2-0.1-0.3-0.2-0.5c0,0,0,0,0,0c-0.1-0.3-0.2-0.6-0.3-0.9c-0.1-0.3-0.2-0.6-0.3-0.9
	c-0.1-0.3-0.2-0.6-0.4-0.9c-0.1-0.3-0.2-0.6-0.4-0.9C33.5-1162.8,33.5-1162.9,33.4-1163C33.5-1162.9,33.4-1163,33.4-1163z"/>
<g>
	<g>
		<text transform="matrix(1 0 0 1 1135.1517 -73.2997)" class="st6 st7 st8">Country Club</text>
		<g>
			<text transform="matrix(1 0 0 1 1174.9353 -37.4735)" class="st2 st9 st10 st11">Day Activity</text>
		</g>
	</g>
	<g>
		<path class="st2" d="M1282.4-183.5l-13-5.5c-0.4-0.2-0.8,0.2-0.8,0.6l1.9,14c0.1,0.6-0.7,0.9-1,0.4l-8.5-11.3
			c-0.3-0.4-0.8-0.3-1,0.1l-5.4,13.1c-0.2,0.5-1,0.4-1.1-0.1l-1.7-14c-0.1-0.4-0.6-0.6-0.9-0.4l-11.2,8.6c-0.5,0.4-1.1-0.1-0.9-0.7
			l5.5-13c0.2-0.4-0.2-0.8-0.6-0.8l-14,1.9c-0.6,0.1-0.9-0.7-0.4-1l11.3-8.5c0.4-0.3,0.3-0.8-0.1-1l-13.1-5.4
			c-0.5-0.2-0.4-1,0.1-1.1l14-1.7c0.4-0.1,0.6-0.6,0.4-0.9l-8.6-11.2c-0.4-0.5,0.1-1.1,0.7-0.9l13,5.5c0.4,0.2,0.8-0.2,0.8-0.6
			l-1.9-14c-0.1-0.6,0.7-0.9,1-0.4l8.5,11.3c0.3,0.4,0.8,0.3,1-0.1l5.4-13.1c0.2-0.5,1-0.4,1.1,0.1l1.7,14c0.1,0.4,0.6,0.6,0.9,0.4
			l11.2-8.6c0.5-0.4,1.1,0.1,0.9,0.7l-5.5,13c-0.2,0.4,0.2,0.8,0.6,0.8l14-1.9c0.6-0.1,0.9,0.7,0.4,1l-11.3,8.5
			c-0.4,0.3-0.3,0.8,0.1,1l13.1,5.4c0.5,0.2,0.4,1-0.1,1.1l-14,1.7c-0.4,0.1-0.6,0.6-0.4,0.9l8.6,11.2
			C1283.4-183.9,1282.9-183.3,1282.4-183.5z"/>
		<circle class="st1" cx="1258.1" cy="-203" r="13.2"/>
		<g>
			<path class="st6" d="M1340.8-164.5c-0.9-2.5-2-4.8-3.1-7.2c-1.3-2.3-2.5-4.6-3.9-6.7c-1.3-2.2-3-4.2-4.5-6.3l-2.5-2.9
				c-0.4-0.5-0.8-1-1.3-1.4l-1.4-1.4c-6-6-12.7-11.1-19.9-15.4c0,0,0,0,0,0c0,0.1-0.1,0.3-0.2,0.4c6.7,4.8,12.9,10.3,18.2,16.6
				l1.2,1.4c0.4,0.5,0.7,1,1.1,1.5l2.2,3c1.3,2.1,2.7,4.1,3.8,6.3c1.2,2.1,2.2,4.4,3.2,6.6c0.9,2.3,1.7,4.6,2.4,6.9
				c2.7,9.4,3.2,19.2,1.8,28.7c-0.3,2.1-0.7,4.3-1.2,6.4c-0.2,0.9,0.5,1.8,1.4,1.8h5.2c0.6,0,1.2-0.5,1.3-1.1
				c0.3-2.1,0.5-4.3,0.6-6.4C1345.9-144,1344.5-154.7,1340.8-164.5z"/>
			<path class="st6" d="M1298.8-203.9C1298.8-203.9,1298.8-203.9,1298.8-203.9c-0.1,0-0.2,0.1-0.3,0.2c0,0,0,0,0,0
				c0,0.8,0.1,1.6,0.1,2.4c0,2.1-0.2,4.2-0.4,6.2c-0.5,4.1-1.6,8.2-3.1,12c-1.5,3.8-3.3,7.6-5.5,11c-1,1.8-2.3,3.4-3.5,5
				c-0.6,0.8-1.3,1.6-1.9,2.4c-0.7,0.8-1.3,1.6-2,2.3c-5.6,6-12,11.2-18.8,15.6c-6.9,4.4-14.3,8.1-21.8,11.4
				c-6.3,2.6-12.6,4.9-19.1,6.9c-1.4,0.4-1.1,2.5,0.4,2.5l16.3,0c0.9,0,1.8-0.2,2.6-0.6c1.1-0.5,2.2-1.1,3.3-1.6
				c7.6-4.1,14.9-8.5,21.8-13.7c6.8-5.2,13.1-11.2,18.5-17.9c0.7-0.9,1.3-1.7,1.9-2.6c0.6-0.9,1.3-1.7,1.8-2.6
				c1.1-1.8,2.3-3.6,3.3-5.6c2.1-3.8,3.6-7.8,4.8-11.9c1.2-4.1,2-8.3,2.1-12.5c0.1-2.1,0.1-4.2-0.1-6.3
				C1299-202.2,1298.9-203.1,1298.8-203.9z"/>
			<path class="st6" d="M1295.6-140.8c-3.6,4.6-7.8,8.7-12.6,12.2c-0.3,0.2-0.2,0.8,0.2,0.8l9.3,0.7c0.5,0,0.9-0.1,1.2-0.5
				c1.6-1.7,4.3-4.7,4.3-4.7c2-2.5,3.8-5.1,5.4-7.8c0.1-0.2,0-0.4-0.2-0.4l-7.3-0.5C1295.8-141,1295.6-140.9,1295.6-140.8z"/>
			<path class="st6" d="M1304.1-155.7c-1.4,3.4-3,6.7-5,9.7c-0.2,0.3,0,0.7,0.4,0.7l5.9,0.3c0.3,0,0.6-0.2,0.7-0.4
				c1.5-3.2,2.7-6.5,3.6-9.9c0.1-0.3-0.1-0.6-0.4-0.6l-4.7-0.1C1304.4-156,1304.2-155.9,1304.1-155.7z"/>
			<path class="st6" d="M1308-168.5c-0.1,0-0.2,0-0.2,0.1c0,0.1-0.1,0.1-0.1,0.2c-0.4,2.6-1,5.1-1.8,7.6c-0.1,0.2,0.1,0.4,0.3,0.4
				l4.4,0.2c0.2,0,0.3-0.1,0.3-0.3c0.5-2.5,0.8-5.1,0.9-7.7c0-0.2-0.1-0.3-0.3-0.3L1308-168.5z"/>
			<path class="st6" d="M1311.8-172.7c0-2-0.2-3.9-0.4-5.8c0-0.2-0.2-0.3-0.3-0.3c-0.3,0-0.7,0-1,0c-0.4,0-0.8,0-1.3,0
				c-0.1,0-0.2,0-0.2,0.1c0,0,0,0.1,0,0.2c0,1,0,1.9-0.1,2.9c0,1-0.1,1.9-0.2,2.9c0,0,0,0.1,0,0.1c0,0.2,0.1,0.4,0.3,0.4l2.9,0
				C1311.7-172.3,1311.8-172.5,1311.8-172.7z"/>
			<path class="st6" d="M1309.7-187.5c0-0.1-0.1-0.2-0.2-0.2c0,0-1.3,0.1-1.3,0.1c-0.1,0-0.2,0.2-0.2,0.3c0.1,0.5,0.1,0.9,0.2,1.4
				c0.1,0.5,0.1,1,0.2,1.5c0,0.5,0.1,1,0.1,1.5c0,0.1,0.2,0.2,0.3,0.2h1.8c0.1,0,0.3-0.1,0.2-0.3
				C1310.4-184.5,1310.1-186,1309.7-187.5z"/>
			<path class="st6" d="M1306.8-195.7C1306.8-195.7,1306.7-195.7,1306.8-195.7c-0.1-0.1-0.2,0-0.3,0c0,0-0.1,0-0.1,0
				c-0.1,0-0.1,0-0.2,0.1c0,0.1,0,0.1,0,0.2c0,0.1,0,0.2,0.1,0.2c0,0.2,0.1,0.3,0.1,0.5c0.1,0.3,0.2,0.6,0.2,0.9
				c0.1,0.3,0.2,0.6,0.2,0.9c0.1,0.3,0.1,0.6,0.2,1c0,0.2,0.1,0.3,0.1,0.5c0,0.1,0,0.2,0.1,0.2c0,0,0,0.1,0,0.1c0,0,0,0.1,0,0.1
				c0,0,0.1,0.1,0.1,0.1c0,0,0,0,0.1,0c0.1,0,0.1,0,0.2,0c0.1,0,0.3,0,0.4,0c0,0,0.1,0,0.1,0c0,0,0.1,0,0.2,0c0.1,0,0.1-0.1,0.1-0.1
				c0,0,0-0.1,0-0.1c0,0,0-0.1,0-0.1c0-0.1-0.1-0.2-0.1-0.2c-0.1-0.2-0.1-0.3-0.2-0.5c0,0,0,0,0,0c-0.1-0.3-0.2-0.6-0.3-0.9
				c-0.1-0.3-0.2-0.6-0.3-0.9c-0.1-0.3-0.2-0.6-0.4-0.9c-0.1-0.3-0.2-0.6-0.4-0.9C1306.9-195.5,1306.8-195.6,1306.8-195.7
				C1306.8-195.6,1306.8-195.7,1306.8-195.7z"/>
		</g>
	</g>
</g>
<g>
	<g>
		<text transform="matrix(1 0 0 1 145.9537 73.2061)" class="st6 st7 st8">Country Club</text>
		<g>
			<text transform="matrix(1 0 0 1 185.7373 109.0327)" class="st2 st9 st10 st11">Day Activity</text>
		</g>
	</g>
	<g>
		<circle class="st12" cx="74.3" cy="71" r="48.2"/>
		<path class="st13" d="M116.3,94.7c-0.4-4.2-1.4-8.3-2.8-12.2c-0.6-1.7-1.4-3.3-2.1-4.9c-0.9-1.5-1.7-3.1-2.7-4.6
			c-0.9-1.5-2-2.9-3.1-4.3l-1.7-2c-0.3-0.3-0.6-0.7-0.9-1L102,65c-4-4.1-8.6-7.5-13.5-10.4c0,0,0,0,0,0c0,0.1-0.1,0.2-0.1,0.3
			c4.6,3.3,8.8,7,12.4,11.3l0.8,1c0.3,0.3,0.5,0.7,0.8,1l1.5,2c0.9,1.4,1.9,2.8,2.6,4.3c0.8,1.4,1.5,3,2.2,4.5
			c0.6,1.6,1.2,3.1,1.6,4.7c1.7,5.8,2.1,11.9,1.4,17.8C113.4,99.3,114.9,97.1,116.3,94.7z"/>
		<path class="st14" d="M73.5,69.7l-8-3.4c-0.2-0.1-0.5,0.1-0.5,0.4l1.1,8.6c0,0.4-0.4,0.5-0.6,0.3l-5.2-6.9
			c-0.2-0.2-0.5-0.2-0.6,0.1l-3.3,8c-0.1,0.3-0.6,0.3-0.7-0.1L54.6,68c0-0.3-0.3-0.4-0.6-0.2L47.1,73c-0.3,0.2-0.7-0.1-0.5-0.4
			l3.4-8c0.1-0.2-0.1-0.5-0.4-0.5L41,65.3c-0.4,0-0.5-0.4-0.3-0.6l6.9-5.2c0.2-0.2,0.2-0.5-0.1-0.6l-8-3.3c-0.3-0.1-0.3-0.6,0.1-0.7
			l8.6-1.1c0.3,0,0.4-0.3,0.2-0.6l-5.3-6.9c-0.2-0.3,0.1-0.7,0.4-0.5l8,3.4c0.2,0.1,0.5-0.1,0.5-0.4L51,40.1c0-0.4,0.4-0.5,0.6-0.3
			l5.2,6.9c0.2,0.2,0.5,0.2,0.6-0.1l3.3-8c0.1-0.3,0.6-0.3,0.7,0.1l1.1,8.6c0,0.3,0.3,0.4,0.6,0.2l6.9-5.3c0.3-0.2,0.7,0.1,0.5,0.4
			l-3.4,8c-0.1,0.2,0.1,0.5,0.4,0.5l8.6-1.1c0.4,0,0.5,0.4,0.3,0.6L69.4,56c-0.2,0.2-0.2,0.5,0.1,0.6l8,3.3c0.3,0.1,0.3,0.6-0.1,0.7
			l-8.6,1.1c-0.3,0-0.4,0.3-0.2,0.6l5.3,6.9C74.1,69.4,73.8,69.8,73.5,69.7z"/>
		<circle class="st1" cx="58.6" cy="57.7" r="8.1"/>
		<path class="st13" d="M84.9,55.8C84.9,55.8,84.9,55.8,84.9,55.8c-0.1,0-0.1,0.1-0.2,0.1c0,0,0,0,0,0c0,0.5,0.1,1.1,0.1,1.6
			c0,1.4-0.1,2.8-0.3,4.2c-0.4,2.8-1.1,5.5-2.1,8.2c-1,2.6-2.2,5.1-3.8,7.5c-0.7,1.2-1.6,2.3-2.4,3.4c-0.4,0.6-0.9,1.1-1.3,1.6
			c-0.5,0.5-0.9,1.1-1.4,1.6c-3.8,4.1-8.1,7.6-12.8,10.6c-4.7,3-9.7,5.5-14.8,7.7c-2,0.8-4.1,1.6-6.1,2.4c1.4,1.4,2.9,2.8,4.5,4
			c0.6,0,1.2-0.1,1.7-0.4c0.7-0.4,1.5-0.7,2.2-1.1c5.1-2.8,10.1-5.8,14.8-9.3c4.6-3.5,8.9-7.6,12.5-12.2c0.4-0.6,0.9-1.2,1.3-1.8
			c0.4-0.6,0.9-1.2,1.2-1.8c0.8-1.3,1.6-2.5,2.2-3.8c1.4-2.6,2.5-5.3,3.3-8.1c0.8-2.8,1.3-5.6,1.5-8.5c0-1.4,0.1-2.9-0.1-4.3
			C85.1,56.9,85,56.3,84.9,55.8z"/>
		<path class="st13" d="M82.7,98.6c-2.4,3.1-5.3,5.9-8.6,8.3c-0.2,0.2-0.1,0.5,0.2,0.6l6.3,0.5c0.3,0,0.6-0.1,0.8-0.3
			c1.1-1.1,2.9-3.2,2.9-3.2c1.4-1.7,2.6-3.4,3.7-5.3c0.1-0.1,0-0.3-0.1-0.3l-4.9-0.3C82.9,98.5,82.8,98.5,82.7,98.6z"/>
		<path class="st13" d="M88.5,88.5c-0.9,2.3-2.1,4.5-3.4,6.6c-0.1,0.2,0,0.5,0.2,0.5l4,0.2c0.2,0,0.4-0.1,0.5-0.3
			c1-2.2,1.8-4.4,2.4-6.8c0.1-0.2-0.1-0.4-0.3-0.4l-3.2-0.1C88.7,88.3,88.6,88.4,88.5,88.5z"/>
		<path class="st13" d="M91.2,79.8c-0.1,0-0.1,0-0.2,0c0,0,0,0.1-0.1,0.1c-0.3,1.8-0.7,3.5-1.2,5.1c0,0.1,0.1,0.3,0.2,0.3l3,0.1
			c0.1,0,0.2-0.1,0.2-0.2c0.3-1.7,0.5-3.5,0.6-5.3c0-0.1-0.1-0.2-0.2-0.2L91.2,79.8z"/>
		<path class="st13" d="M93.7,77c0-1.3-0.1-2.6-0.3-3.9c0-0.1-0.1-0.2-0.2-0.2c-0.2,0-0.5,0-0.7,0c-0.3,0-0.6,0-0.9,0
			c-0.1,0-0.1,0-0.2,0.1c0,0,0,0.1,0,0.1c0,0.6,0,1.3,0,1.9c0,0.6-0.1,1.3-0.1,1.9c0,0,0,0,0,0.1c0,0.1,0.1,0.2,0.2,0.2l2,0
			C93.6,77.2,93.7,77.1,93.7,77z"/>
		<path class="st13" d="M92.3,66.9c0-0.1-0.1-0.1-0.2-0.1c0,0-0.9,0-0.9,0c-0.1,0-0.1,0.1-0.1,0.2c0,0.3,0.1,0.6,0.1,0.9
			c0,0.3,0.1,0.7,0.1,1c0,0.3,0.1,0.7,0.1,1c0,0.1,0.1,0.2,0.2,0.2h1.2c0.1,0,0.2-0.1,0.2-0.2C92.8,68.9,92.6,67.9,92.3,66.9z"/>
		<path class="st13" d="M90.3,61.4C90.3,61.4,90.3,61.3,90.3,61.4c-0.1,0-0.1,0-0.2,0c0,0-0.1,0-0.1,0c0,0-0.1,0-0.1,0.1
			c0,0,0,0.1,0,0.1c0,0.1,0,0.1,0,0.2c0,0.1,0.1,0.2,0.1,0.3c0.1,0.2,0.1,0.4,0.2,0.6c0.1,0.2,0.1,0.4,0.2,0.6
			c0.1,0.2,0.1,0.4,0.1,0.6c0,0.1,0,0.2,0.1,0.3c0,0.1,0,0.1,0,0.2c0,0,0,0.1,0,0.1c0,0,0,0.1,0,0.1c0,0,0,0,0.1,0c0,0,0,0,0.1,0
			c0,0,0.1,0,0.1,0c0.1,0,0.2,0,0.3,0c0,0,0.1,0,0.1,0c0,0,0.1,0,0.1,0c0,0,0.1,0,0.1-0.1c0,0,0,0,0-0.1c0,0,0,0,0-0.1
			c0-0.1,0-0.1-0.1-0.2c0-0.1-0.1-0.2-0.1-0.3c0,0,0,0,0,0c-0.1-0.2-0.2-0.4-0.2-0.6c-0.1-0.2-0.2-0.4-0.2-0.6
			c-0.1-0.2-0.2-0.4-0.2-0.6c-0.1-0.2-0.2-0.4-0.3-0.6C90.4,61.5,90.4,61.4,90.3,61.4C90.3,61.4,90.3,61.4,90.3,61.4z"/>
	</g>
</g>
<g>
	<g>
		<g>
			<path class="st6" d="M-325.6,42.9c-0.6,1.6-1.7,2.9-3.4,3.9c-1.6,1.1-3.4,1.6-5.1,1.6c-0.8,0-1.5-0.2-2-0.5
				c-0.5-0.4-0.8-0.8-0.8-1.4c0-0.6,0.2-1.2,0.7-1.8c0.4,0.2,0.9,0.2,1.4,0.2c1.5,0,2.8-0.5,4.1-1.5c1.2-1,1.9-2.3,1.9-3.7
				c0-2.2-1.5-3.3-4.4-3.3c-3.9,0-7.6,1.3-11.3,4c-3.7,2.6-6.6,6.1-8.9,10.3c-2.3,4.2-3.4,8.5-3.4,12.9c0,6.7,3.1,10.1,9.2,10.1
				c3.8,0,7.9-1.5,12.1-4.4c4.3-3,7.1-6.2,8.5-9.6c0.7,0.5,1.1,1.2,1.1,2c0,1.7-1.2,3.8-3.6,6.3c-2.4,2.5-5.5,4.5-9.1,6
				c-3.7,1.5-7.4,2.2-11.2,2.2c-8.9,0-13.3-4.1-13.3-12.4c0-3.1,0.7-6.4,2.1-9.9c1.4-3.4,3.3-6.6,5.7-9.5c2.4-2.9,5.4-5.3,8.9-7.2
				c3.6-1.9,7.1-2.8,10.6-2.8c3.5,0,6.2,0.6,8,1.8c1.9,1.2,2.8,2.7,2.8,4.6C-325.2,41.3-325.3,42-325.6,42.9z"/>
			<path class="st6" d="M-298.3,60.5c0.1-0.2,0.2-0.3,0.3-0.3c0.2,0,0.3,0.3,0.3,0.9c0,1.8-0.7,3.3-2.2,4.5
				c-1.5,1.2-2.8,1.8-4.1,1.8c-1.3,0-2.4-0.4-3.3-1.1c-1.4,2.7-3,4.8-4.9,6.4c-1.9,1.6-4.3,2.3-7.2,2.3c-1.9,0-3.4-0.6-4.6-1.7
				c-1.2-1.2-1.8-2.9-1.8-5.3c0-2.4,0.5-4.8,1.6-7.3c1.1-2.5,2.7-4.7,4.9-6.5c2.2-1.8,4.6-2.7,7.3-2.7c4.5,0,6.8,2.4,6.8,7.2
				c0,1.8-0.4,3.7-1.2,5.7c0.6,0.8,1.4,1.2,2.4,1.2C-301.9,65.4-300.1,63.8-298.3,60.5z M-307.8,57c-0.2-2-1.1-3-2.7-3
				c-2.6,0-5.2,2.5-7.7,7.6c-1.4,2.8-2,5.3-2,7.6c0,2.3,1,3.5,3,3.6c1.6,0,3.1-0.9,4.5-2.6c1.4-1.7,2.5-3.6,3.5-5.7
				c-1.3-1.1-1.9-2.5-1.9-4.1c0-1,0.3-1.8,0.8-2.4c0.5-0.6,1.3-0.9,2.2-0.9H-307.8z"/>
			<path class="st6" d="M-278.6,51.6l2.7,0.1c0.6,0,0.9,0,1.1-0.1c-1.1,0.7-2.6,3.2-4.6,7.5c-2,4.3-3,7.4-3,9.3
				c0,1.1,0.4,1.7,1.1,1.7c0.5,0,1.2-0.3,2-1s1.6-1.4,2.2-2.1c0.6-0.8,1.3-1.7,2-2.9c0.7-1.1,1.3-2.1,1.8-3c0.5-0.8,0.8-1.2,0.9-1.2
				c0.2,0,0.3,0.4,0.3,1.1c0,0.7-0.2,1.4-0.6,2c-4.7,7.8-8.6,11.8-11.8,11.8c-2.1,0-3.2-1.6-3.2-4.7c0-1,0.1-1.9,0.2-2.8
				c-3.6,5-6.9,7.6-10.2,7.6c-0.9,0-1.7-0.4-2.3-1.2c-0.6-0.8-0.9-2-0.9-3.5c0-1.6,0.5-4.1,1.6-7.7c1.1-3.6,2.4-6.5,4-8.8
				c0.4-0.6,0.8-0.9,1.2-1.1c0.4-0.1,1.3-0.2,2.5-0.2h2.7c-0.9,1.3-2,3-3.1,5.2c-2.5,5.2-3.7,9-3.7,11.4c0,1.4,0.5,2.2,1.6,2.2
				c1,0,2.3-1,3.7-3c1.4-2,3-4.6,4.6-7.8c1.6-3.2,2.6-5,2.9-5.4C-281.2,52.7-279.9,51.6-278.6,51.6z"/>
			<path class="st6" d="M-247.8,63c-1.4,2.3-2.7,4.3-3.8,5.9c-1.2,1.6-2.5,2.9-3.9,4.1c-1.5,1.2-2.8,1.8-4,1.8
				c-2.2,0-3.3-1.2-3.3-3.7c0-2.5,1.4-7.4,4.3-14.8c0.2-0.3,0.2-0.7,0.2-1.1c0-0.8-0.5-1.2-1.5-1.2c-1,0-2,0.3-3,0.9
				c-1,0.6-1.8,1.5-2.6,2.7c-0.8,1.2-1.5,2.3-2.2,3.5c-0.6,1.2-1.2,2.6-1.8,4.1c-0.5,1.6-1,2.8-1.3,3.9c-0.3,1-0.6,2.2-1,3.3
				c-0.3,1.2-0.5,1.8-0.5,2h-5.5c0-0.8,1.7-5.4,5-13.7c1.4-3.9,2-6.6,2-8.2c0-0.4-0.1-0.7-0.2-0.9h2.4c1.3,0,2.2,0.1,2.6,0.4
				c0.4,0.3,0.6,0.6,0.6,1.1s-0.2,1.4-0.6,2.8c3.2-3,6.4-4.5,9.6-4.5c2.2,0,3.2,1,3.2,3c0,0.6-0.1,1.3-0.3,1.9
				c-0.2,0.6-0.7,1.9-1.4,3.9c-1.7,4.2-2.5,7.1-2.5,8.5c0,0.9,0.3,1.4,1,1.4c0.5,0,1.2-0.3,2.1-1c0.9-0.7,1.6-1.4,2.2-2.1
				c0.6-0.7,1.2-1.7,1.9-2.8c0.7-1.1,1.3-2.1,1.8-2.9c0.5-0.8,0.8-1.2,0.9-1.2c0.2,0,0.3,0.4,0.3,1.1
				C-247.3,61.7-247.5,62.4-247.8,63z"/>
			<path class="st6" d="M-232.3,41.9c-1.9,1.3-3.9,4.6-6.2,9.9h5.7l0.1,0.1c0,0.2-0.2,0.5-0.6,1c-0.4,0.5-0.8,0.7-1.1,0.7h-4.9
				c-3,7.4-4.5,12.2-4.5,14.3c0,1.4,0.5,2.2,1.4,2.2c1.3,0,2.9-1.1,4.7-3.4c0.4-0.5,1-1.3,1.6-2.5c1.7-2.8,2.6-4.2,2.7-4.2
				c0.2,0,0.3,0.3,0.3,0.9c0,1.4-1.6,4.2-4.7,8.4c-1,1.4-2.3,2.6-3.7,3.8c-1.4,1.2-2.7,1.8-3.9,1.8c-2.2,0-3.2-1.5-3.2-4.5
				c0-2.5,0.6-5.5,1.8-8.7v-0.1c-0.7,1.3-1.3,2.3-1.8,3c-0.5,0.6-0.8,1-0.9,1c-0.2,0-0.2-0.2-0.2-0.7c0-0.5,0.3-1.2,0.8-2.3
				c0.5-1.1,1.2-2.4,2.1-4.1c0.9-1.7,1.6-3.3,2.2-4.7h-3.8c-0.1,0-0.2-0.1-0.2-0.3c0-0.2,0.1-0.5,0.4-0.9c0.3-0.4,0.5-0.6,0.7-0.6
				h4.3c2.7-6.5,5.5-9.8,8.3-9.8C-233.4,42-232.5,41.9-232.3,41.9z"/>
			<path class="st6" d="M-220.5,51.6l2.9,0.1h0.6c-0.6,0.4-1.4,1.6-2.4,3.7c-1,2-1.8,3.6-2.3,4.6c-0.5,1-1.1,2.4-1.7,4.2
				s-0.9,3.2-0.9,4.3c0,1.1,0.4,1.6,1.1,1.6c0.5,0,1.2-0.4,2.1-1c0.9-0.7,1.6-1.4,2.2-2.1c0.6-0.7,1.2-1.7,1.9-2.8
				c0.7-1.2,1.3-2.2,1.8-3c0.5-0.9,0.8-1.3,0.9-1.3c0.3,0,0.4,0.4,0.4,1.1s-0.2,1.4-0.6,2c-1.6,2.7-3,4.8-4,6.2
				c-1.1,1.4-2.3,2.8-3.8,3.9c-1.5,1.2-2.8,1.8-4.1,1.8c-2.2,0-3.2-1.6-3.2-4.8c0-2.2,0.4-4.6,1.2-7.3c0.8-2.7,2.1-5.4,3.7-7.9
				c-1.3,1.1-2.6,1.6-4,1.6c-0.4,0-0.9-0.1-1.3-0.3c-2.7,5.3-4.1,7.9-4.3,7.9s-0.3-0.3-0.3-0.9c0-0.6,0.2-1.5,0.7-2.6
				c0.5-1.1,1-2.2,1.5-3.2c0.5-1,0.8-1.6,0.9-1.7c-1.4-0.7-2-1.8-2-3.3c0-0.8,0.2-1.4,0.7-2c0.5-0.6,1.1-0.9,2-0.9
				c0.8,0,1.5,0.3,2,0.8c-0.1,0.2-0.1,0.6-0.1,1c0,1,0.4,1.8,1.1,2.4c0.7,0.6,1.6,0.9,2.7,0.9c0.3,0,0.5,0,0.7-0.1
				C-223.2,52.6-221.9,51.6-220.5,51.6z"/>
			<path class="st6" d="M-193.7,52.3h2.3c-1.2,0.7-2.4,2.5-3.6,5.3c-1,2.4-1.8,4.6-2.5,6.5c-0.7,1.9-1.1,3.1-1.2,3.5
				c-0.2,0.4-0.5,1.4-1.1,3c-0.5,1.6-1,2.8-1.3,3.7c-0.9,2.6-2,4.7-3.3,6.3c-1.2,1.6-2.8,2.8-4.7,3.7c-1.9,0.9-3.7,1.4-5.6,1.4
				c-1.9,0-3.5-0.4-4.9-1.1s-2-1.9-2-3.5c0-0.8,0.3-1.6,0.8-2.2c0.5-0.7,1.1-1,1.8-1c0.7,0,1.2,0.2,1.7,0.5c0.5,0.3,0.8,0.6,1,1
				c-0.7,0.2-1,1-1,2.4c0,0.7,0.3,1.3,0.8,1.7c0.5,0.4,1.2,0.7,2,0.7c3.1,0,5.6-2.7,7.7-8.2l3.2-8.6c-1.8,2.2-3.3,3.9-4.6,5
				c-1.3,1.1-2.3,1.8-3.1,2c-0.7,0.2-1.6,0.3-2.6,0.3c-1,0-1.8-0.4-2.4-1.2c-0.6-0.8-0.9-2-0.9-3.6c0-1.6,0.5-3.8,1.4-6.7
				c0.9-2.9,1.9-5.2,3-6.9c1.1-1.7,2.2-2.8,3.3-3.3c1.2-0.5,2.7-0.7,4.7-0.7c0.2,0,0.2,0.1,0.2,0.2c0,0.2-0.1,0.3-0.3,0.6
				c-1.6,1.4-3.1,3.8-4.7,7.3c-1.6,3.5-2.4,6.5-2.4,8.9c0,1.3,0.4,1.9,1.1,1.9c1.4,0,3.1-1.4,5.2-4.1c2.1-2.7,3.7-5.5,4.9-8.2
				c0.2-0.4,0.4-0.9,0.7-1.6c0.3-0.7,0.5-1.2,0.6-1.5c0.1-0.3,0.3-0.6,0.5-1.1c0.2-0.5,0.5-0.8,0.7-1c0.2-0.2,0.4-0.4,0.8-0.7
				c0.3-0.3,0.7-0.4,1-0.5C-195.7,52.4-194.7,52.3-193.7,52.3z"/>
			<path class="st6" d="M-136.9,42.9c-0.6,1.6-1.7,2.9-3.4,3.9c-1.6,1.1-3.4,1.6-5.1,1.6c-0.8,0-1.5-0.2-2-0.5
				c-0.5-0.4-0.8-0.8-0.8-1.4c0-0.6,0.2-1.2,0.7-1.8c0.4,0.2,0.9,0.2,1.4,0.2c1.5,0,2.8-0.5,4.1-1.5c1.2-1,1.9-2.3,1.9-3.7
				c0-2.2-1.5-3.3-4.4-3.3c-3.9,0-7.6,1.3-11.3,4c-3.7,2.6-6.6,6.1-8.9,10.3c-2.3,4.2-3.4,8.5-3.4,12.9c0,6.7,3.1,10.1,9.2,10.1
				c3.8,0,7.9-1.5,12.1-4.4c4.3-3,7.1-6.2,8.5-9.6c0.7,0.5,1.1,1.2,1.1,2c0,1.7-1.2,3.8-3.6,6.3c-2.4,2.5-5.5,4.5-9.1,6
				c-3.7,1.5-7.4,2.2-11.2,2.2c-8.9,0-13.3-4.1-13.3-12.4c0-3.1,0.7-6.4,2.1-9.9c1.4-3.4,3.3-6.6,5.7-9.5c2.4-2.9,5.4-5.3,8.9-7.2
				c3.6-1.9,7.1-2.8,10.6-2.8c3.5,0,6.2,0.6,8,1.8c1.9,1.2,2.8,2.7,2.8,4.6C-136.5,41.3-136.6,42-136.9,42.9z"/>
			<path class="st6" d="M-115.4,39.8c-1.4,2.8-3.4,5.9-6.2,9.4c-2.8,3.5-5.3,6.3-7.6,8.4l-0.9,2.6c-0.5,1.3-0.9,2.9-1.3,4.8
				c-0.4,1.9-0.6,3.2-0.6,4c0,1.1,0.4,1.7,1.2,1.7c0.8,0,1.8-0.5,3-1.4c1.2-0.9,2-1.8,2.5-2.5c0.5-0.7,1.1-1.6,1.8-2.8
				c0.7-1.1,1.3-2.1,1.8-3c0.5-0.8,0.8-1.2,0.9-1.2c0.2,0,0.3,0.4,0.3,1.1c0,0.7-0.2,1.4-0.6,2c-2.1,3.5-3.8,6-5.1,7.4
				c-2.6,2.9-5.3,4.3-8.1,4.3c-2.1,0-3.2-1.4-3.2-4.3c0-2.8,1.3-7.8,3.8-14.9c0.2-0.6,0.6-1.9,1.3-3.8c0.7-1.9,1.3-3.4,1.8-4.5
				c0.5-1.1,1.2-2.5,2-4.3c0.8-1.8,1.6-3.2,2.4-4.3c0.8-1.1,1.6-2.1,2.6-3.2c1.9-2.2,3.9-3.3,6-3.3c2.2,0,3.2,1,3.2,3
				C-114.1,36.7-114.5,38.2-115.4,39.8z M-116.6,33.6h-0.4c-2.3,0-6,6.9-11.1,20.8c5.2-6.1,8.7-11.1,10.6-15
				c1.1-2.4,1.6-3.9,1.6-4.7S-116.1,33.6-116.6,33.6z"/>
			<path class="st6" d="M-101.4,51.6l2.7,0.1c0.6,0,0.9,0,1.1-0.1c-1.1,0.7-2.6,3.2-4.6,7.5c-2,4.3-3,7.4-3,9.3
				c0,1.1,0.4,1.7,1.1,1.7c0.5,0,1.2-0.3,2-1s1.6-1.4,2.2-2.1c0.6-0.8,1.3-1.7,2-2.9c0.7-1.1,1.3-2.1,1.8-3c0.5-0.8,0.8-1.2,0.9-1.2
				c0.2,0,0.3,0.4,0.3,1.1c0,0.7-0.2,1.4-0.6,2c-4.7,7.8-8.6,11.8-11.8,11.8c-2.1,0-3.2-1.6-3.2-4.7c0-1,0.1-1.9,0.2-2.8
				c-3.6,5-6.9,7.6-10.2,7.6c-0.9,0-1.7-0.4-2.3-1.2c-0.6-0.8-0.9-2-0.9-3.5c0-1.6,0.5-4.1,1.6-7.7c1.1-3.6,2.4-6.5,4-8.8
				c0.4-0.6,0.8-0.9,1.2-1.1c0.4-0.1,1.3-0.2,2.5-0.2h2.7c-0.9,1.3-2,3-3.1,5.2c-2.5,5.2-3.7,9-3.7,11.4c0,1.4,0.5,2.2,1.6,2.2
				c1,0,2.3-1,3.7-3c1.4-2,3-4.6,4.6-7.8c1.6-3.2,2.6-5,2.9-5.4C-104,52.7-102.7,51.6-101.4,51.6z"/>
			<path class="st6" d="M-70,59.9c0.2,0,0.3,0.4,0.3,1.1c0,0.7-0.1,1.2-0.3,1.6l-1.2,2.1c-1.9,3.1-3.4,5.1-4.5,6.1
				c-1.3,1.2-2.5,1.8-3.7,1.8c-1.6,0-2.6-0.7-3.2-2.2c-1.6,1.6-3.1,2.7-4.7,3.5s-3.4,1.2-5.3,1.2c-2,0-3.4-0.3-4.2-0.9
				c-0.8-0.6-1.2-1.7-1.2-3.1c0-1.5,0.2-3.1,0.7-5c1.2-5,3.1-10.9,5.9-17.6c2.8-6.8,4.9-10.3,6.5-10.8c0.5-0.1,1.4-0.2,2.7-0.2
				c1.3,0,2.1,0,2.4-0.1c-1.5,1.1-3.5,4.3-6,9.7c-2.5,5.3-4.4,10.5-5.7,15.4c4.1-7.2,7.9-10.8,11.6-10.8c2.6,0,3.9,1.8,3.9,5.5
				s-1.6,7.4-4.7,11.3c0,0.6,0.2,1.2,0.6,1.5c0.3,0.4,0.8,0.6,1.3,0.6c0.5,0,1.1-0.2,1.7-0.7c0.6-0.5,1.1-0.9,1.4-1.2
				c0.3-0.4,0.7-0.9,1.3-1.6c0.5-0.7,1.2-1.6,1.9-2.8c0.7-1.2,1.3-2.1,1.8-3C-70.3,60.3-70.1,59.9-70,59.9z M-82.6,56.3
				c-0.1,0-0.4-0.1-0.9-0.1c-0.5,0-1.4,0.5-2.7,1.5c-1.3,1-2.8,2.9-4.6,5.6c-1.7,2.8-2.6,5.1-2.6,6.9s0.5,2.7,1.6,2.7
				c2,0,4.2-1.9,6.5-5.8c2.3-3.9,3.5-6.9,3.5-9.2C-81.7,57-82,56.5-82.6,56.3z"/>
		</g>
		<g>
			<path class="st2" d="M-307.6,100.1c0,3.3-0.9,5.8-2.7,7.6s-4.5,2.6-7.9,2.6h-5.6v-20h6.2c3.2,0,5.7,0.9,7.4,2.6
				S-307.6,97-307.6,100.1z M-311,100.2c0-4.8-2.2-7.2-6.7-7.2h-2.8v14.5h2.3C-313.5,107.5-311,105.1-311,100.2z"/>
			<path class="st2" d="M-288.3,110.3l-2-5.6h-7.6l-2,5.6h-3.4l7.5-20.1h3.6l7.5,20.1H-288.3z M-291.1,101.9l-1.9-5.4
				c-0.1-0.4-0.3-0.9-0.6-1.7s-0.4-1.4-0.5-1.7c-0.2,1.1-0.6,2.3-1.1,3.7l-1.8,5.2H-291.1z"/>
			<path class="st2" d="M-273.9,99.4l4.7-9.1h3.6l-6.7,12.2v7.8h-3.3v-7.6l-6.6-12.3h3.6L-273.9,99.4z"/>
			<path class="st2" d="M-238,110.3l-2-5.6h-7.6l-2,5.6h-3.4l7.5-20.1h3.6l7.5,20.1H-238z M-240.9,101.9l-1.9-5.4
				c-0.1-0.4-0.3-0.9-0.6-1.7s-0.4-1.4-0.5-1.7c-0.2,1.1-0.6,2.3-1.1,3.7l-1.8,5.2H-240.9z"/>
			<path class="st2" d="M-220.8,92.8c-1.9,0-3.4,0.7-4.4,2s-1.6,3.2-1.6,5.5c0,2.5,0.5,4.3,1.6,5.6s2.5,1.9,4.5,1.9
				c0.8,0,1.7-0.1,2.5-0.3s1.6-0.4,2.5-0.6v2.8c-1.6,0.6-3.3,0.9-5.3,0.9c-2.9,0-5.2-0.9-6.7-2.7s-2.4-4.3-2.4-7.6
				c0-2.1,0.4-3.9,1.1-5.5s1.9-2.8,3.3-3.6s3.1-1.2,5.1-1.2c2,0,3.9,0.4,5.7,1.3l-1.2,2.7c-0.7-0.3-1.4-0.6-2.1-0.8
				S-219.9,92.8-220.8,92.8z"/>
			<path class="st2" d="M-202,110.3h-3.3V93.1h-5.9v-2.8h15v2.8h-5.9V110.3z"/>
			<path class="st2" d="M-190.4,110.3v-20h3.3v20H-190.4z"/>
			<path class="st2" d="M-167.9,90.3h3.4l-7,20h-3.4l-7-20h3.4l4.2,12.4c0.2,0.6,0.5,1.4,0.7,2.3s0.4,1.6,0.5,2.1
				c0.1-0.7,0.3-1.5,0.5-2.4s0.4-1.6,0.6-2L-167.9,90.3z"/>
			<path class="st2" d="M-159.2,110.3v-20h3.3v20H-159.2z"/>
			<path class="st2" d="M-141.1,110.3h-3.3V93.1h-5.9v-2.8h15v2.8h-5.9V110.3z"/>
			<path class="st2" d="M-123.9,99.4l4.7-9.1h3.6l-6.7,12.2v7.8h-3.3v-7.6l-6.6-12.3h3.6L-123.9,99.4z"/>
		</g>
	</g>
</g>
<g>
	<g>
		<text transform="matrix(1 0 0 1 -366.2803 -154.9794)" class="st6 st7 st8">Country Club</text>
		<g>
			<text transform="matrix(1 0 0 1 -326.4968 -119.1528)" class="st2 st9 st10 st11">Day Activity</text>
		</g>
	</g>
	<g>
		<path class="st2" d="M-219.1-265.2l-13-5.5c-0.4-0.2-0.8,0.2-0.8,0.6l1.9,14c0.1,0.6-0.7,0.9-1,0.4l-8.5-11.3
			c-0.3-0.4-0.8-0.3-1,0.1l-5.4,13.1c-0.2,0.5-1,0.4-1.1-0.1l-1.7-14c-0.1-0.4-0.6-0.6-0.9-0.4l-11.2,8.6c-0.5,0.4-1.1-0.1-0.9-0.7
			l5.5-13c0.2-0.4-0.2-0.8-0.6-0.8l-14,1.9c-0.6,0.1-0.9-0.7-0.4-1l11.3-8.5c0.4-0.3,0.3-0.8-0.1-1l-13.1-5.4
			c-0.5-0.2-0.4-1,0.1-1.1l14-1.7c0.4-0.1,0.6-0.6,0.4-0.9l-8.6-11.2c-0.4-0.5,0.1-1.1,0.7-0.9l13,5.5c0.4,0.2,0.8-0.2,0.8-0.6
			l-1.9-14c-0.1-0.6,0.7-0.9,1-0.4l8.5,11.3c0.3,0.4,0.8,0.3,1-0.1l5.4-13.1c0.2-0.5,1-0.4,1.1,0.1l1.7,14c0.1,0.4,0.6,0.6,0.9,0.4
			l11.2-8.6c0.5-0.4,1.1,0.1,0.9,0.7l-5.5,13c-0.2,0.4,0.2,0.8,0.6,0.8l14-1.9c0.6-0.1,0.9,0.7,0.4,1l-11.3,8.5
			c-0.4,0.3-0.3,0.8,0.1,1l13.1,5.4c0.5,0.2,0.4,1-0.1,1.1l-14,1.7c-0.4,0.1-0.6,0.6-0.4,0.9l8.6,11.2
			C-218.1-265.6-218.5-265-219.1-265.2z"/>
		<circle class="st1" cx="-243.3" cy="-284.6" r="13.2"/>
		<g>
			<path class="st6" d="M-160.6-246.2c-0.9-2.5-2-4.8-3.1-7.2c-1.3-2.3-2.5-4.6-3.9-6.7c-1.3-2.2-3-4.2-4.5-6.3l-2.5-2.9
				c-0.4-0.5-0.8-1-1.3-1.4l-1.4-1.4c-6-6-12.7-11.1-19.9-15.4c0,0,0,0,0,0c0,0.1-0.1,0.3-0.2,0.4c6.7,4.8,12.9,10.3,18.2,16.6
				l1.2,1.4c0.4,0.5,0.7,1,1.1,1.5l2.2,3c1.3,2.1,2.7,4.1,3.8,6.3c1.2,2.1,2.2,4.4,3.2,6.6c0.9,2.3,1.7,4.6,2.4,6.9
				c2.7,9.4,3.2,19.2,1.8,28.7c-0.3,2.1-0.7,4.3-1.2,6.4c-0.2,0.9,0.5,1.8,1.4,1.8h5.2c0.6,0,1.2-0.5,1.3-1.1
				c0.3-2.1,0.5-4.3,0.6-6.4C-155.5-225.7-156.9-236.4-160.6-246.2z"/>
			<path class="st6" d="M-202.6-285.6C-202.6-285.6-202.6-285.6-202.6-285.6c-0.1,0-0.2,0.1-0.3,0.2c0,0,0,0,0,0
				c0,0.8,0.1,1.6,0.1,2.4c0,2.1-0.2,4.2-0.4,6.2c-0.5,4.1-1.6,8.2-3.1,12c-1.5,3.8-3.3,7.6-5.5,11c-1,1.8-2.3,3.4-3.5,5
				c-0.6,0.8-1.3,1.6-1.9,2.4c-0.7,0.8-1.3,1.6-2,2.3c-5.6,6-12,11.2-18.8,15.6c-6.9,4.4-14.3,8.1-21.8,11.4
				c-6.3,2.6-12.6,4.9-19.1,6.9c-1.4,0.4-1.1,2.5,0.4,2.5l16.3,0c0.9,0,1.8-0.2,2.6-0.6c1.1-0.5,2.2-1.1,3.3-1.6
				c7.6-4.1,14.9-8.5,21.8-13.7c6.8-5.2,13.1-11.2,18.5-17.9c0.7-0.9,1.3-1.7,1.9-2.6c0.6-0.9,1.3-1.7,1.8-2.6
				c1.1-1.8,2.3-3.6,3.3-5.6c2.1-3.8,3.6-7.8,4.8-11.9c1.2-4.1,2-8.3,2.1-12.5c0.1-2.1,0.1-4.2-0.1-6.3
				C-202.4-283.9-202.5-284.7-202.6-285.6z"/>
			<path class="st6" d="M-205.9-222.5c-3.6,4.6-7.8,8.7-12.6,12.2c-0.3,0.2-0.2,0.8,0.2,0.8l9.3,0.7c0.5,0,0.9-0.1,1.2-0.5
				c1.6-1.7,4.3-4.7,4.3-4.7c2-2.5,3.8-5.1,5.4-7.8c0.1-0.2,0-0.4-0.2-0.4l-7.3-0.5C-205.6-222.7-205.8-222.6-205.9-222.5z"/>
			<path class="st6" d="M-197.3-237.4c-1.4,3.4-3,6.7-5,9.7c-0.2,0.3,0,0.7,0.4,0.7l5.9,0.3c0.3,0,0.6-0.2,0.7-0.4
				c1.5-3.2,2.7-6.5,3.6-9.9c0.1-0.3-0.1-0.6-0.4-0.6l-4.7-0.1C-197-237.7-197.2-237.6-197.3-237.4z"/>
			<path class="st6" d="M-193.4-250.2c-0.1,0-0.2,0-0.2,0.1c0,0.1-0.1,0.1-0.1,0.2c-0.4,2.6-1,5.1-1.8,7.6c-0.1,0.2,0.1,0.4,0.3,0.4
				l4.4,0.2c0.2,0,0.3-0.1,0.3-0.3c0.5-2.5,0.8-5.1,0.9-7.7c0-0.2-0.1-0.3-0.3-0.3L-193.4-250.2z"/>
			<path class="st6" d="M-189.6-254.4c0-2-0.2-3.9-0.4-5.8c0-0.2-0.2-0.3-0.3-0.3c-0.3,0-0.7,0-1,0c-0.4,0-0.8,0-1.3,0
				c-0.1,0-0.2,0-0.2,0.1c0,0,0,0.1,0,0.2c0,1,0,1.9-0.1,2.9c0,1-0.1,1.9-0.2,2.9c0,0,0,0.1,0,0.1c0,0.2,0.1,0.4,0.3,0.4l2.9,0
				C-189.8-254-189.6-254.2-189.6-254.4z"/>
			<path class="st6" d="M-191.8-269.2c0-0.1-0.1-0.2-0.2-0.2c0,0-1.3,0.1-1.3,0.1c-0.1,0-0.2,0.2-0.2,0.3c0.1,0.5,0.1,0.9,0.2,1.4
				c0.1,0.5,0.1,1,0.2,1.5c0,0.5,0.1,1,0.1,1.5c0,0.1,0.2,0.2,0.3,0.2h1.8c0.1,0,0.3-0.1,0.2-0.3
				C-191-266.2-191.4-267.7-191.8-269.2z"/>
			<path class="st6" d="M-194.6-277.3C-194.7-277.4-194.7-277.4-194.6-277.3c-0.1-0.1-0.2,0-0.3,0c0,0-0.1,0-0.1,0
				c-0.1,0-0.1,0-0.2,0.1c0,0.1,0,0.1,0,0.2c0,0.1,0,0.2,0.1,0.2c0,0.2,0.1,0.3,0.1,0.5c0.1,0.3,0.2,0.6,0.2,0.9
				c0.1,0.3,0.2,0.6,0.2,0.9c0.1,0.3,0.1,0.6,0.2,1c0,0.2,0.1,0.3,0.1,0.5c0,0.1,0,0.2,0.1,0.2c0,0,0,0.1,0,0.1c0,0,0,0.1,0,0.1
				c0,0,0.1,0.1,0.1,0.1c0,0,0,0,0.1,0c0.1,0,0.1,0,0.2,0c0.1,0,0.3,0,0.4,0c0,0,0.1,0,0.1,0c0,0,0.1,0,0.2,0c0.1,0,0.1-0.1,0.1-0.1
				c0,0,0-0.1,0-0.1c0,0,0-0.1,0-0.1c0-0.1-0.1-0.2-0.1-0.2c-0.1-0.2-0.1-0.3-0.2-0.5c0,0,0,0,0,0c-0.1-0.3-0.2-0.6-0.3-0.9
				c-0.1-0.3-0.2-0.6-0.3-0.9c-0.1-0.3-0.2-0.6-0.4-0.9c-0.1-0.3-0.2-0.6-0.4-0.9C-194.6-277.2-194.6-277.3-194.6-277.3
				C-194.6-277.3-194.6-277.3-194.6-277.3z"/>
		</g>
	</g>
</g>
<g>
	<g>
		<path class="st12" d="M1494.4,883.9h-421.8c-6.6,0-12-5.4-12-12V637.5c0-6.6,5.4-12,12-12h421.8c6.6,0,12,5.4,12,12v234.4
			C1506.3,878.5,1501,883.9,1494.4,883.9z"/>
	</g>
	<g>
		<text transform="matrix(1 0 0 1 1135.1519 810.2402)" class="st13 st7 st8">Country Club</text>
		<text transform="matrix(1 0 0 1 1180.7446 845.4033)" class="st2 st9 st11" style="font-size:27.5276px;">Day Activity</text>
	</g>
	<g>
		<path class="st13" d="M1340.8,720.5c-0.9-2.5-2-4.8-3.1-7.2c-1.3-2.3-2.5-4.6-3.9-6.7c-1.3-2.2-3-4.2-4.5-6.3l-2.5-2.9
			c-0.4-0.5-0.8-1-1.3-1.4l-1.4-1.4c-6-6-12.7-11.1-19.9-15.4c0,0,0,0,0,0c0,0.1-0.1,0.3-0.2,0.4c6.7,4.8,12.9,10.3,18.2,16.6
			l1.2,1.4c0.4,0.5,0.7,1,1.1,1.5l2.2,3c1.3,2.1,2.7,4.1,3.8,6.3c1.2,2.1,2.2,4.4,3.2,6.6c0.9,2.3,1.7,4.6,2.4,6.9
			c2.7,9.4,3.2,19.2,1.8,28.7c-0.3,2.1-0.7,4.3-1.2,6.4c-0.2,0.9,0.5,1.8,1.4,1.8h5.2c0.6,0,1.2-0.5,1.3-1.1
			c0.3-2.1,0.5-4.3,0.6-6.4C1345.9,741,1344.5,730.3,1340.8,720.5z"/>
		<path class="st2" d="M1282.4,701.4l-13-5.5c-0.4-0.2-0.8,0.2-0.8,0.6l1.9,14c0.1,0.6-0.7,0.9-1,0.4l-8.5-11.3
			c-0.3-0.4-0.8-0.3-1,0.1l-5.4,13.1c-0.2,0.5-1,0.4-1.1-0.1l-1.7-14c-0.1-0.4-0.6-0.6-0.9-0.4l-11.2,8.6c-0.5,0.4-1.1-0.1-0.9-0.7
			l5.5-13c0.2-0.4-0.2-0.8-0.6-0.8l-14,1.9c-0.6,0.1-0.9-0.7-0.4-1l11.3-8.5c0.4-0.3,0.3-0.8-0.1-1l-13.1-5.4
			c-0.5-0.2-0.4-1,0.1-1.1l14-1.7c0.4-0.1,0.6-0.6,0.4-0.9l-8.6-11.2c-0.4-0.5,0.1-1.1,0.7-0.9l13,5.5c0.4,0.2,0.8-0.2,0.8-0.6
			l-1.9-14c-0.1-0.6,0.7-0.9,1-0.4l8.5,11.3c0.3,0.4,0.8,0.3,1-0.1l5.4-13.1c0.2-0.5,1-0.4,1.1,0.1l1.7,14c0.1,0.4,0.6,0.6,0.9,0.4
			l11.2-8.6c0.5-0.4,1.1,0.1,0.9,0.7l-5.5,13c-0.2,0.4,0.2,0.8,0.6,0.8l14-1.9c0.6-0.1,0.9,0.7,0.4,1l-11.3,8.5
			c-0.4,0.3-0.3,0.8,0.1,1l13.1,5.4c0.5,0.2,0.4,1-0.1,1.1l-14,1.7c-0.4,0.1-0.6,0.6-0.4,0.9l8.6,11.2
			C1283.4,701,1282.9,701.7,1282.4,701.4z"/>
		<circle class="st1" cx="1258.1" cy="682" r="13.2"/>
		<path class="st13" d="M1298.8,681.1C1298.8,681.1,1298.8,681.1,1298.8,681.1c-0.1,0-0.2,0.1-0.3,0.2c0,0,0,0,0,0
			c0,0.8,0.1,1.6,0.1,2.4c0,2.1-0.2,4.2-0.4,6.2c-0.5,4.1-1.6,8.2-3.1,12c-1.5,3.8-3.3,7.6-5.5,11c-1,1.8-2.3,3.4-3.5,5
			c-0.6,0.8-1.3,1.6-1.9,2.4c-0.7,0.8-1.3,1.6-2,2.3c-5.6,6-12,11.2-18.8,15.6c-6.9,4.4-14.3,8.1-21.8,11.4
			c-6.3,2.6-12.6,4.9-19.1,6.9c-1.4,0.4-1.1,2.5,0.4,2.5l16.3,0c0.9,0,1.8-0.2,2.6-0.6c1.1-0.5,2.2-1.1,3.3-1.6
			c7.6-4.1,14.9-8.5,21.8-13.7c6.8-5.2,13.1-11.2,18.5-17.9c0.7-0.9,1.3-1.7,1.9-2.6c0.6-0.9,1.3-1.7,1.8-2.6
			c1.1-1.8,2.3-3.6,3.3-5.6c2.1-3.8,3.6-7.8,4.8-11.9c1.2-4.1,2-8.3,2.1-12.5c0.1-2.1,0.1-4.2-0.1-6.3
			C1299,682.7,1298.9,681.9,1298.8,681.1z"/>
		<path class="st13" d="M1295.6,744.1c-3.6,4.6-7.8,8.7-12.6,12.2c-0.3,0.2-0.2,0.8,0.2,0.8l9.3,0.7c0.5,0,0.9-0.1,1.2-0.5
			c1.6-1.7,4.3-4.7,4.3-4.7c2-2.5,3.8-5.1,5.4-7.8c0.1-0.2,0-0.4-0.2-0.4l-7.3-0.5C1295.8,744,1295.6,744,1295.6,744.1z"/>
		<path class="st13" d="M1304.1,729.2c-1.4,3.4-3,6.7-5,9.7c-0.2,0.3,0,0.7,0.4,0.7l5.9,0.3c0.3,0,0.6-0.2,0.7-0.4
			c1.5-3.2,2.7-6.5,3.6-9.9c0.1-0.3-0.1-0.6-0.4-0.6l-4.7-0.1C1304.4,728.9,1304.2,729.1,1304.1,729.2z"/>
		<path class="st13" d="M1308,716.4c-0.1,0-0.2,0-0.2,0.1c0,0-0.1,0.1-0.1,0.2c-0.4,2.6-1,5.1-1.8,7.6c-0.1,0.2,0.1,0.4,0.3,0.4
			l4.4,0.2c0.2,0,0.3-0.1,0.3-0.3c0.5-2.5,0.8-5.1,0.9-7.7c0-0.2-0.1-0.3-0.3-0.3L1308,716.4z"/>
		<path class="st13" d="M1311.8,712.3c0-2-0.2-3.9-0.4-5.8c0-0.2-0.2-0.3-0.3-0.3c-0.3,0-0.7,0-1,0c-0.4,0-0.8,0-1.3,0
			c-0.1,0-0.2,0-0.2,0.1c0,0,0,0.1,0,0.2c0,1,0,1.9-0.1,2.9c0,1-0.1,1.9-0.2,2.9c0,0,0,0.1,0,0.1c0,0.2,0.1,0.4,0.3,0.4l2.9,0
			C1311.7,712.6,1311.8,712.5,1311.8,712.3z"/>
		<path class="st13" d="M1309.7,697.5c0-0.1-0.1-0.2-0.2-0.2c0,0-1.3,0.1-1.3,0.1c-0.1,0-0.2,0.2-0.2,0.3c0.1,0.5,0.1,0.9,0.2,1.4
			c0.1,0.5,0.1,1,0.2,1.5c0,0.5,0.1,1,0.1,1.5c0,0.1,0.2,0.2,0.3,0.2h1.8c0.1,0,0.3-0.1,0.2-0.3
			C1310.4,700.4,1310.1,698.9,1309.7,697.5z"/>
		<path class="st13" d="M1306.8,689.3C1306.8,689.3,1306.7,689.3,1306.8,689.3c-0.1-0.1-0.2,0-0.3,0c0,0-0.1,0-0.1,0
			c-0.1,0-0.1,0-0.2,0.1c0,0.1,0,0.1,0,0.2c0,0.1,0,0.2,0.1,0.2c0,0.2,0.1,0.3,0.1,0.5c0.1,0.3,0.2,0.6,0.2,0.9
			c0.1,0.3,0.2,0.6,0.2,0.9c0.1,0.3,0.1,0.6,0.2,1c0,0.2,0.1,0.3,0.1,0.5c0,0.1,0,0.2,0.1,0.2c0,0,0,0.1,0,0.1c0,0,0,0.1,0,0.1
			c0,0,0.1,0.1,0.1,0.1c0,0,0,0,0.1,0c0.1,0,0.1,0,0.2,0c0.1,0,0.3,0,0.4,0c0,0,0.1,0,0.1,0c0,0,0.1,0,0.2,0c0.1,0,0.1-0.1,0.1-0.1
			c0,0,0-0.1,0-0.1c0,0,0-0.1,0-0.1c0-0.1-0.1-0.2-0.1-0.2c-0.1-0.2-0.1-0.3-0.2-0.5c0,0,0,0,0,0c-0.1-0.3-0.2-0.6-0.3-0.9
			c-0.1-0.3-0.2-0.6-0.3-0.9c-0.1-0.3-0.2-0.6-0.4-0.9c-0.1-0.3-0.2-0.6-0.4-0.9C1306.9,689.4,1306.8,689.4,1306.8,689.3
			C1306.8,689.3,1306.8,689.3,1306.8,689.3z"/>
	</g>
</g>
<g>
	<g>
		<g>
			<g>
				<path class="st15" d="M2220.1,883.9h-421.8c-6.6,0-12-5.4-12-12V637.5c0-6.6,5.4-12,12-12h421.8c6.6,0,12,5.4,12,12v234.4
					C2232.1,878.5,2226.8,883.9,2220.1,883.9z"/>
			</g>
		</g>
	</g>
	<g>
		<text transform="matrix(1 0 0 1 1860.9259 810.2402)" class="st13 st7 st8">Country Club</text>
		<text transform="matrix(1 0 0 1 1906.5187 845.4033)" class="st2 st9 st11" style="font-size:27.5276px;">Day Activity</text>
	</g>
	<g>
		<path class="st13" d="M2066.6,720.5c-0.9-2.5-2-4.8-3.1-7.2c-1.3-2.3-2.5-4.6-3.9-6.7c-1.3-2.2-3-4.2-4.5-6.3l-2.5-2.9
			c-0.4-0.5-0.8-1-1.3-1.4l-1.4-1.4c-6-6-12.7-11.1-19.9-15.4c0,0,0,0,0,0c0,0.1-0.1,0.3-0.2,0.4c6.7,4.8,12.9,10.3,18.2,16.6
			l1.2,1.4c0.4,0.5,0.7,1,1.1,1.5l2.2,3c1.3,2.1,2.7,4.1,3.8,6.3c1.2,2.1,2.2,4.4,3.2,6.6c0.9,2.3,1.7,4.6,2.4,6.9
			c2.7,9.4,3.2,19.2,1.8,28.7c-0.3,2.1-0.7,4.3-1.2,6.4c-0.2,0.9,0.5,1.8,1.4,1.8h5.2c0.6,0,1.2-0.5,1.3-1.1
			c0.3-2.1,0.5-4.3,0.6-6.4C2071.7,741,2070.3,730.3,2066.6,720.5z"/>
		<path class="st2" d="M2008.1,701.4l-13-5.5c-0.4-0.2-0.8,0.2-0.8,0.6l1.9,14c0.1,0.6-0.7,0.9-1,0.4l-8.5-11.3
			c-0.3-0.4-0.8-0.3-1,0.1l-5.4,13.1c-0.2,0.5-1,0.4-1.1-0.1l-1.7-14c-0.1-0.4-0.6-0.6-0.9-0.4l-11.2,8.6c-0.5,0.4-1.1-0.1-0.9-0.7
			l5.5-13c0.2-0.4-0.2-0.8-0.6-0.8l-14,1.9c-0.6,0.1-0.9-0.7-0.4-1l11.3-8.5c0.4-0.3,0.3-0.8-0.1-1l-13.1-5.4
			c-0.5-0.2-0.4-1,0.1-1.1l14-1.7c0.4-0.1,0.6-0.6,0.4-0.9l-8.6-11.2c-0.4-0.5,0.1-1.1,0.7-0.9l13,5.5c0.4,0.2,0.8-0.2,0.8-0.6
			l-1.9-14c-0.1-0.6,0.7-0.9,1-0.4l8.5,11.3c0.3,0.4,0.8,0.3,1-0.1l5.4-13.1c0.2-0.5,1-0.4,1.1,0.1l1.7,14c0.1,0.4,0.6,0.6,0.9,0.4
			l11.2-8.6c0.5-0.4,1.1,0.1,0.9,0.7l-5.5,13c-0.2,0.4,0.2,0.8,0.6,0.8l14-1.9c0.6-0.1,0.9,0.7,0.4,1l-11.3,8.5
			c-0.4,0.3-0.3,0.8,0.1,1l13.1,5.4c0.5,0.2,0.4,1-0.1,1.1l-14,1.7c-0.4,0.1-0.6,0.6-0.4,0.9l8.6,11.2
			C2009.2,701,2008.7,701.7,2008.1,701.4z"/>
		<circle class="st1" cx="1983.9" cy="682" r="13.2"/>
		<path class="st13" d="M2024.6,681.1C2024.6,681.1,2024.6,681.1,2024.6,681.1c-0.1,0-0.2,0.1-0.3,0.2c0,0,0,0,0,0
			c0,0.8,0.1,1.6,0.1,2.4c0,2.1-0.2,4.2-0.4,6.2c-0.5,4.1-1.6,8.2-3.1,12c-1.5,3.8-3.3,7.6-5.5,11c-1,1.8-2.3,3.4-3.5,5
			c-0.6,0.8-1.3,1.6-1.9,2.4c-0.7,0.8-1.3,1.6-2,2.3c-5.6,6-12,11.2-18.8,15.6c-6.9,4.4-14.3,8.1-21.8,11.4
			c-6.3,2.6-12.6,4.9-19.1,6.9c-1.4,0.4-1.1,2.5,0.4,2.5l16.3,0c0.9,0,1.8-0.2,2.6-0.6c1.1-0.5,2.2-1.1,3.3-1.6
			c7.6-4.1,14.9-8.5,21.8-13.7c6.8-5.2,13.1-11.2,18.5-17.9c0.7-0.9,1.3-1.7,1.9-2.6c0.6-0.9,1.3-1.7,1.8-2.6
			c1.1-1.8,2.3-3.6,3.3-5.6c2.1-3.8,3.6-7.8,4.8-11.9c1.2-4.1,2-8.3,2.1-12.5c0.1-2.1,0.1-4.2-0.1-6.3
			C2024.8,682.7,2024.7,681.9,2024.6,681.1z"/>
		<path class="st13" d="M2021.3,744.1c-3.6,4.6-7.8,8.7-12.6,12.2c-0.3,0.2-0.2,0.8,0.2,0.8l9.3,0.7c0.5,0,0.9-0.1,1.2-0.5
			c1.6-1.7,4.3-4.7,4.3-4.7c2-2.5,3.8-5.1,5.4-7.8c0.1-0.2,0-0.4-0.2-0.4l-7.3-0.5C2021.6,744,2021.4,744,2021.3,744.1z"/>
		<path class="st13" d="M2029.9,729.2c-1.4,3.4-3,6.7-5,9.7c-0.2,0.3,0,0.7,0.4,0.7l5.9,0.3c0.3,0,0.6-0.2,0.7-0.4
			c1.5-3.2,2.7-6.5,3.6-9.9c0.1-0.3-0.1-0.6-0.4-0.6l-4.7-0.1C2030.2,728.9,2030,729.1,2029.9,729.2z"/>
		<path class="st13" d="M2033.8,716.4c-0.1,0-0.2,0-0.2,0.1c0,0-0.1,0.1-0.1,0.2c-0.4,2.6-1,5.1-1.8,7.6c-0.1,0.2,0.1,0.4,0.3,0.4
			l4.4,0.2c0.2,0,0.3-0.1,0.3-0.3c0.5-2.5,0.8-5.1,0.9-7.7c0-0.2-0.1-0.3-0.3-0.3L2033.8,716.4z"/>
		<path class="st13" d="M2037.6,712.3c0-2-0.2-3.9-0.4-5.8c0-0.2-0.2-0.3-0.3-0.3c-0.3,0-0.7,0-1,0c-0.4,0-0.8,0-1.3,0
			c-0.1,0-0.2,0-0.2,0.1c0,0,0,0.1,0,0.2c0,1,0,1.9-0.1,2.9c0,1-0.1,1.9-0.2,2.9c0,0,0,0.1,0,0.1c0,0.2,0.1,0.4,0.3,0.4l2.9,0
			C2037.4,712.6,2037.6,712.5,2037.6,712.3z"/>
		<path class="st13" d="M2035.4,697.5c0-0.1-0.1-0.2-0.2-0.2c0,0-1.3,0.1-1.3,0.1c-0.1,0-0.2,0.2-0.2,0.3c0.1,0.5,0.1,0.9,0.2,1.4
			c0.1,0.5,0.1,1,0.2,1.5c0,0.5,0.1,1,0.1,1.5c0,0.1,0.2,0.2,0.3,0.2h1.8c0.1,0,0.3-0.1,0.2-0.3
			C2036.2,700.4,2035.8,698.9,2035.4,697.5z"/>
		<path class="st13" d="M2032.6,689.3C2032.5,689.3,2032.5,689.3,2032.6,689.3c-0.1-0.1-0.2,0-0.3,0c0,0-0.1,0-0.1,0
			c-0.1,0-0.1,0-0.2,0.1c0,0.1,0,0.1,0,0.2c0,0.1,0,0.2,0.1,0.2c0,0.2,0.1,0.3,0.1,0.5c0.1,0.3,0.2,0.6,0.2,0.9
			c0.1,0.3,0.2,0.6,0.2,0.9c0.1,0.3,0.1,0.6,0.2,1c0,0.2,0.1,0.3,0.1,0.5c0,0.1,0,0.2,0.1,0.2c0,0,0,0.1,0,0.1c0,0,0,0.1,0,0.1
			c0,0,0.1,0.1,0.1,0.1c0,0,0,0,0.1,0c0.1,0,0.1,0,0.2,0c0.1,0,0.3,0,0.4,0c0,0,0.1,0,0.1,0c0,0,0.1,0,0.2,0c0.1,0,0.1-0.1,0.1-0.1
			c0,0,0-0.1,0-0.1c0,0,0-0.1,0-0.1c0-0.1-0.1-0.2-0.1-0.2c-0.1-0.2-0.1-0.3-0.2-0.5c0,0,0,0,0,0c-0.1-0.3-0.2-0.6-0.3-0.9
			c-0.1-0.3-0.2-0.6-0.3-0.9c-0.1-0.3-0.2-0.6-0.4-0.9c-0.1-0.3-0.2-0.6-0.4-0.9C2032.6,689.4,2032.6,689.4,2032.6,689.3
			C2032.6,689.3,2032.6,689.3,2032.6,689.3z"/>
	</g>
</g>
<g>
	<g>
		<text transform="matrix(1 0 0 1 1137.3492 360.4437)" class="st7" style="fill:#4E4E4E; font-size:55.9343px;">Country Club</text>
		<g>
			<text transform="matrix(1 0 0 1 1182.2672 395.0834)" class="st2 st9 st11" style="font-size:27.1197px;">Day Activity</text>
		</g>
	</g>
	<g>
		<circle class="st12" cx="1273" cy="260.9" r="47.5"/>
		<path class="st13" d="M1314.3,284.3c-0.4-4.1-1.3-8.2-2.8-12c-0.6-1.7-1.4-3.2-2.1-4.8c-0.8-1.5-1.7-3.1-2.6-4.5
			c-0.9-1.5-2-2.8-3-4.2l-1.7-1.9c-0.3-0.3-0.6-0.7-0.9-1l-0.9-0.9c-4-4-8.5-7.4-13.3-10.3c0,0,0,0,0,0c0,0.1-0.1,0.2-0.1,0.3
			c4.5,3.2,8.7,6.9,12.2,11.1l0.8,0.9c0.3,0.3,0.5,0.7,0.7,1l1.5,2c0.9,1.4,1.8,2.8,2.6,4.2c0.8,1.4,1.5,2.9,2.1,4.4
			c0.6,1.5,1.2,3.1,1.6,4.6c1.6,5.7,2.1,11.7,1.4,17.6C1311.5,288.9,1313,286.7,1314.3,284.3z"/>
		<path class="st2" d="M1272.1,259.6l-7.9-3.3c-0.2-0.1-0.5,0.1-0.5,0.4l1.1,8.5c0,0.4-0.4,0.5-0.6,0.3l-5.2-6.8
			c-0.2-0.2-0.5-0.2-0.6,0.1l-3.3,7.9c-0.1,0.3-0.6,0.3-0.7-0.1l-1-8.5c0-0.3-0.3-0.4-0.6-0.2l-6.8,5.2c-0.3,0.2-0.7-0.1-0.5-0.4
			l3.3-7.9c0.1-0.2-0.1-0.5-0.4-0.5l-8.5,1.1c-0.4,0-0.5-0.4-0.3-0.6l6.8-5.2c0.2-0.2,0.2-0.5-0.1-0.6l-7.9-3.3
			c-0.3-0.1-0.3-0.6,0.1-0.7l8.5-1c0.3,0,0.4-0.3,0.2-0.6l-5.2-6.8c-0.2-0.3,0.1-0.7,0.4-0.5l7.9,3.3c0.2,0.1,0.5-0.1,0.5-0.4
			l-1.1-8.5c0-0.4,0.4-0.5,0.6-0.3l5.2,6.8c0.2,0.2,0.5,0.2,0.6-0.1l3.3-7.9c0.1-0.3,0.6-0.3,0.7,0.1l1,8.5c0,0.3,0.3,0.4,0.6,0.2
			l6.8-5.2c0.3-0.2,0.7,0.1,0.5,0.4l-3.3,7.9c-0.1,0.2,0.1,0.5,0.4,0.5l8.5-1.1c0.4,0,0.5,0.4,0.3,0.6l-6.8,5.2
			c-0.2,0.2-0.2,0.5,0.1,0.6l7.9,3.3c0.3,0.1,0.3,0.6-0.1,0.7l-8.5,1c-0.3,0-0.4,0.3-0.2,0.6l5.2,6.8
			C1272.8,259.4,1272.5,259.8,1272.1,259.6z"/>
		<circle class="st1" cx="1257.5" cy="247.9" r="8"/>
		<path class="st13" d="M1283.4,246C1283.4,246,1283.4,246,1283.4,246c-0.1,0-0.1,0.1-0.2,0.1c0,0,0,0,0,0c0,0.5,0.1,1.1,0.1,1.6
			c0,1.4-0.1,2.8-0.3,4.2c-0.3,2.8-1.1,5.5-2,8c-1,2.6-2.2,5.1-3.7,7.4c-0.7,1.2-1.6,2.3-2.4,3.4c-0.4,0.6-0.9,1.1-1.3,1.6
			c-0.4,0.5-0.9,1-1.3,1.6c-3.7,4-8,7.5-12.6,10.4c-4.6,2.9-9.5,5.4-14.6,7.6c-2,0.8-4,1.6-6,2.4c1.4,1.4,2.9,2.7,4.4,4
			c0.6,0,1.2-0.1,1.7-0.4c0.7-0.4,1.5-0.7,2.2-1.1c5.1-2.7,10-5.7,14.6-9.2c4.6-3.5,8.8-7.5,12.4-12c0.4-0.6,0.8-1.2,1.3-1.7
			c0.4-0.6,0.9-1.1,1.2-1.8c0.7-1.2,1.6-2.4,2.2-3.7c1.4-2.5,2.4-5.2,3.2-7.9c0.8-2.7,1.3-5.6,1.4-8.4c0-1.4,0.1-2.8-0.1-4.2
			C1283.6,247.1,1283.5,246.5,1283.4,246z"/>
		<path class="st13" d="M1281.2,288.2c-2.4,3.1-5.3,5.9-8.4,8.2c-0.2,0.2-0.1,0.5,0.2,0.5l6.2,0.5c0.3,0,0.6-0.1,0.8-0.3
			c1.1-1.1,2.9-3.2,2.9-3.2c1.3-1.6,2.5-3.4,3.6-5.2c0.1-0.1,0-0.3-0.1-0.3l-4.9-0.3C1281.4,288.1,1281.3,288.1,1281.2,288.2z"/>
		<path class="st13" d="M1287,278.2c-0.9,2.3-2,4.5-3.3,6.5c-0.1,0.2,0,0.5,0.2,0.5l4,0.2c0.2,0,0.4-0.1,0.5-0.3
			c1-2.1,1.8-4.4,2.4-6.7c0.1-0.2-0.1-0.4-0.3-0.4l-3.2-0.1C1287.1,278,1287,278.1,1287,278.2z"/>
		<path class="st13" d="M1289.6,269.6c-0.1,0-0.1,0-0.2,0c0,0,0,0.1-0.1,0.1c-0.3,1.7-0.7,3.4-1.2,5.1c0,0.1,0.1,0.3,0.2,0.3
			l2.9,0.1c0.1,0,0.2-0.1,0.2-0.2c0.3-1.7,0.5-3.4,0.6-5.2c0-0.1-0.1-0.2-0.2-0.2L1289.6,269.6z"/>
		<path class="st13" d="M1292.1,266.9c0-1.3-0.1-2.6-0.3-3.9c0-0.1-0.1-0.2-0.2-0.2c-0.2,0-0.5,0-0.7,0c-0.3,0-0.6,0-0.8,0
			c-0.1,0-0.1,0-0.2,0.1c0,0,0,0.1,0,0.1c0,0.6,0,1.3,0,1.9c0,0.6-0.1,1.3-0.1,1.9c0,0,0,0,0,0.1c0,0.1,0.1,0.2,0.2,0.2l1.9,0
			C1292,267.1,1292.1,267,1292.1,266.9z"/>
		<path class="st13" d="M1290.7,256.9c0-0.1-0.1-0.1-0.2-0.1c0,0-0.9,0-0.9,0c-0.1,0-0.1,0.1-0.1,0.2c0,0.3,0.1,0.6,0.1,0.9
			c0,0.3,0.1,0.7,0.1,1c0,0.3,0.1,0.7,0.1,1c0,0.1,0.1,0.1,0.2,0.1h1.2c0.1,0,0.2-0.1,0.2-0.2C1291.2,258.9,1291,257.9,1290.7,256.9
			z"/>
		<path class="st13" d="M1288.8,251.5C1288.7,251.5,1288.7,251.4,1288.8,251.5c-0.1,0-0.1,0-0.2,0c0,0-0.1,0-0.1,0
			c0,0-0.1,0-0.1,0.1c0,0,0,0.1,0,0.1c0,0.1,0,0.1,0,0.2c0,0.1,0.1,0.2,0.1,0.3c0.1,0.2,0.1,0.4,0.2,0.6c0.1,0.2,0.1,0.4,0.2,0.6
			c0.1,0.2,0.1,0.4,0.1,0.6c0,0.1,0,0.2,0.1,0.3c0,0.1,0,0.1,0,0.2c0,0,0,0.1,0,0.1c0,0,0,0.1,0,0.1c0,0,0,0,0.1,0c0,0,0,0,0.1,0
			c0,0,0.1,0,0.1,0c0.1,0,0.2,0,0.3,0c0,0,0.1,0,0.1,0c0,0,0.1,0,0.1,0c0,0,0.1,0,0.1-0.1c0,0,0,0,0-0.1c0,0,0,0,0-0.1
			c0-0.1,0-0.1-0.1-0.2c0-0.1-0.1-0.2-0.1-0.3c0,0,0,0,0,0c-0.1-0.2-0.1-0.4-0.2-0.6c-0.1-0.2-0.2-0.4-0.2-0.6
			c-0.1-0.2-0.2-0.4-0.2-0.6c-0.1-0.2-0.2-0.4-0.3-0.6C1288.8,251.6,1288.8,251.5,1288.8,251.5
			C1288.8,251.5,1288.8,251.5,1288.8,251.5z"/>
	</g>
</g>
<g>
	<g>
		<text transform="matrix(1 0 0 1 12.613 -159.6707)" class="st13 st7 st8">Country Club</text>
		<text transform="matrix(1 0 0 1 58.2058 -124.5076)" class="st2 st9 st11" style="font-size:27.5276px;">Day Activity</text>
	</g>
	<g>
		<path class="st13" d="M218.3-249.4c-0.9-2.5-2-4.8-3.1-7.2c-1.3-2.3-2.5-4.6-3.9-6.7c-1.3-2.2-3-4.2-4.5-6.3l-2.5-2.9
			c-0.4-0.5-0.8-1-1.3-1.4l-1.4-1.4c-6-6-12.7-11.1-19.9-15.4c0,0,0,0,0,0c0,0.1-0.1,0.3-0.2,0.4c6.7,4.8,12.9,10.3,18.2,16.6
			l1.2,1.4c0.4,0.5,0.7,1,1.1,1.5l2.2,3c1.3,2.1,2.7,4.1,3.8,6.3c1.2,2.1,2.2,4.4,3.2,6.6c0.9,2.3,1.7,4.6,2.4,6.9
			c2.7,9.4,3.2,19.2,1.8,28.7c-0.3,2.1-0.7,4.3-1.2,6.4c-0.2,0.9,0.5,1.8,1.4,1.8h5.2c0.6,0,1.2-0.5,1.3-1.1
			c0.3-2.1,0.5-4.3,0.6-6.4C223.4-228.9,222-239.6,218.3-249.4z"/>
		<path class="st2" d="M159.8-268.5l-13-5.5c-0.4-0.2-0.8,0.2-0.8,0.6l1.9,14c0.1,0.6-0.7,0.9-1,0.4l-8.5-11.3
			c-0.3-0.4-0.8-0.3-1,0.1l-5.4,13.1c-0.2,0.5-1,0.4-1.1-0.1l-1.7-14c-0.1-0.4-0.6-0.6-0.9-0.4L117-263c-0.5,0.4-1.1-0.1-0.9-0.7
			l5.5-13c0.2-0.4-0.2-0.8-0.6-0.8l-14,1.9c-0.6,0.1-0.9-0.7-0.4-1l11.3-8.5c0.4-0.3,0.3-0.8-0.1-1l-13.1-5.4
			c-0.5-0.2-0.4-1,0.1-1.1l14-1.7c0.4-0.1,0.6-0.6,0.4-0.9l-8.6-11.2c-0.4-0.5,0.1-1.1,0.7-0.9l13,5.5c0.4,0.2,0.8-0.2,0.8-0.6
			l-1.9-14c-0.1-0.6,0.7-0.9,1-0.4l8.5,11.3c0.3,0.4,0.8,0.3,1-0.1l5.4-13.1c0.2-0.5,1-0.4,1.1,0.1l1.7,14c0.1,0.4,0.6,0.6,0.9,0.4
			l11.2-8.6c0.5-0.4,1.1,0.1,0.9,0.7l-5.5,13c-0.2,0.4,0.2,0.8,0.6,0.8l14-1.9c0.6-0.1,0.9,0.7,0.4,1l-11.3,8.5
			c-0.4,0.3-0.3,0.8,0.1,1l13.1,5.4c0.5,0.2,0.4,1-0.1,1.1l-14,1.7c-0.4,0.1-0.6,0.6-0.4,0.9l8.6,11.2
			C160.8-268.9,160.4-268.2,159.8-268.5z"/>
		<circle class="st1" cx="135.6" cy="-287.9" r="13.2"/>
		<path class="st13" d="M176.3-288.8C176.3-288.8,176.3-288.9,176.3-288.8c-0.1,0-0.2,0.1-0.3,0.2c0,0,0,0,0,0
			c0,0.8,0.1,1.6,0.1,2.4c0,2.1-0.2,4.2-0.4,6.2c-0.5,4.1-1.6,8.2-3.1,12c-1.5,3.8-3.3,7.6-5.5,11c-1,1.8-2.3,3.4-3.5,5
			c-0.6,0.8-1.3,1.6-1.9,2.4c-0.7,0.8-1.3,1.6-2,2.3c-5.6,6-12,11.2-18.8,15.6c-6.9,4.4-14.3,8.1-21.8,11.4
			c-6.3,2.6-12.6,4.9-19.1,6.9c-1.4,0.4-1.1,2.5,0.4,2.5h16.3c0.9,0,1.8-0.2,2.6-0.6c1.1-0.5,2.2-1.1,3.3-1.6
			c7.6-4.1,14.9-8.5,21.8-13.7c6.8-5.2,13.1-11.2,18.5-17.9c0.7-0.9,1.3-1.7,1.9-2.6c0.6-0.9,1.3-1.7,1.8-2.6
			c1.1-1.8,2.3-3.6,3.3-5.6c2.1-3.8,3.6-7.8,4.8-11.9c1.2-4.1,2-8.3,2.1-12.5c0.1-2.1,0.1-4.2-0.1-6.3
			C176.5-287.2,176.4-288,176.3-288.8z"/>
		<path class="st13" d="M173-225.8c-3.6,4.6-7.8,8.7-12.6,12.2c-0.3,0.2-0.2,0.8,0.2,0.8l9.3,0.7c0.5,0,0.9-0.1,1.2-0.5
			c1.6-1.7,4.3-4.7,4.3-4.7c2-2.5,3.8-5.1,5.4-7.8c0.1-0.2,0-0.4-0.2-0.4l-7.3-0.5C173.2-225.9,173.1-225.9,173-225.8z"/>
		<path class="st13" d="M181.6-240.7c-1.4,3.4-3,6.7-5,9.7c-0.2,0.3,0,0.7,0.4,0.7l5.9,0.3c0.3,0,0.6-0.2,0.7-0.4
			c1.5-3.2,2.7-6.5,3.6-9.9c0.1-0.3-0.1-0.6-0.4-0.6l-4.7-0.1C181.8-241,181.7-240.9,181.6-240.7z"/>
		<path class="st13" d="M185.5-253.5c-0.1,0-0.2,0-0.2,0.1c0,0.1-0.1,0.1-0.1,0.2c-0.4,2.6-1,5.1-1.8,7.6c-0.1,0.2,0.1,0.4,0.3,0.4
			l4.4,0.2c0.2,0,0.3-0.1,0.3-0.3c0.5-2.5,0.8-5.1,0.9-7.7c0-0.2-0.1-0.3-0.3-0.3L185.5-253.5z"/>
		<path class="st13" d="M189.3-257.6c0-2-0.2-3.9-0.4-5.8c0-0.2-0.2-0.3-0.3-0.3c-0.3,0-0.7,0-1,0c-0.4,0-0.8,0-1.3,0
			c-0.1,0-0.2,0-0.2,0.1c0,0,0,0.1,0,0.2c0,1,0,1.9-0.1,2.9c0,1-0.1,1.9-0.2,2.9c0,0,0,0.1,0,0.1c0,0.2,0.1,0.4,0.3,0.4l2.9,0
			C189.1-257.3,189.3-257.4,189.3-257.6z"/>
		<path class="st13" d="M187.1-272.5c0-0.1-0.1-0.2-0.2-0.2c0,0-1.3,0.1-1.3,0.1c-0.1,0-0.2,0.2-0.2,0.3c0.1,0.5,0.1,0.9,0.2,1.4
			c0.1,0.5,0.1,1,0.2,1.5c0,0.5,0.1,1,0.1,1.5c0,0.1,0.2,0.2,0.3,0.2h1.8c0.1,0,0.3-0.1,0.2-0.3C187.9-269.5,187.5-271,187.1-272.5z
			"/>
		<path class="st13" d="M184.3-280.6C184.2-280.6,184.2-280.7,184.3-280.6c-0.1-0.1-0.2,0-0.3,0c0,0-0.1,0-0.1,0
			c-0.1,0-0.1,0-0.2,0.1c0,0.1,0,0.1,0,0.2c0,0.1,0,0.2,0.1,0.2c0,0.2,0.1,0.3,0.1,0.5c0.1,0.3,0.2,0.6,0.2,0.9
			c0.1,0.3,0.2,0.6,0.2,0.9c0.1,0.3,0.1,0.6,0.2,1c0,0.2,0.1,0.3,0.1,0.5c0,0.1,0,0.2,0.1,0.2c0,0,0,0.1,0,0.1c0,0,0,0.1,0,0.1
			c0,0,0.1,0.1,0.1,0.1c0,0,0,0,0.1,0c0.1,0,0.1,0,0.2,0c0.1,0,0.3,0,0.4,0c0,0,0.1,0,0.1,0c0,0,0.1,0,0.2,0c0.1,0,0.1-0.1,0.1-0.1
			c0,0,0-0.1,0-0.1c0,0,0-0.1,0-0.1c0-0.1-0.1-0.2-0.1-0.2c-0.1-0.2-0.1-0.3-0.2-0.5c0,0,0,0,0,0c-0.1-0.3-0.2-0.6-0.3-0.9
			c-0.1-0.3-0.2-0.6-0.3-0.9c-0.1-0.3-0.2-0.6-0.4-0.9c-0.1-0.3-0.2-0.6-0.4-0.9C184.3-280.5,184.3-280.5,184.3-280.6
			C184.3-280.6,184.3-280.6,184.3-280.6z"/>
	</g>
</g>
<g>
	<g>
		<text transform="matrix(1 0 0 1 385.3791 -160.699)" class="st7 st8" style="fill:#4E4E4E;">Country Club</text>
		<g>
			<text transform="matrix(1 0 0 1 430.9719 -125.5359)" class="st9 st11" style="fill:#FBB040; font-size:27.5276px;">Day Activity</text>
		</g>
	</g>
	<g>
		<circle class="st12" cx="533.7" cy="-257.2" r="48.2"/>
		<path class="st13" d="M575.6-233.5c-0.4-4.2-1.4-8.3-2.8-12.2c-0.6-1.7-1.4-3.3-2.1-4.9c-0.9-1.5-1.7-3.1-2.7-4.6
			c-0.9-1.5-2-2.9-3.1-4.3l-1.7-2c-0.3-0.3-0.6-0.7-0.9-1l-0.9-0.9c-4-4.1-8.6-7.5-13.5-10.4c0,0,0,0,0,0c0,0.1-0.1,0.2-0.1,0.3
			c4.6,3.3,8.8,7,12.4,11.3l0.8,1c0.3,0.3,0.5,0.7,0.8,1l1.5,2c0.9,1.4,1.9,2.8,2.6,4.3c0.8,1.4,1.5,3,2.2,4.5
			c0.6,1.6,1.2,3.1,1.6,4.7c1.7,5.8,2.1,11.9,1.4,17.8C572.8-228.9,574.3-231.1,575.6-233.5z"/>
		<path class="st14" d="M532.8-258.6l-8-3.4c-0.2-0.1-0.5,0.1-0.5,0.4l1.1,8.6c0,0.4-0.4,0.5-0.6,0.3l-5.2-6.9
			c-0.2-0.2-0.5-0.2-0.6,0.1l-3.3,8c-0.1,0.3-0.6,0.3-0.7-0.1l-1.1-8.6c0-0.3-0.3-0.4-0.6-0.2l-6.9,5.3c-0.3,0.2-0.7-0.1-0.5-0.4
			l3.4-8c0.1-0.2-0.1-0.5-0.4-0.5l-8.6,1.1c-0.4,0-0.5-0.4-0.3-0.6l6.9-5.2c0.2-0.2,0.2-0.5-0.1-0.6l-8-3.3
			c-0.3-0.1-0.3-0.6,0.1-0.7l8.6-1.1c0.3,0,0.4-0.3,0.2-0.6l-5.3-6.9c-0.2-0.3,0.1-0.7,0.4-0.5l8,3.4c0.2,0.1,0.5-0.1,0.5-0.4
			l-1.1-8.6c0-0.4,0.4-0.5,0.6-0.3l5.2,6.9c0.2,0.2,0.5,0.2,0.6-0.1l3.3-8c0.1-0.3,0.6-0.3,0.7,0.1l1.1,8.6c0,0.3,0.3,0.4,0.6,0.2
			l6.9-5.3c0.3-0.2,0.7,0.1,0.5,0.4l-3.4,8c-0.1,0.2,0.1,0.5,0.4,0.5l8.6-1.1c0.4,0,0.5,0.4,0.3,0.6l-6.9,5.2
			c-0.2,0.2-0.2,0.5,0.1,0.6l8,3.3c0.3,0.1,0.3,0.6-0.1,0.7l-8.6,1.1c-0.3,0-0.4,0.3-0.2,0.6l5.3,6.9
			C533.5-258.8,533.2-258.4,532.8-258.6z"/>
		<circle class="st1" cx="517.9" cy="-270.5" r="8.1"/>
		<path class="st13" d="M544.3-272.4C544.3-272.4,544.3-272.4,544.3-272.4c-0.1,0-0.1,0.1-0.2,0.1c0,0,0,0,0,0
			c0,0.5,0.1,1.1,0.1,1.6c0,1.4-0.1,2.8-0.3,4.2c-0.4,2.8-1.1,5.5-2.1,8.2c-1,2.6-2.2,5.1-3.8,7.5c-0.7,1.2-1.6,2.3-2.4,3.4
			c-0.4,0.6-0.9,1.1-1.3,1.6c-0.5,0.5-0.9,1.1-1.4,1.6c-3.8,4.1-8.1,7.6-12.8,10.6c-4.7,3-9.7,5.5-14.8,7.7c-2,0.8-4.1,1.6-6.1,2.4
			c1.4,1.4,2.9,2.8,4.5,4c0.6,0,1.2-0.1,1.7-0.4c0.7-0.4,1.5-0.7,2.2-1.1c5.1-2.8,10.1-5.8,14.8-9.3c4.6-3.5,8.9-7.6,12.5-12.2
			c0.4-0.6,0.9-1.2,1.3-1.8c0.4-0.6,0.9-1.2,1.2-1.8c0.8-1.3,1.6-2.5,2.2-3.8c1.4-2.6,2.5-5.3,3.3-8.1c0.8-2.8,1.3-5.6,1.5-8.5
			c0-1.4,0.1-2.9-0.1-4.3C544.4-271.3,544.4-271.9,544.3-272.4z"/>
		<path class="st13" d="M542.1-229.6c-2.4,3.1-5.3,5.9-8.6,8.3c-0.2,0.2-0.1,0.5,0.2,0.6l6.3,0.5c0.3,0,0.6-0.1,0.8-0.3
			c1.1-1.1,2.9-3.2,2.9-3.2c1.4-1.7,2.6-3.4,3.7-5.3c0.1-0.1,0-0.3-0.1-0.3l-4.9-0.3C542.2-229.7,542.1-229.7,542.1-229.6z"/>
		<path class="st13" d="M547.9-239.7c-0.9,2.3-2.1,4.5-3.4,6.6c-0.1,0.2,0,0.5,0.2,0.5l4,0.2c0.2,0,0.4-0.1,0.5-0.3
			c1-2.2,1.8-4.4,2.4-6.8c0.1-0.2-0.1-0.4-0.3-0.4l-3.2-0.1C548.1-239.9,547.9-239.8,547.9-239.7z"/>
		<path class="st13" d="M550.5-248.4c-0.1,0-0.1,0-0.2,0c0,0,0,0.1-0.1,0.1c-0.3,1.8-0.7,3.5-1.2,5.1c0,0.1,0.1,0.3,0.2,0.3l3,0.1
			c0.1,0,0.2-0.1,0.2-0.2c0.3-1.7,0.5-3.5,0.6-5.3c0-0.1-0.1-0.2-0.2-0.2L550.5-248.4z"/>
		<path class="st13" d="M553.1-251.2c0-1.3-0.1-2.6-0.3-3.9c0-0.1-0.1-0.2-0.2-0.2c-0.2,0-0.5,0-0.7,0c-0.3,0-0.6,0-0.9,0
			c-0.1,0-0.1,0-0.2,0.1c0,0,0,0.1,0,0.1c0,0.6,0,1.3,0,1.9c0,0.6-0.1,1.3-0.1,1.9c0,0,0,0,0,0.1c0,0.1,0.1,0.2,0.2,0.2l2,0
			C553-251,553.1-251.1,553.1-251.2z"/>
		<path class="st13" d="M551.6-261.3c0-0.1-0.1-0.1-0.2-0.1c0,0-0.9,0-0.9,0c-0.1,0-0.1,0.1-0.1,0.2c0,0.3,0.1,0.6,0.1,0.9
			c0,0.3,0.1,0.7,0.1,1c0,0.3,0.1,0.7,0.1,1c0,0.1,0.1,0.2,0.2,0.2h1.2c0.1,0,0.2-0.1,0.2-0.2C552.2-259.3,551.9-260.3,551.6-261.3z
			"/>
		<path class="st13" d="M549.7-266.8C549.7-266.9,549.7-266.9,549.7-266.8c-0.1,0-0.1,0-0.2,0c0,0-0.1,0-0.1,0c0,0-0.1,0-0.1,0.1
			c0,0,0,0.1,0,0.1c0,0.1,0,0.1,0,0.2c0,0.1,0.1,0.2,0.1,0.3c0.1,0.2,0.1,0.4,0.2,0.6c0.1,0.2,0.1,0.4,0.2,0.6
			c0.1,0.2,0.1,0.4,0.1,0.6c0,0.1,0,0.2,0.1,0.3c0,0.1,0,0.1,0,0.2c0,0,0,0.1,0,0.1c0,0,0,0.1,0,0.1c0,0,0,0,0.1,0c0,0,0,0,0.1,0
			c0,0,0.1,0,0.1,0c0.1,0,0.2,0,0.3,0c0,0,0.1,0,0.1,0c0,0,0.1,0,0.1,0c0,0,0.1,0,0.1-0.1c0,0,0,0,0-0.1c0,0,0,0,0-0.1
			c0-0.1,0-0.1-0.1-0.2c0-0.1-0.1-0.2-0.1-0.3c0,0,0,0,0,0c-0.1-0.2-0.2-0.4-0.2-0.6c-0.1-0.2-0.2-0.4-0.2-0.6
			c-0.1-0.2-0.2-0.4-0.2-0.6c-0.1-0.2-0.2-0.4-0.3-0.6C549.7-266.7,549.7-266.8,549.7-266.8C549.7-266.8,549.7-266.8,549.7-266.8z"
			/>
	</g>
</g>
<g>
	<g>
		<circle class="st15" cx="2009.2" cy="254" r="47"/>
		<path class="st13" d="M2050.1,277.2c-0.4-4.1-1.3-8.1-2.8-11.9c-0.6-1.6-1.3-3.2-2.1-4.8c-0.8-1.5-1.6-3-2.6-4.4
			c-0.9-1.5-2-2.8-3-4.2l-1.7-1.9c-0.3-0.3-0.6-0.6-0.8-1l-0.9-0.9c-3.9-4-8.4-7.3-13.2-10.2c0,0,0,0,0,0c0,0.1-0.1,0.2-0.1,0.3
			c4.5,3.2,8.6,6.9,12.1,11l0.8,0.9c0.3,0.3,0.5,0.7,0.7,1l1.5,2c0.9,1.4,1.8,2.7,2.5,4.2c0.8,1.4,1.5,2.9,2.1,4.4
			c0.6,1.5,1.2,3,1.6,4.6c1.6,5.7,2,11.6,1.4,17.4C2047.3,281.7,2048.8,279.5,2050.1,277.2z"/>
		<path class="st1" d="M2008.4,252.8l-7.8-3.3c-0.2-0.1-0.5,0.1-0.5,0.4l1.1,8.4c0,0.3-0.4,0.5-0.6,0.2l-5.1-6.8
			c-0.2-0.2-0.5-0.2-0.6,0.1l-3.2,7.8c-0.1,0.3-0.6,0.3-0.7-0.1l-1-8.4c0-0.3-0.3-0.4-0.5-0.2l-6.7,5.2c-0.3,0.2-0.7-0.1-0.5-0.4
			l3.3-7.8c0.1-0.2-0.1-0.5-0.4-0.5l-8.4,1.1c-0.3,0-0.5-0.4-0.2-0.6l6.8-5.1c0.2-0.2,0.2-0.5-0.1-0.6l-7.8-3.2
			c-0.3-0.1-0.3-0.6,0.1-0.7l8.4-1c0.3,0,0.4-0.3,0.2-0.5l-5.2-6.7c-0.2-0.3,0.1-0.7,0.4-0.5l7.8,3.3c0.2,0.1,0.5-0.1,0.5-0.4
			l-1.1-8.4c0-0.3,0.4-0.5,0.6-0.2l5.1,6.8c0.2,0.2,0.5,0.2,0.6-0.1l3.2-7.8c0.1-0.3,0.6-0.3,0.7,0.1l1,8.4c0,0.3,0.3,0.4,0.5,0.2
			l6.7-5.2c0.3-0.2,0.7,0.1,0.5,0.4l-3.3,7.8c-0.1,0.2,0.1,0.5,0.4,0.5l8.4-1.1c0.3,0,0.5,0.4,0.2,0.6l-6.8,5.1
			c-0.2,0.2-0.2,0.5,0.1,0.6l7.8,3.2c0.3,0.1,0.3,0.6-0.1,0.7l-8.4,1c-0.3,0-0.4,0.3-0.2,0.5l5.2,6.7
			C2009,252.5,2008.7,252.9,2008.4,252.8z"/>
		<circle class="st15" cx="1993.9" cy="241.1" r="7.9"/>
		<path class="st13" d="M2019.6,239.2C2019.5,239.2,2019.5,239.2,2019.6,239.2c-0.1,0-0.1,0.1-0.2,0.1c0,0,0,0,0,0
			c0,0.5,0.1,1.1,0.1,1.6c0,1.4-0.1,2.8-0.3,4.1c-0.3,2.7-1,5.4-2,7.9c-1,2.5-2.2,5-3.7,7.3c-0.7,1.2-1.5,2.2-2.3,3.3
			c-0.4,0.6-0.9,1-1.3,1.6c-0.4,0.5-0.9,1-1.3,1.5c-3.7,4-7.9,7.4-12.5,10.3c-4.6,2.9-9.4,5.4-14.4,7.5c-2,0.8-4,1.6-6,2.3
			c1.4,1.4,2.8,2.7,4.4,3.9c0.6,0,1.2-0.1,1.7-0.4c0.7-0.4,1.5-0.7,2.2-1.1c5-2.7,9.9-5.6,14.4-9.1c4.5-3.4,8.7-7.4,12.2-11.9
			c0.4-0.6,0.8-1.2,1.3-1.7c0.4-0.6,0.9-1.1,1.2-1.8c0.7-1.2,1.5-2.4,2.2-3.7c1.4-2.5,2.4-5.2,3.2-7.9c0.8-2.7,1.3-5.5,1.4-8.3
			c0-1.4,0.1-2.8-0.1-4.2C2019.7,240.3,2019.6,239.8,2019.6,239.2z"/>
		<path class="st13" d="M2017.4,281c-2.4,3.1-5.2,5.8-8.3,8.1c-0.2,0.2-0.1,0.5,0.1,0.5l6.2,0.5c0.3,0,0.6-0.1,0.8-0.3
			c1.1-1.1,2.8-3.1,2.8-3.1c1.3-1.6,2.5-3.4,3.6-5.2c0.1-0.1,0-0.3-0.1-0.3l-4.8-0.3C2017.5,280.9,2017.5,280.9,2017.4,281z"/>
		<path class="st13" d="M2023.1,271.1c-0.9,2.3-2,4.4-3.3,6.4c-0.1,0.2,0,0.5,0.2,0.5l3.9,0.2c0.2,0,0.4-0.1,0.5-0.3
			c1-2.1,1.8-4.3,2.4-6.6c0.1-0.2-0.1-0.4-0.3-0.4l-3.1-0.1C2023.2,270.9,2023.1,271,2023.1,271.1z"/>
		<path class="st13" d="M2025.6,262.7c-0.1,0-0.1,0-0.2,0c0,0,0,0.1-0.1,0.1c-0.3,1.7-0.7,3.4-1.2,5c0,0.1,0.1,0.3,0.2,0.3l2.9,0.1
			c0.1,0,0.2-0.1,0.2-0.2c0.3-1.7,0.5-3.4,0.6-5.1c0-0.1-0.1-0.2-0.2-0.2L2025.6,262.7z"/>
		<path class="st13" d="M2028.2,259.9c0-1.3-0.1-2.6-0.3-3.8c0-0.1-0.1-0.2-0.2-0.2c-0.2,0-0.5,0-0.7,0c-0.3,0-0.6,0-0.8,0
			c-0.1,0-0.1,0-0.2,0.1c0,0,0,0.1,0,0.1c0,0.6,0,1.3,0,1.9c0,0.6-0.1,1.3-0.1,1.9c0,0,0,0,0,0.1c0,0.1,0.1,0.2,0.2,0.2l1.9,0
			C2028.1,260.1,2028.2,260,2028.2,259.9z"/>
		<path class="st13" d="M2026.7,250.1c0-0.1-0.1-0.1-0.1-0.1c0,0-0.9,0-0.9,0c-0.1,0-0.1,0.1-0.1,0.2c0,0.3,0.1,0.6,0.1,0.9
			c0,0.3,0.1,0.6,0.1,1c0,0.3,0.1,0.7,0.1,1c0,0.1,0.1,0.1,0.2,0.1h1.2c0.1,0,0.2-0.1,0.2-0.2C2027.2,252,2027,251.1,2026.7,250.1z"
			/>
		<path class="st13" d="M2024.8,244.7C2024.8,244.7,2024.8,244.7,2024.8,244.7c-0.1,0-0.1,0-0.2,0c0,0-0.1,0-0.1,0
			c0,0-0.1,0-0.1,0.1c0,0,0,0.1,0,0.1c0,0.1,0,0.1,0,0.2c0,0.1,0.1,0.2,0.1,0.3c0.1,0.2,0.1,0.4,0.2,0.6c0.1,0.2,0.1,0.4,0.2,0.6
			c0.1,0.2,0.1,0.4,0.1,0.6c0,0.1,0,0.2,0.1,0.3c0,0.1,0,0.1,0,0.2c0,0,0,0.1,0,0.1c0,0,0,0.1,0,0.1c0,0,0,0,0.1,0c0,0,0,0,0,0
			c0,0,0.1,0,0.1,0c0.1,0,0.2,0,0.3,0c0,0,0.1,0,0.1,0c0,0,0.1,0,0.1,0c0,0,0.1,0,0.1-0.1c0,0,0,0,0-0.1c0,0,0,0,0-0.1
			c0-0.1,0-0.1-0.1-0.2c0-0.1-0.1-0.2-0.1-0.3c0,0,0,0,0,0c-0.1-0.2-0.1-0.4-0.2-0.6c-0.1-0.2-0.2-0.4-0.2-0.6
			c-0.1-0.2-0.2-0.4-0.2-0.6c-0.1-0.2-0.2-0.4-0.2-0.6C2024.9,244.8,2024.9,244.7,2024.8,244.7
			C2024.8,244.7,2024.8,244.7,2024.8,244.7z"/>
	</g>
	<g>
		<text transform="matrix(1 0 0 1 1860.9259 352.5315)" class="st15 st7 st8">Country Club</text>
		<text transform="matrix(1 0 0 1 1906.5187 387.6945)" class="st2 st9 st11" style="font-size:27.5276px;">Day Activity</text>
	</g>
</g>
<g>
	<g>
		<text transform="matrix(1 0 0 1 1860.9259 -74.0115)" class="st15 st7 st8">Country Club</text>
		<text transform="matrix(1 0 0 1 1906.5187 -37.8484)" class="st2 st9 st10 st11">Day Activity</text>
	</g>
	<g>
		<path class="st15" d="M2067.6-163.8c-0.9-2.5-2-4.8-3.1-7.2c-1.3-2.3-2.5-4.6-3.9-6.7c-1.3-2.2-3-4.2-4.5-6.3l-2.5-2.9
			c-0.4-0.5-0.8-1-1.3-1.4l-1.4-1.4c-6-6-12.7-11.1-19.9-15.4c0,0,0,0,0,0c0,0.1-0.1,0.3-0.2,0.4c6.7,4.8,12.9,10.3,18.2,16.6
			l1.2,1.4c0.4,0.5,0.7,1,1.1,1.5l2.2,3c1.3,2.1,2.7,4.1,3.8,6.3c1.2,2.1,2.2,4.4,3.2,6.6c0.9,2.3,1.7,4.6,2.4,6.9
			c2.7,9.4,3.2,19.2,1.8,28.7c-0.3,2.1-0.7,4.3-1.2,6.4c-0.2,0.9,0.5,1.8,1.4,1.8h5.2c0.6,0,1.2-0.5,1.3-1.1
			c0.3-2.1,0.5-4.3,0.6-6.4C2072.7-143.3,2071.3-154,2067.6-163.8z"/>
		<path class="st2" d="M2009.1-182.8l-13-5.5c-0.4-0.2-0.8,0.2-0.8,0.6l1.9,14c0.1,0.6-0.7,0.9-1,0.4l-8.5-11.3
			c-0.3-0.4-0.8-0.3-1,0.1l-5.4,13.1c-0.2,0.5-1,0.4-1.1-0.1l-1.7-14c-0.1-0.4-0.6-0.6-0.9-0.4l-11.2,8.6c-0.5,0.4-1.1-0.1-0.9-0.7
			l5.5-13c0.2-0.4-0.2-0.8-0.6-0.8l-14,1.9c-0.6,0.1-0.9-0.7-0.4-1l11.3-8.5c0.4-0.3,0.3-0.8-0.1-1l-13.1-5.4
			c-0.5-0.2-0.4-1,0.1-1.1l14-1.7c0.4-0.1,0.6-0.6,0.4-0.9l-8.6-11.2c-0.4-0.5,0.1-1.1,0.7-0.9l13,5.5c0.4,0.2,0.8-0.2,0.8-0.6
			l-1.9-14c-0.1-0.6,0.7-0.9,1-0.4l8.5,11.3c0.3,0.4,0.8,0.3,1-0.1l5.4-13.1c0.2-0.5,1-0.4,1.1,0.1l1.7,14c0.1,0.4,0.6,0.6,0.9,0.4
			l11.2-8.6c0.5-0.4,1.1,0.1,0.9,0.7l-5.5,13c-0.2,0.4,0.2,0.8,0.6,0.8l14-1.9c0.6-0.1,0.9,0.7,0.4,1l-11.3,8.5
			c-0.4,0.3-0.3,0.8,0.1,1l13.1,5.4c0.5,0.2,0.4,1-0.1,1.1l-14,1.7c-0.4,0.1-0.6,0.6-0.4,0.9l8.6,11.2
			C2010.2-183.2,2009.7-182.6,2009.1-182.8z"/>
		<circle class="st1" cx="1984.9" cy="-202.2" r="13.2"/>
		<path class="st15" d="M2025.6-203.2C2025.6-203.2,2025.6-203.2,2025.6-203.2c-0.1,0-0.2,0.1-0.3,0.2c0,0,0,0,0,0
			c0,0.8,0.1,1.6,0.1,2.4c0,2.1-0.2,4.2-0.4,6.2c-0.5,4.1-1.6,8.2-3.1,12c-1.5,3.8-3.3,7.6-5.5,11c-1,1.8-2.3,3.4-3.5,5
			c-0.6,0.8-1.3,1.6-1.9,2.4c-0.7,0.8-1.3,1.6-2,2.3c-5.6,6-12,11.2-18.8,15.6c-6.9,4.4-14.3,8.1-21.8,11.4
			c-6.3,2.6-12.6,4.9-19.1,6.9c-1.4,0.4-1.1,2.5,0.4,2.5l16.3,0c0.9,0,1.8-0.2,2.6-0.6c1.1-0.5,2.2-1.1,3.3-1.6
			c7.6-4.1,14.9-8.5,21.8-13.7c6.8-5.2,13.1-11.2,18.5-17.9c0.7-0.9,1.3-1.7,1.9-2.6c0.6-0.9,1.3-1.7,1.8-2.6
			c1.1-1.8,2.3-3.6,3.3-5.6c2.1-3.8,3.6-7.8,4.8-11.9c1.2-4.1,2-8.3,2.1-12.5c0.1-2.1,0.1-4.2-0.1-6.3
			C2025.8-201.5,2025.7-202.3,2025.6-203.2z"/>
		<path class="st15" d="M2022.3-140.1c-3.6,4.6-7.8,8.7-12.6,12.2c-0.3,0.2-0.2,0.8,0.2,0.8l9.3,0.7c0.5,0,0.9-0.1,1.2-0.5
			c1.6-1.7,4.3-4.7,4.3-4.7c2-2.5,3.8-5.1,5.4-7.8c0.1-0.2,0-0.4-0.2-0.4l-7.3-0.5C2022.6-140.3,2022.4-140.2,2022.3-140.1z"/>
		<path class="st15" d="M2030.9-155c-1.4,3.4-3,6.7-5,9.7c-0.2,0.3,0,0.7,0.4,0.7l5.9,0.3c0.3,0,0.6-0.2,0.7-0.4
			c1.5-3.2,2.7-6.5,3.6-9.9c0.1-0.3-0.1-0.6-0.4-0.6l-4.7-0.1C2031.2-155.3,2031-155.2,2030.9-155z"/>
		<path class="st15" d="M2034.8-167.8c-0.1,0-0.2,0-0.2,0.1c0,0.1-0.1,0.1-0.1,0.2c-0.4,2.6-1,5.1-1.8,7.6c-0.1,0.2,0.1,0.4,0.3,0.4
			l4.4,0.2c0.2,0,0.3-0.1,0.3-0.3c0.5-2.5,0.8-5.1,0.9-7.7c0-0.2-0.1-0.3-0.3-0.3L2034.8-167.8z"/>
		<path class="st15" d="M2038.6-172c0-2-0.2-3.9-0.4-5.8c0-0.2-0.2-0.3-0.3-0.3c-0.3,0-0.7,0-1,0c-0.4,0-0.8,0-1.3,0
			c-0.1,0-0.2,0-0.2,0.1c0,0,0,0.1,0,0.2c0,1,0,1.9-0.1,2.9c0,1-0.1,1.9-0.2,2.9c0,0,0,0.1,0,0.1c0,0.2,0.1,0.4,0.3,0.4l2.9,0
			C2038.4-171.6,2038.6-171.8,2038.6-172z"/>
		<path class="st15" d="M2036.4-186.8c0-0.1-0.1-0.2-0.2-0.2c0,0-1.3,0.1-1.3,0.1c-0.1,0-0.2,0.2-0.2,0.3c0.1,0.5,0.1,0.9,0.2,1.4
			c0.1,0.5,0.1,1,0.2,1.5c0,0.5,0.1,1,0.1,1.5c0,0.1,0.2,0.2,0.3,0.2h1.8c0.1,0,0.3-0.1,0.2-0.3
			C2037.2-183.8,2036.8-185.3,2036.4-186.8z"/>
		<path class="st15" d="M2033.6-195C2033.5-195,2033.5-195,2033.6-195c-0.1-0.1-0.2,0-0.3,0c0,0-0.1,0-0.1,0c-0.1,0-0.1,0-0.2,0.1
			c0,0.1,0,0.1,0,0.2c0,0.1,0,0.2,0.1,0.2c0,0.2,0.1,0.3,0.1,0.5c0.1,0.3,0.2,0.6,0.2,0.9c0.1,0.3,0.2,0.6,0.2,0.9
			c0.1,0.3,0.1,0.6,0.2,1c0,0.2,0.1,0.3,0.1,0.5c0,0.1,0,0.2,0.1,0.2c0,0,0,0.1,0,0.1c0,0,0,0.1,0,0.1c0,0,0.1,0.1,0.1,0.1
			c0,0,0,0,0.1,0c0.1,0,0.1,0,0.2,0c0.1,0,0.3,0,0.4,0c0,0,0.1,0,0.1,0c0,0,0.1,0,0.2,0c0.1,0,0.1-0.1,0.1-0.1c0,0,0-0.1,0-0.1
			c0,0,0-0.1,0-0.1c0-0.1-0.1-0.2-0.1-0.2c-0.1-0.2-0.1-0.3-0.2-0.5c0,0,0,0,0,0c-0.1-0.3-0.2-0.6-0.3-0.9c-0.1-0.3-0.2-0.6-0.3-0.9
			c-0.1-0.3-0.2-0.6-0.4-0.9c-0.1-0.3-0.2-0.6-0.4-0.9C2033.6-194.8,2033.6-194.9,2033.6-195C2033.6-194.9,2033.6-194.9,2033.6-195z
			"/>
	</g>
</g>
<g>
	<text transform="matrix(1 0 0 1 1138.886 -364.2444)" class="st12 st9 st11" style="font-size:30px;">Color Option 1</text>
</g>
<g>
	<text transform="matrix(1 0 0 1 1131.5962 594.0924)" class="st12 st9" style="font-size:16.9897px; letter-spacing:1;">dark background variation</text>
</g>
<g>
	<text transform="matrix(1 0 0 1 1196.86 164.4334)" class="st12 st9" style="font-size:16.9897px; letter-spacing:1;">Logo as an Icon</text>
</g>
<g>
	<text transform="matrix(1 0 0 1 1922.635 169.4334)" class="st15 st9" style="font-size:16.9897px; letter-spacing:1;">Logo as an Icon</text>
</g>
<g>
	<text transform="matrix(1 0 0 1 1857.3704 594.0924)" class="st15 st9" style="font-size:16.9897px; letter-spacing:1;">dark background variation</text>
</g>
<g>
	<text transform="matrix(1 0 0 1 1864.4258 -363.4012)" class="st15 st9 st11" style="font-size:30px;">Color Option 2</text>
</g>
<rect x="1642.6" y="-370.4" class="st16" width="4.6" height="1421.6"/>
</svg>
