<?xml version="1.0" encoding="UTF-8"?> <svg xmlns="http://www.w3.org/2000/svg" viewBox="0 0 96.41 96.41"><defs><style>.cls-1{fill:#135f69;}.cls-2{fill:#f1f2f2;}.cls-3{fill:#f6b86f;}.cls-4{fill:#fff;}</style></defs><g id="Layer_2" data-name="Layer 2"><g id="Layer_1-2" data-name="Layer 1"><circle class="cls-1" cx="48.2" cy="48.2" r="48.2"></circle><path class="cls-2" d="M90.14,72A49,49,0,0,0,87.3,59.79a52.86,52.86,0,0,0-2.12-4.88c-.86-1.54-1.68-3.11-2.68-4.55s-2-2.86-3.09-4.26l-1.72-2c-.29-.33-.57-.66-.87-1l-.93-.92A68.47,68.47,0,0,0,62.4,31.8h0a.81.81,0,0,1-.11.27A67.5,67.5,0,0,1,74.66,43.35l.82,1c.27.33.51.68.76,1l1.51,2c.88,1.43,1.86,2.79,2.61,4.29s1.48,3,2.17,4.5a48.2,48.2,0,0,1,1.61,4.7,46.42,46.42,0,0,1,1.43,17.81A48.75,48.75,0,0,0,90.14,72Z"></path><path class="cls-3" d="M47.33,46.89l-8-3.39a.35.35,0,0,0-.49.37L40,52.49a.35.35,0,0,1-.63.26l-5.24-7a.35.35,0,0,0-.6.08l-3.32,8a.35.35,0,0,1-.67-.09l-1.07-8.64a.34.34,0,0,0-.56-.23L21,50.26a.35.35,0,0,1-.53-.41l3.39-8a.35.35,0,0,0-.36-.49L14.86,42.5a.35.35,0,0,1-.25-.63l6.94-5.24a.35.35,0,0,0-.08-.6l-8-3.32a.35.35,0,0,1,.09-.67L22.16,31a.34.34,0,0,0,.23-.56l-5.3-6.9a.35.35,0,0,1,.42-.53l8,3.39A.35.35,0,0,0,26,26l-1.14-8.63a.35.35,0,0,1,.62-.25l5.24,6.94a.35.35,0,0,0,.6-.08l3.33-8a.35.35,0,0,1,.67.09l1.06,8.64a.35.35,0,0,0,.56.23l6.9-5.3a.35.35,0,0,1,.53.42L41,28a.35.35,0,0,0,.37.48L50,27.38a.35.35,0,0,1,.26.62l-6.95,5.24a.35.35,0,0,0,.08.6l8,3.33a.35.35,0,0,1-.09.67L42.67,38.9a.35.35,0,0,0-.23.56l5.3,6.9A.35.35,0,0,1,47.33,46.89Z"></path><circle class="cls-4" cx="32.42" cy="34.94" r="8.11"></circle><path class="cls-2" d="M58.77,33h0l-.18.12h0c0,.54.06,1.08.06,1.62A33.82,33.82,0,0,1,56.3,47.12a39.26,39.26,0,0,1-3.77,7.46c-.7,1.21-1.58,2.29-2.39,3.42-.39.57-.89,1.07-1.32,1.61s-.89,1.07-1.36,1.58a65.75,65.75,0,0,1-12.8,10.6,109.2,109.2,0,0,1-14.78,7.72c-2,.85-4.07,1.64-6.13,2.39a49.28,49.28,0,0,0,4.49,4A4,4,0,0,0,20,85.54c.75-.36,1.5-.73,2.24-1.12A113,113,0,0,0,37,75.12,69.14,69.14,0,0,0,49.54,63c.45-.59.86-1.19,1.29-1.78s.88-1.16,1.25-1.79c.75-1.25,1.58-2.46,2.21-3.77a40.89,40.89,0,0,0,3.3-8.06A36.9,36.9,0,0,0,59.05,39a36.27,36.27,0,0,0-.08-4.3C58.92,34.15,58.85,33.58,58.77,33Z"></path><path class="cls-2" d="M56.56,75.86A42,42,0,0,1,48,84.14a.3.3,0,0,0,.16.55l6.31.5a1.07,1.07,0,0,0,.83-.31c1.11-1.15,2.92-3.22,2.92-3.22a41.6,41.6,0,0,0,3.68-5.32.18.18,0,0,0-.15-.27l-4.94-.32A.27.27,0,0,0,56.56,75.86Z"></path><path class="cls-2" d="M62.38,65.74A41.93,41.93,0,0,1,59,72.35a.31.31,0,0,0,.25.48l4,.22a.5.5,0,0,0,.49-.29A42.16,42.16,0,0,0,66.22,66a.32.32,0,0,0-.3-.39l-3.22-.08A.34.34,0,0,0,62.38,65.74Z"></path><path class="cls-2" d="M65,57c-.06,0-.12,0-.16,0a.22.22,0,0,0-.06.13,40,40,0,0,1-1.2,5.14.21.21,0,0,0,.19.28l3,.14a.22.22,0,0,0,.23-.18,43.18,43.18,0,0,0,.6-5.26.22.22,0,0,0-.21-.23Z"></path><path class="cls-2" d="M67.61,54.22c0-1.33-.13-2.64-.28-3.94a.21.21,0,0,0-.18-.19H65.59a.22.22,0,0,0-.17.09.36.36,0,0,0,0,.1c0,.65,0,1.3-.05,1.94s-.08,1.3-.14,1.95v.07a.21.21,0,0,0,.22.23h2A.23.23,0,0,0,67.61,54.22Z"></path><path class="cls-2" d="M66.15,44.15A.14.14,0,0,0,66,44l-.9,0c-.08,0-.12.13-.11.19,0,.33.08.62.12,1s.07.67.1,1,.06.67.08,1a.19.19,0,0,0,.2.15H66.7a.15.15,0,0,0,.15-.19C66.66,46.15,66.42,45.14,66.15,44.15Z"></path><path class="cls-2" d="M64.19,38.6l0,0a.49.49,0,0,0-.12,0l-.09,0a.13.13,0,0,0-.1.06.17.17,0,0,0,0,.12l0,.16.09.32c.06.21.12.42.17.64s.11.43.16.64l.15.65c0,.11,0,.22.07.33a.94.94,0,0,0,0,.16s0,.06,0,.09,0,.06,0,.08a.14.14,0,0,0,.08,0h0l.12,0h.5s.1,0,.1-.09a.08.08,0,0,0,0-.07s0-.05,0-.07l-.06-.16c0-.11-.07-.21-.11-.32v0c-.07-.21-.15-.42-.23-.62s-.15-.41-.23-.62l-.25-.61c-.08-.2-.17-.4-.26-.61,0,0,0-.07,0-.11Z"></path></g></g></svg> 