<?xml version="1.0" encoding="UTF-8"?> <svg xmlns="http://www.w3.org/2000/svg" viewBox="0 0 78.65 78.65"><defs><style>.cls-1{fill:#eda23b;}</style></defs><g id="Layer_2" data-name="Layer 2"><g id="Layer_1-2" data-name="Layer 1"><path class="cls-1" d="M34.65,40.76c-8.45-6.13-9.09-6.67-11-8.19a1.53,1.53,0,0,1-.59-1.2V30.15a3.06,3.06,0,0,1,3.06-3H52.57a3.06,3.06,0,0,1,3,3v1.22a1.52,1.52,0,0,1-.58,1.2c-1.95,1.53-2.59,2.06-11,8.19-1.07.78-3.2,2.66-4.68,2.64S35.72,41.54,34.65,40.76Zm21-5.29v13a3.06,3.06,0,0,1-3,3.06H26.08A3.06,3.06,0,0,1,23,48.49v-13a.38.38,0,0,1,.62-.3c1.43,1.11,3.32,2.51,9.81,7.23,1.35,1,3.61,3.05,5.87,3s4.59-2.09,5.88-3c6.49-4.72,8.38-6.13,9.81-7.24A.38.38,0,0,1,55.62,35.47Z"></path><path class="cls-1" d="M39.32,78.65A39.33,39.33,0,1,1,78.65,39.32,39.37,39.37,0,0,1,39.32,78.65ZM39.32,4A35.33,35.33,0,1,0,74.65,39.32,35.37,35.37,0,0,0,39.32,4Z"></path></g></g></svg> 