<?xml version="1.0" encoding="UTF-8"?> <svg xmlns="http://www.w3.org/2000/svg" viewBox="0 0 78.65 78.65"><defs><style>.cls-1{fill:#eda23b;}</style></defs><g id="Layer_2" data-name="Layer 2"><g id="Layer_1-2" data-name="Layer 1"><path class="cls-1" d="M28.38,36.63a12.23,12.23,0,0,1,24.45,0c0,4.93-1.72,6.31-11,19.72a1.52,1.52,0,0,1-2.51,0C30.1,42.94,28.38,41.56,28.38,36.63Zm17.32,0a5.1,5.1,0,1,0-5.1,5.09A5.09,5.09,0,0,0,45.7,36.63Z"></path><path class="cls-1" d="M39.32,78.65A39.33,39.33,0,1,1,78.65,39.32,39.37,39.37,0,0,1,39.32,78.65ZM39.32,4A35.33,35.33,0,1,0,74.65,39.32,35.37,35.37,0,0,0,39.32,4Z"></path></g></g></svg> 