<?xml version="1.0" encoding="UTF-8"?> <svg xmlns="http://www.w3.org/2000/svg" viewBox="0 0 38.4 38.4"><defs><style>.cls-1{fill:#f6b86f;}.cls-2{fill:#fff;}</style></defs><g id="Layer_2" data-name="Layer 2"><g id="Layer_1-2" data-name="Layer 1"><path class="cls-1" d="M34.11,31.16l-8-3.4a.35.35,0,0,0-.48.37l1.14,8.62a.35.35,0,0,1-.63.26l-5.24-6.95a.35.35,0,0,0-.6.08l-3.32,8a.35.35,0,0,1-.67-.09l-1.07-8.63a.35.35,0,0,0-.56-.24l-6.89,5.3a.35.35,0,0,1-.54-.41l3.4-8a.35.35,0,0,0-.37-.48L1.64,26.76a.35.35,0,0,1-.25-.63l6.94-5.24a.35.35,0,0,0-.07-.6L.22,17a.35.35,0,0,1,.09-.67l8.63-1.07a.35.35,0,0,0,.24-.56L3.87,7.78a.36.36,0,0,1,.42-.54l8,3.4a.35.35,0,0,0,.48-.37L11.64,1.64a.35.35,0,0,1,.62-.25L17.5,8.33a.35.35,0,0,0,.61-.07l3.32-8a.35.35,0,0,1,.67.09l1.06,8.63a.35.35,0,0,0,.56.24l6.9-5.31a.36.36,0,0,1,.54.42l-3.4,8a.35.35,0,0,0,.37.48l8.62-1.14a.35.35,0,0,1,.26.62L30.06,17.5a.36.36,0,0,0,.08.61l8,3.32a.35.35,0,0,1-.09.67l-8.63,1.06a.35.35,0,0,0-.24.56l5.3,6.9A.35.35,0,0,1,34.11,31.16Z"></path><circle class="cls-2" cx="19.2" cy="19.2" r="8.11"></circle></g></g></svg> 