<?xml version="1.0" encoding="UTF-8"?> <svg xmlns="http://www.w3.org/2000/svg" viewBox="0 0 500 426"><defs><style>.cls-1{opacity:0.36;}.cls-2{fill:#bbbfbf;opacity:0.48;}.cls-3{fill:#fff;}.cls-4{fill:#eca139;}</style></defs><g id="Layer_2" data-name="Layer 2"><g id="Layer_1-2" data-name="Layer 1"><g class="cls-1"><rect class="cls-2" width="500" height="426" rx="17.67"></rect></g><path class="cls-3" d="M116.47,256.34a10.1,10.1,0,0,1-4.15,4.82,11.5,11.5,0,0,1-6.32,2,4.33,4.33,0,0,1-2.52-.67,2,2,0,0,1-1-1.71,3.91,3.91,0,0,1,.84-2.23,5.22,5.22,0,0,0,1.75.28,7.79,7.79,0,0,0,5-1.89,5.71,5.71,0,0,0,2.3-4.54q0-4.05-5.38-4.05a23.51,23.51,0,0,0-13.9,4.89,36.61,36.61,0,0,0-10.93,12.68,33.26,33.26,0,0,0-4.16,15.82q0,12.44,11.32,12.43,7,0,14.95-5.45t10.48-11.8a2.82,2.82,0,0,1,1.32,2.44q0,3.15-4.47,7.79a32.22,32.22,0,0,1-11.24,7.41,36.38,36.38,0,0,1-13.83,2.76q-16.42,0-16.42-15.3a31.84,31.84,0,0,1,2.59-12.12,46.25,46.25,0,0,1,7-11.74,35.25,35.25,0,0,1,11-8.9,27.69,27.69,0,0,1,13-3.5q6.42,0,9.85,2.2t3.42,5.63A8.27,8.27,0,0,1,116.47,256.34Z"></path><path class="cls-3" d="M150.07,278q.21-.42.42-.42c.28,0,.42.35.42,1a6.9,6.9,0,0,1-2.69,5.56,8.21,8.21,0,0,1-5,2.2,6.26,6.26,0,0,1-4-1.33,24,24,0,0,1-6,7.83,13.53,13.53,0,0,1-8.91,2.86,7.85,7.85,0,0,1-5.69-2.13c-1.46-1.42-2.2-3.59-2.2-6.5a22.94,22.94,0,0,1,2-9,21.21,21.21,0,0,1,6-8,13.69,13.69,0,0,1,9-3.35q8.31,0,8.31,8.8a19.13,19.13,0,0,1-1.47,7.06,3.48,3.48,0,0,0,3,1.46Q146.87,284.07,150.07,278Zm-11.66-4.33q-.28-3.71-3.36-3.71-4.81,0-9.43,9.36a21.83,21.83,0,0,0-2.51,9.36c0,2.8,1.21,4.26,3.63,4.4,2,0,3.85-1.05,5.55-3.17a33.26,33.26,0,0,0,4.3-7,6.4,6.4,0,0,1-2.38-5.1,4.3,4.3,0,0,1,1-3,3.54,3.54,0,0,1,2.76-1.11Z"></path><path class="cls-3" d="M174.38,267l3.35.07a7.09,7.09,0,0,0,1.33-.07q-2,1.34-5.63,9.26t-3.66,11.42c0,1.39.46,2.09,1.39,2.09a4.63,4.63,0,0,0,2.48-1.19,14,14,0,0,0,2.69-2.62,38.26,38.26,0,0,0,2.41-3.52l2.24-3.64a6.32,6.32,0,0,1,1.08-1.53q.42,0,.42,1.32a4.57,4.57,0,0,1-.77,2.52q-8.66,14.46-14.46,14.46-3.92,0-3.91-5.8a20.82,20.82,0,0,1,.28-3.49q-6.57,9.29-12.5,9.29a3.35,3.35,0,0,1-2.83-1.47,7.26,7.26,0,0,1-1.08-4.33q0-2.87,2-9.46a39.73,39.73,0,0,1,5-10.87,3.06,3.06,0,0,1,1.5-1.29,12.58,12.58,0,0,1,3-.24h3.35a45.37,45.37,0,0,0-3.77,6.42q-4.6,9.57-4.61,14c0,1.77.64,2.66,1.92,2.66s2.81-1.23,4.58-3.7a77.31,77.31,0,0,0,5.69-9.61c2-3.93,3.2-6.16,3.53-6.67Q172,267,174.38,267Z"></path><path class="cls-3" d="M212.17,281.14q-2.59,4.33-4.72,7.23a26.5,26.5,0,0,1-4.85,5.06,8.28,8.28,0,0,1-5,2.17q-4.12,0-4.12-4.54t5.23-18.23a3.17,3.17,0,0,0,.28-1.33c0-1-.61-1.47-1.85-1.47a6.62,6.62,0,0,0-3.63,1.16,11.66,11.66,0,0,0-3.25,3.28,47.85,47.85,0,0,0-2.65,4.33,36,36,0,0,0-2.2,5.06c-.68,1.91-1.21,3.51-1.61,4.79s-.79,2.65-1.19,4.12S182,295,182,295.18h-6.78q0-1.47,6.15-16.83,2.52-7.2,2.52-10.06a2.07,2.07,0,0,0-.21-1.05h2.93a6.3,6.3,0,0,1,3.14.49,1.53,1.53,0,0,1,.7,1.33,15.24,15.24,0,0,1-.77,3.42q5.88-5.6,11.81-5.59,4,0,4,3.63a8.52,8.52,0,0,1-.35,2.38q-.35,1.19-1.74,4.75c-2.05,5.21-3.08,8.71-3.08,10.47q0,1.68,1.26,1.68a4.94,4.94,0,0,0,2.55-1.26,15.16,15.16,0,0,0,2.72-2.62,38.05,38.05,0,0,0,2.38-3.42c.86-1.37,1.59-2.57,2.2-3.6s.95-1.53,1-1.53c.27,0,.41.43.41,1.29A4.87,4.87,0,0,1,212.17,281.14Z"></path><path class="cls-3" d="M231.3,255.16q-3.42,2.37-7.68,12.15h7.06l.07.07c0,.23-.26.64-.77,1.22s-1,.87-1.33.87h-6q-5.52,13.69-5.52,17.61c0,1.77.56,2.65,1.68,2.65q2.44,0,5.73-4.19a22.45,22.45,0,0,0,2-3.07,60,60,0,0,1,3.36-5.17c.28,0,.42.37.42,1.12q-.08,2.65-5.8,10.33a26.67,26.67,0,0,1-4.54,4.68,8,8,0,0,1-4.82,2.17c-2.66,0-4-1.86-4-5.59a31.71,31.71,0,0,1,2.23-10.76v-.07a26.48,26.48,0,0,1-2.27,3.64c-.63.79-1,1.18-1.08,1.18s-.28-.29-.28-.87a7.73,7.73,0,0,1,.94-2.83q.95-1.95,2.59-5.1t2.69-5.73h-4.68c-.14,0-.21-.1-.21-.31a2.45,2.45,0,0,1,.52-1.08c.35-.51.62-.77.8-.77h5.31q5-12.09,10.2-12.09C230,255.22,231.07,255.2,231.3,255.16Z"></path><path class="cls-3" d="M245.76,267.1l3.57.07H250c-.69.51-1.68,2-3,4.54s-2.24,4.41-2.87,5.69a48.9,48.9,0,0,0-2.09,5.17,16.72,16.72,0,0,0-1.16,5.28c0,1.35.47,2,1.4,2a5.69,5.69,0,0,0,2.55-1.29,14.71,14.71,0,0,0,2.72-2.59A31.83,31.83,0,0,0,250,282.5c.86-1.42,1.61-2.65,2.23-3.7a5.94,5.94,0,0,1,1.09-1.57c.32,0,.49.43.49,1.29a4.88,4.88,0,0,1-.7,2.48q-3,5-5,7.61a26.07,26.07,0,0,1-4.72,4.86,8.34,8.34,0,0,1-5,2.2c-2.66,0-4-2-4-5.87a31.35,31.35,0,0,1,1.53-9,39.41,39.41,0,0,1,4.54-9.71,7.86,7.86,0,0,1-4.89,2,4.21,4.21,0,0,1-1.6-.35q-5,9.78-5.35,9.78c-.25,0-.38-.39-.38-1.16a9.09,9.09,0,0,1,.87-3.21c.58-1.37,1.21-2.69,1.89-4s1-1.95,1.08-2.09a4.23,4.23,0,0,1-2.51-4.05,4,4,0,0,1,.87-2.52,2.9,2.9,0,0,1,2.41-1.11,3.4,3.4,0,0,1,2.51,1,4.43,4.43,0,0,0-.13,1.26,3.58,3.58,0,0,0,1.36,3,5.17,5.17,0,0,0,3.32,1.08,3.43,3.43,0,0,0,.83-.07C242.43,268.26,244.09,267.1,245.76,267.1Z"></path><path class="cls-3" d="M278.73,267.94h2.87c-1.45.88-2.91,3.07-4.4,6.56-1.22,2.94-2.24,5.6-3.08,8l-1.53,4.37c-.19.51-.62,1.76-1.3,3.73s-1.22,3.51-1.64,4.58a26.47,26.47,0,0,1-4,7.75,17.06,17.06,0,0,1-5.73,4.58,15.3,15.3,0,0,1-6.91,1.71,12.19,12.19,0,0,1-6-1.36,4.55,4.55,0,0,1-2.48-4.3,4.41,4.41,0,0,1,.94-2.76,2.72,2.72,0,0,1,2.16-1.22,3.62,3.62,0,0,1,2.06.56,3.29,3.29,0,0,1,1.19,1.26c-.84.28-1.26,1.25-1.26,2.93a2.67,2.67,0,0,0,1,2.13,3.56,3.56,0,0,0,2.41.8q5.66,0,9.5-10.12l4-10.62a46.33,46.33,0,0,1-5.69,6.18,12.53,12.53,0,0,1-3.78,2.48,10.91,10.91,0,0,1-3.21.42,3.54,3.54,0,0,1-3-1.5,7.21,7.21,0,0,1-1.08-4.4,31.86,31.86,0,0,1,1.68-8.28A35.12,35.12,0,0,1,255,272.9a9.88,9.88,0,0,1,4.12-4,15.11,15.11,0,0,1,5.83-.91.24.24,0,0,1,.28.28,1.16,1.16,0,0,1-.42.7q-2.86,2.5-5.83,9t-3,11c0,1.59.44,2.38,1.33,2.38,1.67,0,3.82-1.68,6.42-5a44.19,44.19,0,0,0,6-10.06c.19-.47.46-1.14.8-2s.6-1.48.74-1.81.36-.78.66-1.36a4.33,4.33,0,0,1,.8-1.19c.24-.21.55-.48.95-.8a2.81,2.81,0,0,1,1.22-.63A18.66,18.66,0,0,1,278.73,267.94Z"></path><path class="cls-3" d="M348.65,256.34a10.1,10.1,0,0,1-4.15,4.82,11.51,11.51,0,0,1-6.33,2,4.32,4.32,0,0,1-2.51-.67,2,2,0,0,1-1-1.71,3.91,3.91,0,0,1,.84-2.23,5.22,5.22,0,0,0,1.75.28,7.74,7.74,0,0,0,5-1.89,5.69,5.69,0,0,0,2.31-4.54q0-4.05-5.38-4.05a23.51,23.51,0,0,0-13.9,4.89,36.61,36.61,0,0,0-10.93,12.68,33.26,33.26,0,0,0-4.16,15.82q0,12.44,11.32,12.43,7.05,0,14.95-5.45T347,276.88a2.8,2.8,0,0,1,1.33,2.44q0,3.15-4.47,7.79a32.22,32.22,0,0,1-11.24,7.41,36.39,36.39,0,0,1-13.84,2.76q-16.41,0-16.41-15.3a32,32,0,0,1,2.58-12.12,46.58,46.58,0,0,1,7-11.74,35.25,35.25,0,0,1,11-8.9,27.69,27.69,0,0,1,13-3.5q6.42,0,9.85,2.2t3.42,5.63A8.27,8.27,0,0,1,348.65,256.34Z"></path><path class="cls-3" d="M375.12,252.57a65.18,65.18,0,0,1-7.68,11.56,103.48,103.48,0,0,1-9.29,10.37L357,277.72a54.84,54.84,0,0,0-1.6,5.93,21.4,21.4,0,0,0-.7,5q0,2.1,1.53,2.1a6.22,6.22,0,0,0,3.67-1.75,18.8,18.8,0,0,0,3.11-3c.65-.86,1.41-2,2.27-3.38s1.61-2.61,2.23-3.64a5.87,5.87,0,0,1,1.09-1.53q.42,0,.42,1.29a4.88,4.88,0,0,1-.7,2.48,62.9,62.9,0,0,1-6.22,9.15q-4.81,5.31-9.92,5.31-3.91,0-3.91-5.31T353,272c.23-.74.77-2.31,1.61-4.68s1.56-4.23,2.16-5.55,1.42-3.09,2.45-5.28a31.44,31.44,0,0,1,3-5.24q1.43-2,3.17-4c2.29-2.7,4.75-4,7.41-4s4,1.21,4,3.63A11.9,11.9,0,0,1,375.12,252.57ZM373.66,245h-.49q-4.26,0-13.62,25.56,9.57-11.24,13.06-18.44c1.3-2.93,2-4.85,2-5.76S374.26,245,373.66,245Z"></path><path class="cls-3" d="M392.38,267l3.35.07a7.09,7.09,0,0,0,1.33-.07q-2,1.34-5.63,9.26t-3.66,11.42c0,1.39.46,2.09,1.39,2.09a4.63,4.63,0,0,0,2.48-1.19,14,14,0,0,0,2.69-2.62,38.26,38.26,0,0,0,2.41-3.52l2.24-3.64a6.32,6.32,0,0,1,1.08-1.53q.42,0,.42,1.32a4.57,4.57,0,0,1-.77,2.52q-8.65,14.46-14.46,14.46-3.92,0-3.91-5.8a20.82,20.82,0,0,1,.28-3.49q-6.57,9.29-12.5,9.29a3.35,3.35,0,0,1-2.83-1.47,7.18,7.18,0,0,1-1.09-4.33q0-2.87,2-9.46a39.73,39.73,0,0,1,5-10.87,3,3,0,0,1,1.5-1.29,12.58,12.58,0,0,1,3-.24h3.35a45.37,45.37,0,0,0-3.77,6.42q-4.6,9.57-4.61,14c0,1.77.64,2.66,1.92,2.66s2.81-1.23,4.58-3.7a78.56,78.56,0,0,0,5.69-9.61c2-3.93,3.2-6.16,3.53-6.67Q390,267,392.38,267Z"></path><path class="cls-3" d="M431,277.3q.42,0,.42,1.29a3.88,3.88,0,0,1-.42,2l-1.53,2.59q-3.44,5.65-5.59,7.54a7,7,0,0,1-4.61,2.17,3.8,3.8,0,0,1-3.91-2.73,22.16,22.16,0,0,1-5.8,4.3,14.87,14.87,0,0,1-6.57,1.43c-2.42,0-4.13-.39-5.13-1.15a4.56,4.56,0,0,1-1.5-3.85,26,26,0,0,1,.84-6.11,148.14,148.14,0,0,1,7.26-21.69q5.1-12.46,8-13.23a19,19,0,0,1,3.32-.25c1.61,0,2.57-.06,2.9-.1q-2.73,2-7.37,11.87a109.27,109.27,0,0,0-7,18.93Q411.87,267,418.57,267q4.76,0,4.75,6.81t-5.73,13.87a3,3,0,0,0,.7,1.88,2,2,0,0,0,1.61.7,3.64,3.64,0,0,0,2.13-.87,12.09,12.09,0,0,0,1.74-1.54c.4-.44.92-1.08,1.58-1.92a40.86,40.86,0,0,0,2.3-3.39c.88-1.42,1.64-2.64,2.27-3.67A6.32,6.32,0,0,1,431,277.3Zm-15.5-4.4a4.59,4.59,0,0,0-1.09-.07c-.58,0-1.67.6-3.28,1.81s-3.48,3.53-5.62,6.95-3.22,6.24-3.22,8.46.68,3.31,2,3.31q3.71,0,8-7.16t4.26-11.28C416.54,273.76,416.2,273.08,415.5,272.9Z"></path><path class="cls-4" d="M145.41,326.12q0,6-3.33,9.15c-2.21,2.12-5.41,3.17-9.57,3.17h-6.77V314.26h7.48q5.78,0,9,3.11C144.34,319.45,145.41,322.36,145.41,326.12Zm-4.17.13q0-8.67-8.12-8.68H129.7v17.55h2.81Q141.24,335.12,141.24,326.25Z"></path><path class="cls-4" d="M168.78,338.44l-2.41-6.71h-9.25l-2.36,6.71h-4.17l9-24.27h4.29l9,24.27Zm-3.46-10.12-2.26-6.58c-.17-.44-.4-1.14-.69-2.08s-.49-1.65-.6-2.09a36.17,36.17,0,0,1-1.31,4.45l-2.18,6.3Z"></path><path class="cls-4" d="M186.19,325.29l5.72-11h4.3l-8.06,14.81v9.37h-4V329.2l-8-14.94h4.3Z"></path><path class="cls-4" d="M229.56,338.44l-2.41-6.71H217.9l-2.36,6.71h-4.17l9-24.27h4.3l9,24.27Zm-3.45-10.12-2.27-6.58c-.16-.44-.39-1.14-.69-2.08s-.49-1.65-.6-2.09a36.17,36.17,0,0,1-1.31,4.45l-2.18,6.3Z"></path><path class="cls-4" d="M250.42,317.31a6.49,6.49,0,0,0-5.35,2.41,10.27,10.27,0,0,0-2,6.67q0,4.44,1.88,6.73a6.63,6.63,0,0,0,5.43,2.28,13.88,13.88,0,0,0,3-.31c1-.2,2-.46,3-.78v3.39a18.25,18.25,0,0,1-6.45,1.07q-5.3,0-8.15-3.21T239,326.35a14.91,14.91,0,0,1,1.38-6.6,9.91,9.91,0,0,1,4-4.33,12.12,12.12,0,0,1,6.14-1.5,15.26,15.26,0,0,1,6.84,1.55l-1.42,3.29a22.12,22.12,0,0,0-2.59-1A9.07,9.07,0,0,0,250.42,317.31Z"></path><path class="cls-4" d="M273.14,338.44h-3.95V317.65h-7.12v-3.39h18.18v3.39h-7.11Z"></path><path class="cls-4" d="M287.14,338.44V314.26h3.95v24.18Z"></path><path class="cls-4" d="M314.43,314.26h4.1l-8.47,24.18H305.9l-8.44-24.18h4.07l5,15c.27.71.55,1.64.85,2.77s.49,2,.58,2.52q.21-1.26.66-2.91c.3-1.1.54-1.92.73-2.45Z"></path><path class="cls-4" d="M324.91,338.44V314.26h3.95v24.18Z"></path><path class="cls-4" d="M346.78,338.44h-4V317.65h-7.11v-3.39h18.18v3.39h-7.11Z"></path><path class="cls-4" d="M367.6,325.29l5.73-11h4.3l-8.06,14.81v9.37h-4V329.2l-8-14.94h4.3Z"></path><polygon class="cls-3" points="262.37 225.56 281.77 225.94 296.61 207.29 283.67 205.39 262.37 225.56"></polygon><polygon class="cls-3" points="289.76 198.93 302.69 199.69 309.92 183.71 301.17 183.33 289.76 198.93"></polygon><polygon class="cls-3" points="308.02 164.69 304.22 176.86 311.44 177.62 312.97 165.07 308.02 164.69"></polygon><polygon class="cls-3" points="309.54 150.23 308.78 159.74 313.73 159.74 313.35 149.85 309.54 150.23"></polygon><polygon class="cls-3" points="305.74 136.15 308.02 143.38 311.44 143.38 308.78 136.15 305.74 136.15"></polygon><path class="cls-3" d="M305.36,130.45c-.81-.54-4.28-4.12-6.24-6.17h0a5.48,5.48,0,0,0-.57,0,.77.77,0,0,1-.07.16c1.22,2.6,3.46,7.1,3.46,7.1S306.5,131.21,305.36,130.45Z"></path><path class="cls-3" d="M352.81,171.18c-1.33-3.75-3.07-7.32-4.75-10.9-1.92-3.46-3.75-6.95-6-10.19-2-3.37-4.58-6.38-6.9-9.52l-3.86-4.41c-.65-.73-1.28-1.48-1.94-2.19l-2.08-2.05a153.47,153.47,0,0,0-30.16-23.33h0a2.59,2.59,0,0,1-.24.6,151.69,151.69,0,0,1,27.67,25.22l1.84,2.15c.59.74,1.13,1.51,1.7,2.26l3.37,4.53c2,3.2,4.16,6.25,5.83,9.6,1.88,3.23,3.32,6.68,4.86,10a110.3,110.3,0,0,1,3.59,10.51,104.08,104.08,0,0,1,2.74,43.65c-.45,3.14-1.05,6.26-1.75,9.36a2.6,2.6,0,0,0,2.55,3.15h5a4.7,4.7,0,0,0,4.66-4.14q.44-3.63.66-7.26A113.55,113.55,0,0,0,352.81,171.18Z"></path><path class="cls-4" d="M263.75,142.42l-19.39-8.22a.85.85,0,0,0-1.17.89L246,156a.84.84,0,0,1-1.51.62l-12.68-16.81a.85.85,0,0,0-1.46.18l-8.05,19.47a.85.85,0,0,1-1.62-.22l-2.57-20.9a.85.85,0,0,0-1.36-.57L200,150.57a.84.84,0,0,1-1.29-1l8.22-19.39A.85.85,0,0,0,206,129l-20.88,2.77a.85.85,0,0,1-.62-1.52l16.81-12.68a.85.85,0,0,0-.19-1.46l-19.46-8a.85.85,0,0,1,.22-1.62l20.9-2.58a.85.85,0,0,0,.57-1.36L190.55,85.83a.85.85,0,0,1,1-1.3L211,92.75a.85.85,0,0,0,1.17-.89L209.35,71a.84.84,0,0,1,1.51-.62l12.69,16.82A.85.85,0,0,0,225,87l8-19.47a.85.85,0,0,1,1.62.22l2.58,20.91a.84.84,0,0,0,1.35.56l16.7-12.83a.85.85,0,0,1,1.3,1l-8.22,19.39a.84.84,0,0,0,.89,1.17l20.88-2.77a.85.85,0,0,1,.62,1.52L254,109.37a.85.85,0,0,0,.19,1.46l19.47,8a.85.85,0,0,1-.22,1.63l-20.91,2.57a.85.85,0,0,0-.57,1.36l12.84,16.7A.84.84,0,0,1,263.75,142.42Z"></path><circle class="cls-3" cx="227.65" cy="113.48" r="19.64"></circle><path class="cls-3" d="M285.3,113.56l0,0-.39.25h0c.08,1.19.13,2.38.13,3.57a73.59,73.59,0,0,1-.57,9.27,77.09,77.09,0,0,1-4.55,17.88,85.77,85.77,0,0,1-8.26,16.37c-1.53,2.63-3.47,5-5.24,7.49-.86,1.25-1.94,2.36-2.9,3.54s-1.95,2.33-3,3.46a144.34,144.34,0,0,1-28.09,23.24A239.47,239.47,0,0,1,200,215.56,335,335,0,0,1,164.46,228a.84.84,0,0,0,.24,1.65h32.24a6.13,6.13,0,0,0,2.69-.62c1.83-.9,3.66-1.8,5.47-2.73a250.94,250.94,0,0,0,32.44-20.4,151.93,151.93,0,0,0,27.51-26.71c1-1.28,1.88-2.6,2.83-3.89s1.92-2.55,2.74-3.94c1.65-2.75,3.46-5.38,4.85-8.27a89.49,89.49,0,0,0,7.22-17.67,79.36,79.36,0,0,0,3.2-18.69,76.24,76.24,0,0,0-.16-9.44C285.62,116.07,285.48,114.81,285.3,113.56Z"></path></g></g></svg> 